<ttFont>
    <TTGlyph name=".notdef" xMin="228" yMin="0" xMax="1644" yMax="1416">
      <contour>
        <pt x="228" y="1416" on="1"/>
        <pt x="1644" y="1416" on="1"/>
        <pt x="1644" y="0" on="1"/>
        <pt x="228" y="0" on="1"/>
      </contour>
      <contour>
        <pt x="586" y="219" on="1"/>
        <pt x="933" y="587" on="1"/>
        <pt x="1295" y="219" on="1"/>
        <pt x="1417" y="341" on="1"/>
        <pt x="1054" y="709" on="1"/>
        <pt x="1417" y="1067" on="1"/>
        <pt x="1289" y="1191" on="1"/>
        <pt x="937" y="825" on="1"/>
        <pt x="580" y="1193" on="1"/>
        <pt x="457" y="1068" on="1"/>
        <pt x="816" y="705" on="1"/>
        <pt x="458" y="363" on="1"/>
      </contour>
    </TTGlyph>
    <TTGlyph name="A" xMin="-76" yMin="0" xMax="1175" yMax="1530">
      <contour>
        <pt x="670" y="1530" on="1"/>
        <pt x="889" y="1530" on="1"/>
        <pt x="1175" y="0" on="1"/>
        <pt x="977" y="0" on="1"/>
        <pt x="911" y="396" on="1"/>
        <pt x="317" y="396" on="1"/>
        <pt x="135" y="0" on="1"/>
        <pt x="-76" y="0" on="1"/>
      </contour>
      <contour>
        <pt x="885" y="547" on="1"/>
        <pt x="770" y="1236" on="1"/>
        <pt x="757" y="1352" on="1"/>
        <pt x="701" y="1230" on="1"/>
        <pt x="386" y="547" on="1"/>
      </contour>
    </TTGlyph>
    <TTGlyph name="AE" xMin="-128" yMin="0" xMax="1695" yMax="1530">
      <contour>
        <pt x="-128" y="0" on="1"/>
        <pt x="641" y="1408" on="1"/>
        <pt x="350" y="1430" on="1"/>
        <pt x="364" y="1530" on="1"/>
        <pt x="1695" y="1530" on="1"/>
        <pt x="1688" y="1373" on="1"/>
        <pt x="1107" y="1381" on="1"/>
        <pt x="1040" y="854" on="1"/>
        <pt x="1478" y="861" on="1"/>
        <pt x="1466" y="695" on="1"/>
        <pt x="1023" y="710" on="1"/>
        <pt x="951" y="149" on="1"/>
        <pt x="1651" y="165" on="1"/>
        <pt x="1637" y="0" on="1"/>
        <pt x="735" y="0" on="1"/>
        <pt x="787" y="416" on="1"/>
        <pt x="304" y="416" on="1"/>
        <pt x="85" y="0" on="1"/>
      </contour>
      <contour>
        <pt x="806" y="567" on="1"/>
        <pt x="910" y="1387" on="1"/>
        <pt x="820" y="1393" on="1"/>
        <pt x="384" y="567" on="1"/>
      </contour>
    </TTGlyph>
    <TTGlyph name="AEacute" xMin="-128" yMin="0" xMax="1695" yMax="2000">
      <component glyphName="acute.cap" x="908" y="0" flags="0x4"/>
      <component glyphName="AE" x="0" y="0" flags="0x4"/>
    </TTGlyph>
    <TTGlyph name="Aacute" xMin="-76" yMin="0" xMax="1175" yMax="2000">
      <component glyphName="A" x="0" y="0" flags="0x204"/>
      <component glyphName="acute.cap" x="671" y="0" flags="0x4"/>
    </TTGlyph>
    <TTGlyph name="Abreve" xMin="-76" yMin="0" xMax="1175" yMax="1980">
      <component glyphName="A" x="0" y="0" flags="0x204"/>
      <component glyphName="breve.cap" x="456" y="0" flags="0x4"/>
    </TTGlyph>
    <TTGlyph name="Acircumflex" xMin="-76" yMin="0" xMax="1175" yMax="2006">
      <component glyphName="A" x="0" y="0" flags="0x204"/>
      <component glyphName="circumflex.cap" x="412" y="0" flags="0x4"/>
    </TTGlyph>
    <TTGlyph name="Adieresis" xMin="-76" yMin="0" xMax="1175" yMax="1959">
      <component glyphName="A" x="0" y="0" flags="0x204"/>
      <component glyphName="dieresis.cap" x="420" y="0" flags="0x4"/>
    </TTGlyph>
    <TTGlyph name="Agrave" xMin="-76" yMin="0" xMax="1175" yMax="2000">
      <component glyphName="A" x="0" y="0" flags="0x204"/>
      <component glyphName="grave.cap" x="433" y="0" flags="0x4"/>
    </TTGlyph>
    <TTGlyph name="Amacron" xMin="-76" yMin="0" xMax="1175" yMax="1878">
      <component glyphName="A" x="0" y="0" flags="0x204"/>
      <component glyphName="macron.cap" x="486" y="0" flags="0x4"/>
    </TTGlyph>
    <TTGlyph name="Aogonek" xMin="-76" yMin="-435" xMax="1175" yMax="1530">
      <contour>
        <pt x="670" y="1530" on="1"/>
        <pt x="889" y="1530" on="1"/>
        <pt x="1175" y="0" on="1"/>
        <pt x="1136" y="0" on="1"/>
        <pt x="1108" y="-20" on="0"/>
        <pt x="1036" y="-74" on="0"/>
        <pt x="973" y="-132" on="0"/>
        <pt x="929" y="-193" on="0"/>
        <pt x="929" y="-221" on="1"/>
        <pt x="929" y="-242" on="0"/>
        <pt x="942" y="-267" on="0"/>
        <pt x="962" y="-282" on="0"/>
        <pt x="983" y="-287" on="0"/>
        <pt x="992" y="-287" on="1"/>
        <pt x="1019" y="-287" on="0"/>
        <pt x="1080" y="-271" on="0"/>
        <pt x="1122" y="-242" on="1"/>
        <pt x="1173" y="-341" on="1"/>
        <pt x="1157" y="-355" on="0"/>
        <pt x="1109" y="-387" on="0"/>
        <pt x="1047" y="-416" on="0"/>
        <pt x="971" y="-435" on="0"/>
        <pt x="928" y="-435" on="1"/>
        <pt x="877" y="-435" on="0"/>
        <pt x="803" y="-405" on="0"/>
        <pt x="757" y="-359" on="0"/>
        <pt x="735" y="-305" on="0"/>
        <pt x="735" y="-281" on="1"/>
        <pt x="735" y="-229" on="0"/>
        <pt x="790" y="-142" on="0"/>
        <pt x="867" y="-71" on="0"/>
        <pt x="951" y="-18" on="0"/>
        <pt x="980" y="0" on="1"/>
        <pt x="977" y="0" on="1"/>
        <pt x="911" y="396" on="1"/>
        <pt x="317" y="396" on="1"/>
        <pt x="135" y="0" on="1"/>
        <pt x="-76" y="0" on="1"/>
      </contour>
      <contour>
        <pt x="885" y="547" on="1"/>
        <pt x="770" y="1236" on="1"/>
        <pt x="757" y="1352" on="1"/>
        <pt x="701" y="1230" on="1"/>
        <pt x="386" y="547" on="1"/>
      </contour>
    </TTGlyph>
    <TTGlyph name="Aring" xMin="-76" yMin="0" xMax="1175" yMax="2000">
      <component glyphName="A" x="0" y="0" flags="0x204"/>
      <component glyphName="ring.cap" x="443" y="0" flags="0x4"/>
    </TTGlyph>
    <TTGlyph name="Atilde" xMin="-76" yMin="0" xMax="1213" yMax="1970">
      <component glyphName="A" x="0" y="0" flags="0x204"/>
      <component glyphName="tilde.cap" x="421" y="0" flags="0x4"/>
    </TTGlyph>
    <TTGlyph name="B" xMin="110" yMin="-14" xMax="1143" yMax="1546">
      <contour>
        <pt x="303" y="1530" on="1"/>
        <pt x="404" y="1530" on="1"/>
        <pt x="474" y="1531" on="0"/>
        <pt x="615" y="1546" on="0"/>
        <pt x="692" y="1546" on="1"/>
        <pt x="823" y="1546" on="0"/>
        <pt x="995" y="1490" on="0"/>
        <pt x="1098" y="1398" on="0"/>
        <pt x="1141" y="1280" on="0"/>
        <pt x="1142" y="1218" on="1"/>
        <pt x="1143" y="1136" on="0"/>
        <pt x="1100" y="1003" on="0"/>
        <pt x="1020" y="900" on="0"/>
        <pt x="907" y="825" on="0"/>
        <pt x="838" y="802" on="1"/>
        <pt x="899" y="794" on="0"/>
        <pt x="1006" y="743" on="0"/>
        <pt x="1086" y="662" on="0"/>
        <pt x="1133" y="554" on="0"/>
        <pt x="1134" y="490" on="1"/>
        <pt x="1136" y="354" on="0"/>
        <pt x="1037" y="162" on="0"/>
        <pt x="856" y="41" on="0"/>
        <pt x="606" y="-14" on="0"/>
        <pt x="457" y="-14" on="1"/>
        <pt x="428" y="-14" on="0"/>
        <pt x="361" y="-10" on="0"/>
        <pt x="293" y="-4" on="0"/>
        <pt x="229" y="0" on="0"/>
        <pt x="202" y="0" on="1"/>
        <pt x="110" y="0" on="1"/>
      </contour>
      <contour>
        <pt x="417" y="864" on="1"/>
        <pt x="455" y="862" on="0"/>
        <pt x="547" y="863" on="0"/>
        <pt x="587" y="863" on="1"/>
        <pt x="661" y="863" on="0"/>
        <pt x="792" y="905" on="0"/>
        <pt x="890" y="989" on="0"/>
        <pt x="945" y="1113" on="0"/>
        <pt x="944" y="1195" on="1"/>
        <pt x="943" y="1248" on="0"/>
        <pt x="909" y="1328" on="0"/>
        <pt x="838" y="1381" on="0"/>
        <pt x="726" y="1408" on="0"/>
        <pt x="646" y="1408" on="1"/>
        <pt x="635" y="1408" on="0"/>
        <pt x="596" y="1407" on="0"/>
        <pt x="549" y="1405" on="0"/>
        <pt x="502" y="1401" on="0"/>
        <pt x="484" y="1398" on="1"/>
      </contour>
      <contour>
        <pt x="326" y="146" on="1"/>
        <pt x="341" y="140" on="0"/>
        <pt x="387" y="133" on="0"/>
        <pt x="438" y="129" on="0"/>
        <pt x="485" y="127" on="0"/>
        <pt x="500" y="127" on="1"/>
        <pt x="593" y="127" on="0"/>
        <pt x="750" y="162" on="0"/>
        <pt x="863" y="241" on="0"/>
        <pt x="925" y="372" on="0"/>
        <pt x="923" y="468" on="1"/>
        <pt x="921" y="598" on="0"/>
        <pt x="754" y="723" on="0"/>
        <pt x="603" y="723" on="1"/>
        <pt x="527" y="723" on="0"/>
        <pt x="429" y="718" on="0"/>
        <pt x="398" y="716" on="1"/>
      </contour>
    </TTGlyph>
    <TTGlyph name="C" xMin="104" yMin="-16" xMax="1142" yMax="1546">
      <contour>
        <pt x="610" y="-16" on="1"/>
        <pt x="517" y="-16" on="0"/>
        <pt x="370" y="36" on="0"/>
        <pt x="259" y="127" on="0"/>
        <pt x="181" y="251" on="0"/>
        <pt x="132" y="394" on="0"/>
        <pt x="108" y="549" on="0"/>
        <pt x="107" y="627" on="1"/>
        <pt x="104" y="764" on="0"/>
        <pt x="151" y="1007" on="0"/>
        <pt x="241" y="1211" on="0"/>
        <pt x="371" y="1373" on="0"/>
        <pt x="530" y="1486" on="0"/>
        <pt x="715" y="1546" on="0"/>
        <pt x="817" y="1546" on="1"/>
        <pt x="866" y="1546" on="0"/>
        <pt x="943" y="1537" on="0"/>
        <pt x="1008" y="1524" on="0"/>
        <pt x="1062" y="1506" on="0"/>
        <pt x="1088" y="1497" on="1"/>
        <pt x="1142" y="1479" on="1"/>
        <pt x="1072" y="1315" on="1"/>
        <pt x="1060" y="1321" on="0"/>
        <pt x="1021" y="1343" on="0"/>
        <pt x="960" y="1364" on="0"/>
        <pt x="871" y="1380" on="0"/>
        <pt x="810" y="1380" on="1"/>
        <pt x="713" y="1380" on="0"/>
        <pt x="563" y="1311" on="0"/>
        <pt x="450" y="1196" on="0"/>
        <pt x="374" y="1046" on="0"/>
        <pt x="327" y="884" on="0"/>
        <pt x="308" y="719" on="0"/>
        <pt x="309" y="648" on="1"/>
        <pt x="311" y="542" on="0"/>
        <pt x="352" y="358" on="0"/>
        <pt x="435" y="221" on="0"/>
        <pt x="560" y="142" on="0"/>
        <pt x="646" y="142" on="1"/>
        <pt x="713" y="142" on="0"/>
        <pt x="831" y="167" on="0"/>
        <pt x="925" y="201" on="0"/>
        <pt x="990" y="238" on="0"/>
        <pt x="1005" y="250" on="1"/>
        <pt x="1035" y="84" on="1"/>
        <pt x="1020" y="73" on="0"/>
        <pt x="959" y="39" on="0"/>
        <pt x="857" y="7" on="0"/>
        <pt x="710" y="-16" on="0"/>
      </contour>
    </TTGlyph>
    <TTGlyph name="Cacute" xMin="104" yMin="-16" xMax="1161" yMax="2000">
      <component glyphName="C" x="0" y="0" flags="0x204"/>
      <component glyphName="acute.cap" x="683" y="0" flags="0x4"/>
    </TTGlyph>
    <TTGlyph name="Ccaron" xMin="104" yMin="-16" xMax="1207" yMax="2013">
      <component glyphName="C" x="0" y="0" flags="0x204"/>
      <component glyphName="caron.cap" x="423" y="0" flags="0x4"/>
    </TTGlyph>
    <TTGlyph name="Ccedilla" xMin="104" yMin="-462" xMax="1142" yMax="1546">
      <contour>
        <pt x="331" y="-283" on="1"/>
        <pt x="357" y="-297" on="0"/>
        <pt x="402" y="-297" on="1"/>
        <pt x="433" y="-297" on="0"/>
        <pt x="490" y="-283" on="0"/>
        <pt x="534" y="-243" on="0"/>
        <pt x="561" y="-173" on="0"/>
        <pt x="561" y="-117" on="1"/>
        <pt x="561" y="-95" on="0"/>
        <pt x="562" y="-39" on="0"/>
        <pt x="561" y="-14" on="1"/>
        <pt x="477" y="-7" on="0"/>
        <pt x="345" y="52" on="0"/>
        <pt x="245" y="145" on="0"/>
        <pt x="175" y="267" on="0"/>
        <pt x="130" y="404" on="0"/>
        <pt x="108" y="553" on="0"/>
        <pt x="107" y="627" on="1"/>
        <pt x="104" y="764" on="0"/>
        <pt x="151" y="1007" on="0"/>
        <pt x="241" y="1211" on="0"/>
        <pt x="371" y="1373" on="0"/>
        <pt x="530" y="1486" on="0"/>
        <pt x="715" y="1546" on="0"/>
        <pt x="817" y="1546" on="1"/>
        <pt x="866" y="1546" on="0"/>
        <pt x="943" y="1537" on="0"/>
        <pt x="1008" y="1524" on="0"/>
        <pt x="1062" y="1506" on="0"/>
        <pt x="1088" y="1497" on="1"/>
        <pt x="1142" y="1479" on="1"/>
        <pt x="1072" y="1315" on="1"/>
        <pt x="1060" y="1321" on="0"/>
        <pt x="1021" y="1343" on="0"/>
        <pt x="960" y="1364" on="0"/>
        <pt x="871" y="1380" on="0"/>
        <pt x="810" y="1380" on="1"/>
        <pt x="713" y="1380" on="0"/>
        <pt x="563" y="1311" on="0"/>
        <pt x="450" y="1196" on="0"/>
        <pt x="374" y="1046" on="0"/>
        <pt x="327" y="884" on="0"/>
        <pt x="308" y="719" on="0"/>
        <pt x="309" y="648" on="1"/>
        <pt x="311" y="542" on="0"/>
        <pt x="352" y="358" on="0"/>
        <pt x="435" y="221" on="0"/>
        <pt x="560" y="142" on="0"/>
        <pt x="646" y="142" on="1"/>
        <pt x="713" y="142" on="0"/>
        <pt x="831" y="167" on="0"/>
        <pt x="925" y="201" on="0"/>
        <pt x="990" y="238" on="0"/>
        <pt x="1005" y="250" on="1"/>
        <pt x="1035" y="84" on="1"/>
        <pt x="1022" y="74" on="0"/>
        <pt x="973" y="46" on="0"/>
        <pt x="894" y="17" on="0"/>
        <pt x="783" y="-7" on="0"/>
        <pt x="709" y="-12" on="1"/>
        <pt x="720" y="-41" on="0"/>
        <pt x="732" y="-117" on="0"/>
        <pt x="732" y="-163" on="1"/>
        <pt x="732" y="-248" on="0"/>
        <pt x="687" y="-362" on="0"/>
        <pt x="610" y="-432" on="0"/>
        <pt x="509" y="-462" on="0"/>
        <pt x="454" y="-462" on="1"/>
        <pt x="434" y="-462" on="0"/>
        <pt x="389" y="-458" on="0"/>
        <pt x="348" y="-450" on="0"/>
        <pt x="314" y="-440" on="0"/>
        <pt x="306" y="-434" on="1"/>
        <pt x="331" y="-283" on="1"/>
      </contour>
    </TTGlyph>
    <TTGlyph name="Ccircumflex" xMin="104" yMin="-16" xMax="1168" yMax="2006">
      <component glyphName="C" x="0" y="0" flags="0x204"/>
      <component glyphName="circumflex.cap" x="424" y="0" flags="0x4"/>
    </TTGlyph>
    <TTGlyph name="Cdotaccent" xMin="104" yMin="-16" xMax="1142" yMax="1959">
      <component glyphName="dotaccent.cap" x="639" y="0" flags="0x4"/>
      <component glyphName="C" x="0" y="0" flags="0x4"/>
    </TTGlyph>
    <TTGlyph name="D" xMin="110" yMin="-19" xMax="1300" yMax="1546">
      <contour>
        <pt x="303" y="1530" on="1"/>
        <pt x="411" y="1530" on="1"/>
        <pt x="445" y="1530" on="0"/>
        <pt x="524" y="1535" on="0"/>
        <pt x="606" y="1541" on="0"/>
        <pt x="686" y="1546" on="0"/>
        <pt x="721" y="1546" on="1"/>
        <pt x="874" y="1546" on="0"/>
        <pt x="1090" y="1455" on="0"/>
        <pt x="1229" y="1291" on="0"/>
        <pt x="1296" y="1061" on="0"/>
        <pt x="1298" y="922" on="1"/>
        <pt x="1300" y="790" on="0"/>
        <pt x="1253" y="546" on="0"/>
        <pt x="1159" y="336" on="0"/>
        <pt x="1021" y="164" on="0"/>
        <pt x="847" y="44" on="0"/>
        <pt x="639" y="-19" on="0"/>
        <pt x="522" y="-16" on="1"/>
        <pt x="511" y="-16" on="0"/>
        <pt x="482" y="-14" on="0"/>
        <pt x="451" y="-12" on="0"/>
        <pt x="421" y="-10" on="0"/>
        <pt x="409" y="-9" on="1"/>
        <pt x="392" y="-8" on="0"/>
        <pt x="342" y="-4" on="0"/>
        <pt x="286" y="-2" on="0"/>
        <pt x="232" y="0" on="0"/>
        <pt x="211" y="0" on="1"/>
        <pt x="110" y="0" on="1"/>
      </contour>
      <contour>
        <pt x="328" y="163" on="1"/>
        <pt x="374" y="148" on="0"/>
        <pt x="501" y="132" on="0"/>
        <pt x="564" y="134" on="1"/>
        <pt x="657" y="137" on="0"/>
        <pt x="809" y="204" on="0"/>
        <pt x="928" y="316" on="0"/>
        <pt x="1014" y="464" on="0"/>
        <pt x="1069" y="634" on="0"/>
        <pt x="1094" y="816" on="0"/>
        <pt x="1093" y="906" on="1"/>
        <pt x="1091" y="1044" on="0"/>
        <pt x="1041" y="1233" on="0"/>
        <pt x="937" y="1349" on="0"/>
        <pt x="776" y="1400" on="0"/>
        <pt x="662" y="1400" on="1"/>
        <pt x="642" y="1400" on="0"/>
        <pt x="592" y="1397" on="0"/>
        <pt x="542" y="1392" on="0"/>
        <pt x="497" y="1385" on="0"/>
        <pt x="482" y="1381" on="1"/>
      </contour>
    </TTGlyph>
    <TTGlyph name="Dcaron" xMin="110" yMin="-19" xMax="1300" yMax="2013">
      <component glyphName="caron.cap" x="408" y="0" flags="0x4"/>
      <component glyphName="D" x="0" y="0" flags="0x4"/>
    </TTGlyph>
    <TTGlyph name="Dcroat" xMin="42" yMin="-19" xMax="1300" yMax="1546">
      <component glyphName="Eth" x="0" y="0" flags="0x204"/>
    </TTGlyph>
    <TTGlyph name="Delta" xMin="-33" yMin="0" xMax="1332" yMax="1508">
      <contour>
        <pt x="-33" y="22" on="1"/>
        <pt x="731" y="1508" on="1"/>
        <pt x="763" y="1508" on="1"/>
        <pt x="1332" y="27" on="1"/>
        <pt x="1315" y="0" on="1"/>
        <pt x="-21" y="0" on="1"/>
      </contour>
      <contour>
        <pt x="1052" y="170" on="1"/>
        <pt x="725" y="1074" on="1"/>
        <pt x="284" y="170" on="1"/>
      </contour>
    </TTGlyph>
    <TTGlyph name="E" xMin="110" yMin="0" xMax="1070" yMax="1530">
      <contour>
        <pt x="303" y="1530" on="1"/>
        <pt x="1070" y="1530" on="1"/>
        <pt x="1063" y="1373" on="1"/>
        <pt x="482" y="1381" on="1"/>
        <pt x="415" y="854" on="1"/>
        <pt x="853" y="861" on="1"/>
        <pt x="841" y="695" on="1"/>
        <pt x="398" y="710" on="1"/>
        <pt x="326" y="149" on="1"/>
        <pt x="1026" y="165" on="1"/>
        <pt x="1012" y="0" on="1"/>
        <pt x="110" y="0" on="1"/>
      </contour>
    </TTGlyph>
    <TTGlyph name="Eacute" xMin="110" yMin="0" xMax="1070" yMax="2000">
      <component glyphName="acute.cap" x="579" y="0" flags="0x4"/>
      <component glyphName="E" x="0" y="0" flags="0x4"/>
    </TTGlyph>
    <TTGlyph name="Ebreve" xMin="110" yMin="0" xMax="1070" yMax="1980">
      <component glyphName="breve.cap" x="364" y="0" flags="0x4"/>
      <component glyphName="E" x="0" y="0" flags="0x4"/>
    </TTGlyph>
    <TTGlyph name="Ecaron" xMin="110" yMin="0" xMax="1103" yMax="2013">
      <component glyphName="caron.cap" x="319" y="0" flags="0x4"/>
      <component glyphName="E" x="0" y="0" flags="0x4"/>
    </TTGlyph>
    <TTGlyph name="Ecircumflex" xMin="110" yMin="0" xMax="1070" yMax="2006">
      <component glyphName="E" x="0" y="0" flags="0x204"/>
      <component glyphName="circumflex.cap" x="320" y="0" flags="0x4"/>
    </TTGlyph>
    <TTGlyph name="Edieresis" xMin="110" yMin="0" xMax="1071" yMax="1959">
      <component glyphName="dieresis.cap" x="328" y="0" flags="0x4"/>
      <component glyphName="E" x="0" y="0" flags="0x4"/>
    </TTGlyph>
    <TTGlyph name="Edotaccent" xMin="110" yMin="0" xMax="1070" yMax="1959">
      <component glyphName="dotaccent.cap" x="535" y="0" flags="0x4"/>
      <component glyphName="E" x="0" y="0" flags="0x4"/>
    </TTGlyph>
    <TTGlyph name="Egrave" xMin="110" yMin="0" xMax="1070" yMax="2000">
      <component glyphName="grave.cap" x="341" y="0" flags="0x4"/>
      <component glyphName="E" x="0" y="0" flags="0x4"/>
    </TTGlyph>
    <TTGlyph name="Emacron" xMin="110" yMin="0" xMax="1070" yMax="1878">
      <component glyphName="macron.cap" x="394" y="0" flags="0x4"/>
      <component glyphName="E" x="0" y="0" flags="0x4"/>
    </TTGlyph>
    <TTGlyph name="Eng" xMin="110" yMin="-315" xMax="1342" yMax="1530">
      <contour>
        <pt x="303" y="1530" on="1"/>
        <pt x="509" y="1530" on="1"/>
        <pt x="949" y="468" on="1"/>
        <pt x="1012" y="261" on="1"/>
        <pt x="1031" y="510" on="1"/>
        <pt x="1154" y="1530" on="1"/>
        <pt x="1342" y="1530" on="1"/>
        <pt x="1149" y="0" on="1"/>
        <pt x="1145" y="0" on="1"/>
        <pt x="1114" y="-73" on="0"/>
        <pt x="1024" y="-180" on="0"/>
        <pt x="910" y="-255" on="0"/>
        <pt x="775" y="-302" on="0"/>
        <pt x="700" y="-315" on="1"/>
        <pt x="665" y="-227" on="1"/>
        <pt x="715" y="-211" on="0"/>
        <pt x="802" y="-159" on="0"/>
        <pt x="874" y="-93" on="0"/>
        <pt x="928" y="-17" on="0"/>
        <pt x="946" y="24" on="1"/>
        <pt x="501" y="1075" on="1"/>
        <pt x="448" y="1307" on="1"/>
        <pt x="421" y="1009" on="1"/>
        <pt x="295" y="0" on="1"/>
        <pt x="110" y="0" on="1"/>
      </contour>
    </TTGlyph>
    <TTGlyph name="Eogonek" xMin="110" yMin="-435" xMax="1070" yMax="1530">
      <contour>
        <pt x="303" y="1530" on="1"/>
        <pt x="1070" y="1530" on="1"/>
        <pt x="1063" y="1373" on="1"/>
        <pt x="482" y="1381" on="1"/>
        <pt x="415" y="854" on="1"/>
        <pt x="853" y="861" on="1"/>
        <pt x="841" y="695" on="1"/>
        <pt x="398" y="710" on="1"/>
        <pt x="326" y="149" on="1"/>
        <pt x="1026" y="165" on="1"/>
        <pt x="1012" y="0" on="1"/>
        <pt x="962" y="0" on="1"/>
        <pt x="934" y="-20" on="0"/>
        <pt x="862" y="-74" on="0"/>
        <pt x="799" y="-132" on="0"/>
        <pt x="755" y="-193" on="0"/>
        <pt x="755" y="-221" on="1"/>
        <pt x="755" y="-242" on="0"/>
        <pt x="768" y="-267" on="0"/>
        <pt x="788" y="-282" on="0"/>
        <pt x="809" y="-287" on="0"/>
        <pt x="818" y="-287" on="1"/>
        <pt x="845" y="-287" on="0"/>
        <pt x="906" y="-271" on="0"/>
        <pt x="948" y="-242" on="1"/>
        <pt x="999" y="-341" on="1"/>
        <pt x="983" y="-355" on="0"/>
        <pt x="935" y="-387" on="0"/>
        <pt x="873" y="-416" on="0"/>
        <pt x="797" y="-435" on="0"/>
        <pt x="754" y="-435" on="1"/>
        <pt x="703" y="-435" on="0"/>
        <pt x="629" y="-405" on="0"/>
        <pt x="583" y="-359" on="0"/>
        <pt x="561" y="-305" on="0"/>
        <pt x="561" y="-281" on="1"/>
        <pt x="561" y="-229" on="0"/>
        <pt x="616" y="-142" on="0"/>
        <pt x="693" y="-71" on="0"/>
        <pt x="777" y="-18" on="0"/>
        <pt x="806" y="0" on="1"/>
        <pt x="110" y="0" on="1"/>
      </contour>
    </TTGlyph>
    <TTGlyph name="Eth" xMin="42" yMin="-19" xMax="1300" yMax="1546">
      <contour>
        <pt x="201" y="722" on="1"/>
        <pt x="42" y="722" on="1"/>
        <pt x="58" y="852" on="1"/>
        <pt x="217" y="852" on="1"/>
        <pt x="303" y="1530" on="1"/>
        <pt x="411" y="1530" on="1"/>
        <pt x="445" y="1530" on="0"/>
        <pt x="524" y="1535" on="0"/>
        <pt x="606" y="1541" on="0"/>
        <pt x="686" y="1546" on="0"/>
        <pt x="721" y="1546" on="1"/>
        <pt x="874" y="1546" on="0"/>
        <pt x="1090" y="1455" on="0"/>
        <pt x="1229" y="1291" on="0"/>
        <pt x="1296" y="1061" on="0"/>
        <pt x="1298" y="922" on="1"/>
        <pt x="1300" y="790" on="0"/>
        <pt x="1253" y="546" on="0"/>
        <pt x="1159" y="336" on="0"/>
        <pt x="1021" y="164" on="0"/>
        <pt x="847" y="44" on="0"/>
        <pt x="639" y="-19" on="0"/>
        <pt x="522" y="-16" on="1"/>
        <pt x="511" y="-16" on="0"/>
        <pt x="482" y="-14" on="0"/>
        <pt x="451" y="-12" on="0"/>
        <pt x="421" y="-10" on="0"/>
        <pt x="409" y="-9" on="1"/>
        <pt x="394" y="-8" on="0"/>
        <pt x="351" y="-5" on="0"/>
        <pt x="303" y="-2" on="0"/>
        <pt x="254" y="0" on="0"/>
        <pt x="233" y="0" on="1"/>
        <pt x="110" y="0" on="1"/>
      </contour>
      <contour>
        <pt x="328" y="163" on="1"/>
        <pt x="374" y="148" on="0"/>
        <pt x="501" y="132" on="0"/>
        <pt x="564" y="134" on="1"/>
        <pt x="657" y="137" on="0"/>
        <pt x="809" y="204" on="0"/>
        <pt x="928" y="316" on="0"/>
        <pt x="1014" y="464" on="0"/>
        <pt x="1069" y="634" on="0"/>
        <pt x="1094" y="816" on="0"/>
        <pt x="1093" y="906" on="1"/>
        <pt x="1091" y="1044" on="0"/>
        <pt x="1041" y="1233" on="0"/>
        <pt x="937" y="1349" on="0"/>
        <pt x="776" y="1400" on="0"/>
        <pt x="662" y="1400" on="1"/>
        <pt x="642" y="1400" on="0"/>
        <pt x="592" y="1397" on="0"/>
        <pt x="542" y="1392" on="0"/>
        <pt x="497" y="1385" on="0"/>
        <pt x="482" y="1381" on="1"/>
        <pt x="415" y="852" on="1"/>
        <pt x="797" y="852" on="1"/>
        <pt x="781" y="722" on="1"/>
        <pt x="399" y="722" on="1"/>
      </contour>
    </TTGlyph>
    <TTGlyph name="Euro" xMin="25" yMin="-16" xMax="1244" yMax="1546">
      <contour>
        <pt x="45" y="695" on="1"/>
        <pt x="224" y="695" on="1"/>
        <pt x="226" y="747" on="0"/>
        <pt x="237" y="846" on="0"/>
        <pt x="246" y="894" on="1"/>
        <pt x="70" y="894" on="1"/>
        <pt x="90" y="1034" on="1"/>
        <pt x="283" y="1034" on="1"/>
        <pt x="323" y="1153" on="0"/>
        <pt x="451" y="1343" on="0"/>
        <pt x="617" y="1475" on="0"/>
        <pt x="818" y="1546" on="0"/>
        <pt x="930" y="1546" on="1"/>
        <pt x="988" y="1546" on="0"/>
        <pt x="1081" y="1536" on="0"/>
        <pt x="1156" y="1520" on="0"/>
        <pt x="1217" y="1501" on="0"/>
        <pt x="1244" y="1492" on="1"/>
        <pt x="1180" y="1333" on="1"/>
        <pt x="1170" y="1343" on="0"/>
        <pt x="1120" y="1366" on="0"/>
        <pt x="1043" y="1386" on="0"/>
        <pt x="939" y="1398" on="0"/>
        <pt x="876" y="1398" on="1"/>
        <pt x="730" y="1398" on="0"/>
        <pt x="534" y="1206" on="0"/>
        <pt x="485" y="1034" on="1"/>
        <pt x="1027" y="1034" on="1"/>
        <pt x="1008" y="894" on="1"/>
        <pt x="455" y="894" on="1"/>
        <pt x="447" y="847" on="0"/>
        <pt x="438" y="749" on="0"/>
        <pt x="436" y="695" on="1"/>
        <pt x="982" y="695" on="1"/>
        <pt x="963" y="554" on="1"/>
        <pt x="436" y="554" on="1"/>
        <pt x="440" y="458" on="0"/>
        <pt x="476" y="302" on="0"/>
        <pt x="545" y="191" on="0"/>
        <pt x="650" y="131" on="0"/>
        <pt x="722" y="131" on="1"/>
        <pt x="789" y="131" on="0"/>
        <pt x="895" y="150" on="0"/>
        <pt x="981" y="182" on="0"/>
        <pt x="1053" y="224" on="0"/>
        <pt x="1086" y="247" on="1"/>
        <pt x="1142" y="111" on="1"/>
        <pt x="1115" y="81" on="0"/>
        <pt x="1026" y="34" on="0"/>
        <pt x="910" y="1" on="0"/>
        <pt x="770" y="-16" on="0"/>
        <pt x="693" y="-16" on="1"/>
        <pt x="616" y="-16" on="0"/>
        <pt x="491" y="29" on="0"/>
        <pt x="391" y="107" on="0"/>
        <pt x="316" y="215" on="0"/>
        <pt x="264" y="342" on="0"/>
        <pt x="233" y="482" on="0"/>
        <pt x="227" y="554" on="1"/>
        <pt x="25" y="554" on="1"/>
      </contour>
    </TTGlyph>
    <TTGlyph name="F" xMin="110" yMin="0" xMax="1093" yMax="1530">
      <contour>
        <pt x="303" y="1530" on="1"/>
        <pt x="1093" y="1530" on="1"/>
        <pt x="1079" y="1373" on="1"/>
        <pt x="482" y="1381" on="1"/>
        <pt x="416" y="854" on="1"/>
        <pt x="886" y="862" on="1"/>
        <pt x="874" y="694" on="1"/>
        <pt x="398" y="710" on="1"/>
        <pt x="308" y="0" on="1"/>
        <pt x="110" y="0" on="1"/>
      </contour>
    </TTGlyph>
    <TTGlyph name="G" xMin="107" yMin="-16" xMax="1244" yMax="1546">
      <contour>
        <pt x="608" y="-16" on="1"/>
        <pt x="519" y="-16" on="0"/>
        <pt x="377" y="36" on="0"/>
        <pt x="267" y="127" on="0"/>
        <pt x="188" y="251" on="0"/>
        <pt x="136" y="394" on="0"/>
        <pt x="110" y="549" on="0"/>
        <pt x="109" y="627" on="1"/>
        <pt x="107" y="764" on="0"/>
        <pt x="156" y="1007" on="0"/>
        <pt x="249" y="1211" on="0"/>
        <pt x="384" y="1373" on="0"/>
        <pt x="549" y="1486" on="0"/>
        <pt x="740" y="1546" on="0"/>
        <pt x="845" y="1546" on="1"/>
        <pt x="914" y="1546" on="0"/>
        <pt x="1026" y="1534" on="0"/>
        <pt x="1115" y="1517" on="0"/>
        <pt x="1182" y="1498" on="0"/>
        <pt x="1206" y="1490" on="1"/>
        <pt x="1244" y="1479" on="1"/>
        <pt x="1182" y="1300" on="1"/>
        <pt x="1164" y="1313" on="0"/>
        <pt x="1103" y="1344" on="0"/>
        <pt x="1018" y="1369" on="0"/>
        <pt x="908" y="1386" on="0"/>
        <pt x="842" y="1386" on="1"/>
        <pt x="744" y="1386" on="0"/>
        <pt x="587" y="1319" on="0"/>
        <pt x="468" y="1206" on="0"/>
        <pt x="384" y="1057" on="0"/>
        <pt x="332" y="893" on="0"/>
        <pt x="309" y="724" on="0"/>
        <pt x="310" y="648" on="1"/>
        <pt x="311" y="586" on="0"/>
        <pt x="327" y="463" on="0"/>
        <pt x="359" y="350" on="0"/>
        <pt x="410" y="252" on="0"/>
        <pt x="484" y="180" on="0"/>
        <pt x="581" y="139" on="0"/>
        <pt x="644" y="139" on="1"/>
        <pt x="677" y="139" on="0"/>
        <pt x="756" y="148" on="0"/>
        <pt x="840" y="166" on="0"/>
        <pt x="927" y="194" on="0"/>
        <pt x="968" y="212" on="1"/>
        <pt x="1014" y="570" on="1"/>
        <pt x="782" y="570" on="1"/>
        <pt x="802" y="729" on="1"/>
        <pt x="1229" y="729" on="1"/>
        <pt x="1147" y="94" on="1"/>
        <pt x="1118" y="91" on="0"/>
        <pt x="1051" y="73" on="0"/>
        <pt x="1010" y="61" on="1"/>
        <pt x="972" y="50" on="0"/>
        <pt x="882" y="23" on="0"/>
        <pt x="780" y="0" on="0"/>
        <pt x="668" y="-16" on="0"/>
      </contour>
    </TTGlyph>
    <TTGlyph name="Gbreve" xMin="107" yMin="-16" xMax="1244" yMax="1980">
      <component glyphName="breve.cap" x="500" y="0" flags="0x4"/>
      <component glyphName="G" x="0" y="0" flags="0x4"/>
    </TTGlyph>
    <TTGlyph name="Gcaron" xMin="107" yMin="-16" xMax="1244" yMax="2013">
      <component glyphName="G" x="0" y="0" flags="0x204"/>
      <component glyphName="caron.cap" x="455" y="0" flags="0x4"/>
    </TTGlyph>
    <TTGlyph name="Gcircumflex" xMin="107" yMin="-16" xMax="1244" yMax="2006">
      <component glyphName="G" x="0" y="0" flags="0x204"/>
      <component glyphName="circumflex.cap" x="456" y="0" flags="0x4"/>
    </TTGlyph>
    <TTGlyph name="Gcommaaccent" xMin="107" yMin="-560" xMax="1244" yMax="1546">
      <component glyphName="commaaccent" x="490" y="0" flags="0x4"/>
      <component glyphName="G" x="0" y="0" flags="0x4"/>
    </TTGlyph>
    <TTGlyph name="Gdotaccent" xMin="107" yMin="-16" xMax="1244" yMax="1959">
      <component glyphName="dotaccent.cap" x="671" y="0" flags="0x4"/>
      <component glyphName="G" x="0" y="0" flags="0x4"/>
    </TTGlyph>
    <TTGlyph name="Gtilde" xMin="107" yMin="-16" xMax="1257" yMax="1970">
      <component glyphName="G" x="0" y="0" flags="0x204"/>
      <component glyphName="tilde.cap" x="465" y="0" flags="0x4"/>
    </TTGlyph>
    <TTGlyph name="H" xMin="110" yMin="0" xMax="1352" yMax="1530">
      <contour>
        <pt x="303" y="1530" on="1"/>
        <pt x="501" y="1530" on="1"/>
        <pt x="414" y="844" on="1"/>
        <pt x="1067" y="844" on="1"/>
        <pt x="1154" y="1530" on="1"/>
        <pt x="1352" y="1530" on="1"/>
        <pt x="1159" y="0" on="1"/>
        <pt x="961" y="0" on="1"/>
        <pt x="1048" y="694" on="1"/>
        <pt x="395" y="694" on="1"/>
        <pt x="308" y="0" on="1"/>
        <pt x="110" y="0" on="1"/>
      </contour>
    </TTGlyph>
    <TTGlyph name="Hbar" xMin="52" yMin="0" xMax="1515" yMax="1530">
      <contour>
        <pt x="236" y="998" on="1"/>
        <pt x="52" y="998" on="1"/>
        <pt x="66" y="1148" on="1"/>
        <pt x="255" y="1148" on="1"/>
        <pt x="303" y="1530" on="1"/>
        <pt x="501" y="1530" on="1"/>
        <pt x="453" y="1148" on="1"/>
        <pt x="1106" y="1148" on="1"/>
        <pt x="1154" y="1530" on="1"/>
        <pt x="1352" y="1530" on="1"/>
        <pt x="1304" y="1148" on="1"/>
        <pt x="1515" y="1148" on="1"/>
        <pt x="1501" y="998" on="1"/>
        <pt x="1285" y="998" on="1"/>
        <pt x="1159" y="0" on="1"/>
        <pt x="961" y="0" on="1"/>
        <pt x="1035" y="592" on="1"/>
        <pt x="382" y="592" on="1"/>
        <pt x="308" y="0" on="1"/>
        <pt x="110" y="0" on="1"/>
      </contour>
      <contour>
        <pt x="1054" y="742" on="1"/>
        <pt x="1087" y="998" on="1"/>
        <pt x="434" y="998" on="1"/>
        <pt x="401" y="742" on="1"/>
      </contour>
    </TTGlyph>
    <TTGlyph name="Hcircumflex" xMin="110" yMin="0" xMax="1352" yMax="2006">
      <component glyphName="H" x="0" y="0" flags="0x204"/>
      <component glyphName="circumflex.cap" x="452" y="0" flags="0x4"/>
    </TTGlyph>
    <TTGlyph name="I" xMin="127" yMin="0" xMax="518" yMax="1530">
      <contour>
        <pt x="320" y="1530" on="1"/>
        <pt x="518" y="1530" on="1"/>
        <pt x="325" y="0" on="1"/>
        <pt x="127" y="0" on="1"/>
      </contour>
    </TTGlyph>
    <TTGlyph name="I.uc" xMin="127" yMin="0" xMax="617" yMax="1959">
      <component glyphName="I" x="0" y="0" flags="0x204"/>
      <component glyphName="dotaccent.cap" x="293" y="0" flags="0x4"/>
    </TTGlyph>
    <TTGlyph name="IJ" xMin="127" yMin="-315" xMax="1097" yMax="1530">
      <component glyphName="I" x="0" y="0" flags="0x4"/>
      <component glyphName="J" x="580" y="0" flags="0x4"/>
    </TTGlyph>
    <TTGlyph name="IJ_acutecomb" xMin="127" yMin="-315" xMax="1367" yMax="2000">
      <contour>
        <pt x="388" y="1658" on="1"/>
        <pt x="664" y="2000" on="1"/>
        <pt x="788" y="1872" on="1"/>
        <pt x="765" y="1830" on="0"/>
        <pt x="684" y="1743" on="0"/>
        <pt x="591" y="1666" on="0"/>
        <pt x="497" y="1606" on="0"/>
        <pt x="461" y="1593" on="1"/>
      </contour>
      <contour>
        <pt x="410" y="-227" on="1"/>
        <pt x="469" y="-208" on="0"/>
        <pt x="570" y="-142" on="0"/>
        <pt x="648" y="-58" on="0"/>
        <pt x="700" y="37" on="0"/>
        <pt x="711" y="86" on="1"/>
        <pt x="732" y="183" on="0"/>
        <pt x="770" y="413" on="0"/>
        <pt x="803" y="661" on="0"/>
        <pt x="833" y="921" on="0"/>
        <pt x="860" y="1177" on="0"/>
        <pt x="886" y="1421" on="0"/>
        <pt x="899" y="1530" on="1"/>
        <pt x="1097" y="1530" on="1"/>
        <pt x="1079" y="1362" on="0"/>
        <pt x="1041" y="1029" on="0"/>
        <pt x="1003" y="722" on="0"/>
        <pt x="967" y="451" on="0"/>
        <pt x="936" y="240" on="0"/>
        <pt x="911" y="99" on="0"/>
        <pt x="903" y="75" on="1"/>
        <pt x="871" y="-27" on="0"/>
        <pt x="776" y="-165" on="0"/>
        <pt x="658" y="-254" on="0"/>
        <pt x="520" y="-302" on="0"/>
        <pt x="445" y="-315" on="1"/>
      </contour>
      <contour>
        <pt x="320" y="1530" on="1"/>
        <pt x="518" y="1530" on="1"/>
        <pt x="325" y="0" on="1"/>
        <pt x="127" y="0" on="1"/>
      </contour>
      <contour>
        <pt x="967" y="1656" on="1"/>
        <pt x="1243" y="1998" on="1"/>
        <pt x="1367" y="1870" on="1"/>
        <pt x="1344" y="1828" on="0"/>
        <pt x="1263" y="1741" on="0"/>
        <pt x="1170" y="1664" on="0"/>
        <pt x="1076" y="1604" on="0"/>
        <pt x="1040" y="1591" on="1"/>
      </contour>
    </TTGlyph>
    <TTGlyph name="Iacute" xMin="127" yMin="0" xMax="788" yMax="2000">
      <component glyphName="I" x="0" y="0" flags="0x204"/>
      <component glyphName="acute.cap" x="310" y="0" flags="0x4"/>
    </TTGlyph>
    <TTGlyph name="Ibreve" xMin="127" yMin="0" xMax="782" yMax="1980">
      <component glyphName="I" x="0" y="0" flags="0x204"/>
      <component glyphName="breve.cap" x="95" y="0" flags="0x4"/>
    </TTGlyph>
    <TTGlyph name="Icircumflex" xMin="100" yMin="0" xMax="795" yMax="2006">
      <component glyphName="I" x="0" y="0" flags="0x204"/>
      <component glyphName="circumflex.cap" x="51" y="0" flags="0x4"/>
    </TTGlyph>
    <TTGlyph name="Idieresis" xMin="116" yMin="0" xMax="802" yMax="1959">
      <component glyphName="I" x="0" y="0" flags="0x204"/>
      <component glyphName="dieresis.cap" x="59" y="0" flags="0x4"/>
    </TTGlyph>
    <TTGlyph name="Idotaccent" xMin="127" yMin="0" xMax="590" yMax="1959">
      <component glyphName="I" x="0" y="0" flags="0x204"/>
      <component glyphName="dotaccent.cap" x="266" y="0" flags="0x4"/>
    </TTGlyph>
    <TTGlyph name="Igrave" xMin="127" yMin="0" xMax="530" yMax="2000">
      <component glyphName="I" x="0" y="0" flags="0x204"/>
      <component glyphName="grave.cap" x="72" y="0" flags="0x4"/>
    </TTGlyph>
    <TTGlyph name="Imacron" xMin="127" yMin="0" xMax="675" yMax="1878">
      <component glyphName="I" x="0" y="0" flags="0x204"/>
      <component glyphName="macron.cap" x="125" y="0" flags="0x4"/>
    </TTGlyph>
    <TTGlyph name="Iogonek" xMin="-118" yMin="-435" xMax="518" yMax="1530">
      <contour>
        <pt x="320" y="1530" on="1"/>
        <pt x="518" y="1530" on="1"/>
        <pt x="325" y="0" on="1"/>
        <pt x="283" y="0" on="1"/>
        <pt x="255" y="-20" on="0"/>
        <pt x="183" y="-74" on="0"/>
        <pt x="120" y="-132" on="0"/>
        <pt x="76" y="-193" on="0"/>
        <pt x="76" y="-221" on="1"/>
        <pt x="76" y="-242" on="0"/>
        <pt x="89" y="-267" on="0"/>
        <pt x="109" y="-282" on="0"/>
        <pt x="130" y="-287" on="0"/>
        <pt x="139" y="-287" on="1"/>
        <pt x="166" y="-287" on="0"/>
        <pt x="227" y="-271" on="0"/>
        <pt x="269" y="-242" on="1"/>
        <pt x="320" y="-341" on="1"/>
        <pt x="304" y="-355" on="0"/>
        <pt x="256" y="-387" on="0"/>
        <pt x="194" y="-416" on="0"/>
        <pt x="118" y="-435" on="0"/>
        <pt x="75" y="-435" on="1"/>
        <pt x="24" y="-435" on="0"/>
        <pt x="-50" y="-405" on="0"/>
        <pt x="-96" y="-359" on="0"/>
        <pt x="-118" y="-305" on="0"/>
        <pt x="-118" y="-281" on="1"/>
        <pt x="-118" y="-229" on="0"/>
        <pt x="-63" y="-142" on="0"/>
        <pt x="14" y="-71" on="0"/>
        <pt x="98" y="-18" on="0"/>
        <pt x="127" y="0" on="1"/>
      </contour>
    </TTGlyph>
    <TTGlyph name="Itilde" xMin="69" yMin="0" xMax="852" yMax="1970">
      <component glyphName="I" x="0" y="0" flags="0x204"/>
      <component glyphName="tilde.cap" x="60" y="0" flags="0x4"/>
    </TTGlyph>
    <TTGlyph name="J" xMin="-170" yMin="-315" xMax="517" yMax="1530">
      <contour>
        <pt x="131" y="86" on="1"/>
        <pt x="152" y="183" on="0"/>
        <pt x="190" y="413" on="0"/>
        <pt x="223" y="661" on="0"/>
        <pt x="253" y="921" on="0"/>
        <pt x="280" y="1177" on="0"/>
        <pt x="306" y="1421" on="0"/>
        <pt x="319" y="1530" on="1"/>
        <pt x="517" y="1530" on="1"/>
        <pt x="499" y="1362" on="0"/>
        <pt x="461" y="1029" on="0"/>
        <pt x="423" y="722" on="0"/>
        <pt x="387" y="451" on="0"/>
        <pt x="356" y="240" on="0"/>
        <pt x="331" y="99" on="0"/>
        <pt x="323" y="75" on="1"/>
        <pt x="291" y="-27" on="0"/>
        <pt x="196" y="-165" on="0"/>
        <pt x="78" y="-254" on="0"/>
        <pt x="-60" y="-302" on="0"/>
        <pt x="-135" y="-315" on="1"/>
        <pt x="-170" y="-227" on="1"/>
        <pt x="-111" y="-208" on="0"/>
        <pt x="-10" y="-142" on="0"/>
        <pt x="68" y="-58" on="0"/>
        <pt x="120" y="37" on="0"/>
      </contour>
    </TTGlyph>
    <TTGlyph name="Jcircumflex" xMin="-170" yMin="-315" xMax="789" yMax="2006">
      <component glyphName="J" x="0" y="0" flags="0x204"/>
      <component glyphName="circumflex.cap" x="45" y="0" flags="0x4"/>
    </TTGlyph>
    <TTGlyph name="K" xMin="110" yMin="0" xMax="1307" yMax="1530">
      <contour>
        <pt x="303" y="1530" on="1"/>
        <pt x="501" y="1530" on="1"/>
        <pt x="403" y="758" on="1"/>
        <pt x="1075" y="1530" on="1"/>
        <pt x="1307" y="1530" on="1"/>
        <pt x="692" y="848" on="1"/>
        <pt x="771" y="720" on="0"/>
        <pt x="914" y="463" on="0"/>
        <pt x="983" y="340" on="1"/>
        <pt x="1034" y="249" on="0"/>
        <pt x="1135" y="78" on="0"/>
        <pt x="1187" y="0" on="1"/>
        <pt x="949" y="0" on="1"/>
        <pt x="942" y="10" on="0"/>
        <pt x="907" y="73" on="0"/>
        <pt x="857" y="165" on="0"/>
        <pt x="797" y="278" on="0"/>
        <pt x="765" y="339" on="1"/>
        <pt x="738" y="390" on="0"/>
        <pt x="682" y="493" on="0"/>
        <pt x="630" y="589" on="0"/>
        <pt x="584" y="674" on="0"/>
        <pt x="565" y="707" on="1"/>
        <pt x="369" y="489" on="1"/>
        <pt x="308" y="0" on="1"/>
        <pt x="110" y="0" on="1"/>
      </contour>
    </TTGlyph>
    <TTGlyph name="Kcommaaccent" xMin="110" yMin="-558" xMax="1307" yMax="1530">
      <component glyphName="commaaccent" x="448" y="2" flags="0x4"/>
      <component glyphName="K" x="0" y="0" flags="0x4"/>
    </TTGlyph>
    <TTGlyph name="L" xMin="110" yMin="0" xMax="899" yMax="1530">
      <contour>
        <pt x="303" y="1530" on="1"/>
        <pt x="501" y="1530" on="1"/>
        <pt x="329" y="165" on="1"/>
        <pt x="899" y="170" on="1"/>
        <pt x="877" y="0" on="1"/>
        <pt x="110" y="0" on="1"/>
      </contour>
    </TTGlyph>
    <TTGlyph name="Lacute" xMin="110" yMin="0" xMax="899" yMax="2002">
      <component glyphName="acute.cap" x="307" y="2" flags="0x4"/>
      <component glyphName="L" x="0" y="0" flags="0x4"/>
    </TTGlyph>
    <TTGlyph name="Lcaron" xMin="110" yMin="0" xMax="1005" yMax="1650">
      <component glyphName="L" x="0" y="0" flags="0x204"/>
      <component glyphName="caronvertical" x="584" y="-30" flags="0x4"/>
    </TTGlyph>
    <TTGlyph name="Lcommaaccent" xMin="110" yMin="-558" xMax="899" yMax="1530">
      <component glyphName="commaaccent" x="347" y="2" flags="0x4"/>
      <component glyphName="L" x="0" y="0" flags="0x4"/>
    </TTGlyph>
    <TTGlyph name="Ldot" xMin="110" yMin="0" xMax="1039" yMax="1530">
      <component glyphName="L" x="0" y="0" flags="0x4"/>
      <component glyphName="period" x="674" y="773" flags="0x4"/>
    </TTGlyph>
    <TTGlyph name="Lslash" xMin="-51" yMin="0" xMax="899" yMax="1530">
      <contour>
        <pt x="181" y="565" on="1"/>
        <pt x="-15" y="483" on="1"/>
        <pt x="-51" y="601" on="1"/>
        <pt x="199" y="709" on="1"/>
        <pt x="303" y="1530" on="1"/>
        <pt x="501" y="1530" on="1"/>
        <pt x="409" y="799" on="1"/>
        <pt x="774" y="957" on="1"/>
        <pt x="809" y="830" on="1"/>
        <pt x="390" y="653" on="1"/>
        <pt x="329" y="165" on="1"/>
        <pt x="899" y="170" on="1"/>
        <pt x="877" y="0" on="1"/>
        <pt x="110" y="0" on="1"/>
      </contour>
    </TTGlyph>
    <TTGlyph name="M" xMin="48" yMin="-18" xMax="1622" yMax="1530">
      <contour>
        <pt x="428" y="1530" on="1"/>
        <pt x="682" y="1530" on="1"/>
        <pt x="843" y="470" on="1"/>
        <pt x="858" y="301" on="1"/>
        <pt x="908" y="470" on="1"/>
        <pt x="1335" y="1530" on="1"/>
        <pt x="1622" y="1530" on="1"/>
        <pt x="1586" y="0" on="1"/>
        <pt x="1385" y="0" on="1"/>
        <pt x="1435" y="1020" on="1"/>
        <pt x="1459" y="1403" on="1"/>
        <pt x="1323" y="1068" on="1"/>
        <pt x="886" y="-3" on="1"/>
        <pt x="746" y="-18" on="1"/>
        <pt x="585" y="1043" on="1"/>
        <pt x="549" y="1402" on="1"/>
        <pt x="486" y="1033" on="1"/>
        <pt x="248" y="0" on="1"/>
        <pt x="48" y="0" on="1"/>
      </contour>
    </TTGlyph>
    <TTGlyph name="N" xMin="110" yMin="0" xMax="1342" yMax="1530">
      <contour>
        <pt x="303" y="1530" on="1"/>
        <pt x="509" y="1530" on="1"/>
        <pt x="949" y="468" on="1"/>
        <pt x="1012" y="261" on="1"/>
        <pt x="1031" y="510" on="1"/>
        <pt x="1154" y="1530" on="1"/>
        <pt x="1342" y="1530" on="1"/>
        <pt x="1149" y="0" on="1"/>
        <pt x="956" y="0" on="1"/>
        <pt x="501" y="1075" on="1"/>
        <pt x="448" y="1307" on="1"/>
        <pt x="421" y="1009" on="1"/>
        <pt x="295" y="0" on="1"/>
        <pt x="110" y="0" on="1"/>
      </contour>
    </TTGlyph>
    <TTGlyph name="Nacute" xMin="110" yMin="0" xMax="1342" yMax="2000">
      <component glyphName="acute.cap" x="732" y="0" flags="0x4"/>
      <component glyphName="N" x="0" y="0" flags="0x4"/>
    </TTGlyph>
    <TTGlyph name="Ncaron" xMin="110" yMin="0" xMax="1342" yMax="2013">
      <component glyphName="caron.cap" x="472" y="0" flags="0x4"/>
      <component glyphName="N" x="0" y="0" flags="0x4"/>
    </TTGlyph>
    <TTGlyph name="Ncommaaccent" xMin="110" yMin="-560" xMax="1342" yMax="1530">
      <component glyphName="commaaccent" x="471" y="0" flags="0x4"/>
      <component glyphName="N" x="0" y="0" flags="0x4"/>
    </TTGlyph>
    <TTGlyph name="Ntilde" xMin="110" yMin="0" xMax="1342" yMax="1970">
      <component glyphName="tilde.cap" x="482" y="0" flags="0x4"/>
      <component glyphName="N" x="0" y="0" flags="0x4"/>
    </TTGlyph>
    <TTGlyph name="O" xMin="105" yMin="-16" xMax="1307" yMax="1546">
      <contour>
        <pt x="599" y="-16" on="1"/>
        <pt x="477" y="-16" on="0"/>
        <pt x="295" y="83" on="0"/>
        <pt x="173" y="254" on="0"/>
        <pt x="110" y="481" on="0"/>
        <pt x="108" y="610" on="1"/>
        <pt x="105" y="743" on="0"/>
        <pt x="151" y="984" on="0"/>
        <pt x="239" y="1192" on="0"/>
        <pt x="366" y="1361" on="0"/>
        <pt x="525" y="1481" on="0"/>
        <pt x="711" y="1546" on="0"/>
        <pt x="814" y="1546" on="1"/>
        <pt x="936" y="1546" on="0"/>
        <pt x="1118" y="1447" on="0"/>
        <pt x="1240" y="1277" on="0"/>
        <pt x="1303" y="1050" on="0"/>
        <pt x="1305" y="921" on="1"/>
        <pt x="1307" y="791" on="0"/>
        <pt x="1263" y="551" on="0"/>
        <pt x="1177" y="342" on="0"/>
        <pt x="1052" y="172" on="0"/>
        <pt x="893" y="50" on="0"/>
        <pt x="705" y="-16" on="0"/>
      </contour>
      <contour>
        <pt x="631" y="136" on="1"/>
        <pt x="702" y="136" on="0"/>
        <pt x="828" y="191" on="0"/>
        <pt x="933" y="291" on="0"/>
        <pt x="1016" y="429" on="0"/>
        <pt x="1072" y="595" on="0"/>
        <pt x="1101" y="783" on="0"/>
        <pt x="1099" y="883" on="1"/>
        <pt x="1097" y="1015" on="0"/>
        <pt x="1056" y="1207" on="0"/>
        <pt x="978" y="1330" on="0"/>
        <pt x="861" y="1389" on="0"/>
        <pt x="782" y="1389" on="1"/>
        <pt x="711" y="1389" on="0"/>
        <pt x="586" y="1332" on="0"/>
        <pt x="481" y="1231" on="0"/>
        <pt x="398" y="1091" on="0"/>
        <pt x="341" y="927" on="0"/>
        <pt x="312" y="743" on="0"/>
        <pt x="314" y="648" on="1"/>
        <pt x="319" y="383" on="0"/>
        <pt x="473" y="136" on="0"/>
      </contour>
    </TTGlyph>
    <TTGlyph name="OE" xMin="105" yMin="-16" xMax="2035" yMax="1546">
      <contour>
        <pt x="599" y="-16" on="1"/>
        <pt x="477" y="-16" on="0"/>
        <pt x="295" y="83" on="0"/>
        <pt x="173" y="254" on="0"/>
        <pt x="110" y="481" on="0"/>
        <pt x="108" y="610" on="1"/>
        <pt x="105" y="743" on="0"/>
        <pt x="151" y="984" on="0"/>
        <pt x="239" y="1192" on="0"/>
        <pt x="366" y="1361" on="0"/>
        <pt x="525" y="1481" on="0"/>
        <pt x="711" y="1546" on="0"/>
        <pt x="814" y="1546" on="1"/>
        <pt x="895" y="1546" on="0"/>
        <pt x="1026" y="1502" on="0"/>
        <pt x="1130" y="1421" on="0"/>
        <pt x="1206" y="1308" on="0"/>
        <pt x="1231" y="1239" on="1"/>
        <pt x="1268" y="1530" on="1"/>
        <pt x="2035" y="1530" on="1"/>
        <pt x="2028" y="1373" on="1"/>
        <pt x="1447" y="1381" on="1"/>
        <pt x="1380" y="854" on="1"/>
        <pt x="1818" y="861" on="1"/>
        <pt x="1806" y="695" on="1"/>
        <pt x="1363" y="710" on="1"/>
        <pt x="1291" y="149" on="1"/>
        <pt x="1991" y="165" on="1"/>
        <pt x="1977" y="0" on="1"/>
        <pt x="1075" y="0" on="1"/>
        <pt x="1108" y="262" on="1"/>
        <pt x="1063" y="197" on="0"/>
        <pt x="953" y="94" on="0"/>
        <pt x="825" y="22" on="0"/>
        <pt x="679" y="-16" on="0"/>
      </contour>
      <contour>
        <pt x="631" y="136" on="1"/>
        <pt x="702" y="136" on="0"/>
        <pt x="828" y="191" on="0"/>
        <pt x="933" y="291" on="0"/>
        <pt x="1016" y="429" on="0"/>
        <pt x="1072" y="595" on="0"/>
        <pt x="1101" y="783" on="0"/>
        <pt x="1099" y="883" on="1"/>
        <pt x="1097" y="1015" on="0"/>
        <pt x="1056" y="1207" on="0"/>
        <pt x="978" y="1330" on="0"/>
        <pt x="861" y="1389" on="0"/>
        <pt x="782" y="1389" on="1"/>
        <pt x="711" y="1389" on="0"/>
        <pt x="586" y="1332" on="0"/>
        <pt x="481" y="1231" on="0"/>
        <pt x="398" y="1091" on="0"/>
        <pt x="341" y="927" on="0"/>
        <pt x="312" y="743" on="0"/>
        <pt x="314" y="648" on="1"/>
        <pt x="319" y="383" on="0"/>
        <pt x="473" y="136" on="0"/>
      </contour>
    </TTGlyph>
    <TTGlyph name="Oacute" xMin="105" yMin="-16" xMax="1307" yMax="2000">
      <component glyphName="acute.cap" x="704" y="0" flags="0x4"/>
      <component glyphName="O" x="0" y="0" flags="0x4"/>
    </TTGlyph>
    <TTGlyph name="Obreve" xMin="105" yMin="-16" xMax="1307" yMax="1980">
      <component glyphName="breve.cap" x="489" y="0" flags="0x4"/>
      <component glyphName="O" x="0" y="0" flags="0x4"/>
    </TTGlyph>
    <TTGlyph name="Ocircumflex" xMin="105" yMin="-16" xMax="1307" yMax="2006">
      <component glyphName="O" x="0" y="0" flags="0x204"/>
      <component glyphName="circumflex.cap" x="445" y="0" flags="0x4"/>
    </TTGlyph>
    <TTGlyph name="Odieresis" xMin="105" yMin="-16" xMax="1307" yMax="1959">
      <component glyphName="dieresis.cap" x="453" y="0" flags="0x4"/>
      <component glyphName="O" x="0" y="0" flags="0x4"/>
    </TTGlyph>
    <TTGlyph name="Ograve" xMin="105" yMin="-16" xMax="1307" yMax="2000">
      <component glyphName="grave.cap" x="466" y="0" flags="0x4"/>
      <component glyphName="O" x="0" y="0" flags="0x4"/>
    </TTGlyph>
    <TTGlyph name="Ohungarumlaut" xMin="105" yMin="-16" xMax="1411" yMax="2000">
      <component glyphName="O" x="0" y="0" flags="0x204"/>
      <component glyphName="hungarumlaut.cap" x="490" y="0" flags="0x4"/>
    </TTGlyph>
    <TTGlyph name="Omacron" xMin="105" yMin="-16" xMax="1307" yMax="1878">
      <component glyphName="macron.cap" x="519" y="0" flags="0x4"/>
      <component glyphName="O" x="0" y="0" flags="0x4"/>
    </TTGlyph>
    <TTGlyph name="Omega" xMin="58" yMin="0" xMax="1535" yMax="1546">
      <contour>
        <pt x="77" y="151" on="1"/>
        <pt x="446" y="151" on="1"/>
        <pt x="394" y="190" on="0"/>
        <pt x="290" y="318" on="0"/>
        <pt x="208" y="479" on="0"/>
        <pt x="156" y="664" on="0"/>
        <pt x="156" y="759" on="1"/>
        <pt x="156" y="964" on="0"/>
        <pt x="271" y="1261" on="0"/>
        <pt x="471" y="1454" on="0"/>
        <pt x="742" y="1546" on="0"/>
        <pt x="899" y="1546" on="1"/>
        <pt x="1032" y="1546" on="0"/>
        <pt x="1264" y="1453" on="0"/>
        <pt x="1436" y="1284" on="0"/>
        <pt x="1535" y="1049" on="0"/>
        <pt x="1535" y="907" on="1"/>
        <pt x="1535" y="815" on="0"/>
        <pt x="1479" y="604" on="0"/>
        <pt x="1379" y="401" on="0"/>
        <pt x="1239" y="222" on="0"/>
        <pt x="1155" y="161" on="1"/>
        <pt x="1526" y="161" on="1"/>
        <pt x="1513" y="0" on="1"/>
        <pt x="927" y="0" on="1"/>
        <pt x="907" y="139" on="1"/>
        <pt x="992" y="184" on="0"/>
        <pt x="1149" y="335" on="0"/>
        <pt x="1267" y="530" on="0"/>
        <pt x="1338" y="762" on="0"/>
        <pt x="1338" y="887" on="1"/>
        <pt x="1338" y="977" on="0"/>
        <pt x="1298" y="1122" on="0"/>
        <pt x="1231" y="1234" on="0"/>
        <pt x="1140" y="1314" on="0"/>
        <pt x="1039" y="1366" on="0"/>
        <pt x="931" y="1390" on="0"/>
        <pt x="880" y="1390" on="1"/>
        <pt x="768" y="1390" on="0"/>
        <pt x="574" y="1314" on="0"/>
        <pt x="432" y="1158" on="0"/>
        <pt x="350" y="918" on="0"/>
        <pt x="350" y="754" on="1"/>
        <pt x="350" y="642" on="0"/>
        <pt x="405" y="446" on="0"/>
        <pt x="493" y="287" on="0"/>
        <pt x="600" y="170" on="0"/>
        <pt x="653" y="139" on="1"/>
        <pt x="613" y="0" on="1"/>
        <pt x="58" y="0" on="1"/>
      </contour>
    </TTGlyph>
    <TTGlyph name="Oslash" xMin="57" yMin="-132" xMax="1313" yMax="1670">
      <contour>
        <pt x="229" y="175" on="1"/>
        <pt x="170" y="260" on="0"/>
        <pt x="110" y="483" on="0"/>
        <pt x="108" y="610" on="1"/>
        <pt x="105" y="743" on="0"/>
        <pt x="151" y="984" on="0"/>
        <pt x="239" y="1192" on="0"/>
        <pt x="366" y="1361" on="0"/>
        <pt x="525" y="1481" on="0"/>
        <pt x="711" y="1546" on="0"/>
        <pt x="814" y="1546" on="1"/>
        <pt x="895" y="1546" on="0"/>
        <pt x="1030" y="1501" on="0"/>
        <pt x="1084" y="1460" on="1"/>
        <pt x="1224" y="1670" on="1"/>
        <pt x="1313" y="1621" on="1"/>
        <pt x="1158" y="1388" on="1"/>
        <pt x="1230" y="1301" on="0"/>
        <pt x="1303" y="1061" on="0"/>
        <pt x="1305" y="921" on="1"/>
        <pt x="1307" y="791" on="0"/>
        <pt x="1263" y="551" on="0"/>
        <pt x="1177" y="342" on="0"/>
        <pt x="1052" y="172" on="0"/>
        <pt x="893" y="50" on="0"/>
        <pt x="705" y="-16" on="0"/>
        <pt x="599" y="-16" on="1"/>
        <pt x="505" y="-16" on="0"/>
        <pt x="355" y="42" on="0"/>
        <pt x="297" y="96" on="1"/>
        <pt x="146" y="-132" on="1"/>
        <pt x="57" y="-83" on="1"/>
      </contour>
      <contour>
        <pt x="978" y="1317" on="1"/>
        <pt x="906" y="1389" on="0"/>
        <pt x="782" y="1389" on="1"/>
        <pt x="711" y="1389" on="0"/>
        <pt x="586" y="1332" on="0"/>
        <pt x="481" y="1231" on="0"/>
        <pt x="398" y="1091" on="0"/>
        <pt x="341" y="927" on="0"/>
        <pt x="312" y="743" on="0"/>
        <pt x="314" y="648" on="1"/>
        <pt x="317" y="461" on="0"/>
        <pt x="356" y="346" on="1"/>
      </contour>
      <contour>
        <pt x="409" y="241" on="1"/>
        <pt x="484" y="136" on="0"/>
        <pt x="631" y="136" on="1"/>
        <pt x="702" y="136" on="0"/>
        <pt x="828" y="191" on="0"/>
        <pt x="933" y="291" on="0"/>
        <pt x="1016" y="429" on="0"/>
        <pt x="1072" y="595" on="0"/>
        <pt x="1101" y="783" on="0"/>
        <pt x="1099" y="883" on="1"/>
        <pt x="1097" y="995" on="0"/>
        <pt x="1068" y="1164" on="0"/>
        <pt x="1040" y="1225" on="1"/>
      </contour>
    </TTGlyph>
    <TTGlyph name="Oslashacute" xMin="57" yMin="-132" xMax="1313" yMax="2000">
      <component glyphName="Oslash" x="0" y="0" flags="0x204"/>
      <component glyphName="acute.cap" x="671" y="0" flags="0x4"/>
    </TTGlyph>
    <TTGlyph name="Otilde" xMin="105" yMin="-16" xMax="1307" yMax="1970">
      <component glyphName="tilde.cap" x="454" y="0" flags="0x4"/>
      <component glyphName="O" x="0" y="0" flags="0x4"/>
    </TTGlyph>
    <TTGlyph name="P" xMin="110" yMin="0" xMax="1174" yMax="1546">
      <contour>
        <pt x="303" y="1530" on="1"/>
        <pt x="419" y="1530" on="1"/>
        <pt x="456" y="1530" on="0"/>
        <pt x="526" y="1535" on="0"/>
        <pt x="598" y="1541" on="0"/>
        <pt x="673" y="1546" on="0"/>
        <pt x="714" y="1546" on="1"/>
        <pt x="931" y="1546" on="0"/>
        <pt x="1168" y="1356" on="0"/>
        <pt x="1171" y="1157" on="1"/>
        <pt x="1174" y="1010" on="0"/>
        <pt x="1085" y="774" on="0"/>
        <pt x="921" y="609" on="0"/>
        <pt x="693" y="520" on="0"/>
        <pt x="557" y="520" on="1"/>
        <pt x="485" y="520" on="0"/>
        <pt x="397" y="526" on="0"/>
        <pt x="375" y="530" on="1"/>
        <pt x="308" y="0" on="1"/>
        <pt x="110" y="0" on="1"/>
      </contour>
      <contour>
        <pt x="395" y="690" on="1"/>
        <pt x="408" y="687" on="0"/>
        <pt x="449" y="682" on="0"/>
        <pt x="495" y="678" on="0"/>
        <pt x="543" y="676" on="0"/>
        <pt x="563" y="676" on="1"/>
        <pt x="669" y="677" on="0"/>
        <pt x="821" y="739" on="0"/>
        <pt x="920" y="857" on="0"/>
        <pt x="968" y="1029" on="0"/>
        <pt x="970" y="1139" on="1"/>
        <pt x="972" y="1266" on="0"/>
        <pt x="833" y="1398" on="0"/>
        <pt x="682" y="1398" on="1"/>
        <pt x="662" y="1398" on="0"/>
        <pt x="611" y="1395" on="0"/>
        <pt x="556" y="1389" on="0"/>
        <pt x="503" y="1381" on="0"/>
        <pt x="481" y="1377" on="1"/>
      </contour>
    </TTGlyph>
    <TTGlyph name="Q" xMin="105" yMin="-360" xMax="1308" yMax="1546">
      <contour>
        <pt x="577" y="-15" on="1"/>
        <pt x="461" y="-11" on="0"/>
        <pt x="287" y="91" on="0"/>
        <pt x="170" y="261" on="0"/>
        <pt x="110" y="484" on="0"/>
        <pt x="108" y="610" on="1"/>
        <pt x="105" y="743" on="0"/>
        <pt x="151" y="984" on="0"/>
        <pt x="239" y="1192" on="0"/>
        <pt x="366" y="1361" on="0"/>
        <pt x="525" y="1481" on="0"/>
        <pt x="711" y="1546" on="0"/>
        <pt x="814" y="1546" on="1"/>
        <pt x="936" y="1546" on="0"/>
        <pt x="1118" y="1447" on="0"/>
        <pt x="1240" y="1277" on="0"/>
        <pt x="1303" y="1050" on="0"/>
        <pt x="1305" y="921" on="1"/>
        <pt x="1308" y="745" on="0"/>
        <pt x="1226" y="431" on="0"/>
        <pt x="1072" y="186" on="0"/>
        <pt x="853" y="22" on="0"/>
        <pt x="719" y="-4" on="1"/>
        <pt x="722" y="-65" on="0"/>
        <pt x="778" y="-134" on="0"/>
        <pt x="865" y="-168" on="0"/>
        <pt x="971" y="-176" on="0"/>
        <pt x="1024" y="-176" on="1"/>
        <pt x="1040" y="-176" on="0"/>
        <pt x="1088" y="-173" on="0"/>
        <pt x="1142" y="-166" on="0"/>
        <pt x="1195" y="-156" on="0"/>
        <pt x="1217" y="-148" on="1"/>
        <pt x="1217" y="-302" on="1"/>
        <pt x="1199" y="-315" on="0"/>
        <pt x="1129" y="-336" on="0"/>
        <pt x="1043" y="-351" on="0"/>
        <pt x="950" y="-360" on="0"/>
        <pt x="908" y="-360" on="1"/>
        <pt x="836" y="-360" on="0"/>
        <pt x="707" y="-318" on="0"/>
        <pt x="613" y="-232" on="0"/>
        <pt x="566" y="-102" on="0"/>
      </contour>
      <contour>
        <pt x="631" y="136" on="1"/>
        <pt x="702" y="136" on="0"/>
        <pt x="828" y="191" on="0"/>
        <pt x="933" y="291" on="0"/>
        <pt x="1016" y="429" on="0"/>
        <pt x="1072" y="595" on="0"/>
        <pt x="1101" y="783" on="0"/>
        <pt x="1099" y="883" on="1"/>
        <pt x="1097" y="1015" on="0"/>
        <pt x="1056" y="1207" on="0"/>
        <pt x="978" y="1330" on="0"/>
        <pt x="861" y="1389" on="0"/>
        <pt x="782" y="1389" on="1"/>
        <pt x="711" y="1389" on="0"/>
        <pt x="586" y="1332" on="0"/>
        <pt x="481" y="1231" on="0"/>
        <pt x="398" y="1091" on="0"/>
        <pt x="341" y="927" on="0"/>
        <pt x="312" y="743" on="0"/>
        <pt x="314" y="648" on="1"/>
        <pt x="319" y="383" on="0"/>
        <pt x="473" y="136" on="0"/>
      </contour>
    </TTGlyph>
    <TTGlyph name="R" xMin="108" yMin="-1" xMax="1184" yMax="1546">
      <contour>
        <pt x="301" y="1530" on="1"/>
        <pt x="403" y="1530" on="1"/>
        <pt x="446" y="1530" on="0"/>
        <pt x="520" y="1535" on="0"/>
        <pt x="592" y="1541" on="0"/>
        <pt x="667" y="1546" on="0"/>
        <pt x="712" y="1546" on="1"/>
        <pt x="941" y="1546" on="0"/>
        <pt x="1178" y="1362" on="0"/>
        <pt x="1182" y="1192" on="1"/>
        <pt x="1184" y="1100" on="0"/>
        <pt x="1139" y="937" on="0"/>
        <pt x="1048" y="803" on="0"/>
        <pt x="914" y="705" on="0"/>
        <pt x="827" y="678" on="1"/>
        <pt x="846" y="658" on="0"/>
        <pt x="887" y="595" on="0"/>
        <pt x="925" y="523" on="0"/>
        <pt x="956" y="448" on="0"/>
        <pt x="966" y="418" on="1"/>
        <pt x="1005" y="325" on="0"/>
        <pt x="1064" y="186" on="0"/>
        <pt x="1110" y="85" on="0"/>
        <pt x="1145" y="19" on="0"/>
        <pt x="1160" y="-1" on="1"/>
        <pt x="933" y="1" on="1"/>
        <pt x="922" y="17" on="0"/>
        <pt x="898" y="65" on="0"/>
        <pt x="867" y="137" on="0"/>
        <pt x="828" y="237" on="0"/>
        <pt x="804" y="306" on="1"/>
        <pt x="784" y="372" on="0"/>
        <pt x="738" y="494" on="0"/>
        <pt x="686" y="589" on="0"/>
        <pt x="626" y="648" on="0"/>
        <pt x="592" y="651" on="1"/>
        <pt x="554" y="651" on="0"/>
        <pt x="517" y="652" on="1"/>
        <pt x="485" y="652" on="0"/>
        <pt x="415" y="653" on="0"/>
        <pt x="388" y="653" on="1"/>
        <pt x="306" y="0" on="1"/>
        <pt x="108" y="0" on="1"/>
      </contour>
      <contour>
        <pt x="408" y="812" on="1"/>
        <pt x="427" y="811" on="0"/>
        <pt x="489" y="810" on="0"/>
        <pt x="555" y="809" on="0"/>
        <pt x="615" y="809" on="0"/>
        <pt x="631" y="809" on="1"/>
        <pt x="720" y="809" on="0"/>
        <pt x="849" y="867" on="0"/>
        <pt x="931" y="968" on="0"/>
        <pt x="969" y="1105" on="0"/>
        <pt x="967" y="1185" on="1"/>
        <pt x="964" y="1286" on="0"/>
        <pt x="825" y="1394" on="0"/>
        <pt x="690" y="1394" on="1"/>
        <pt x="669" y="1394" on="0"/>
        <pt x="609" y="1391" on="0"/>
        <pt x="549" y="1386" on="0"/>
        <pt x="496" y="1381" on="0"/>
        <pt x="481" y="1378" on="1"/>
      </contour>
    </TTGlyph>
    <TTGlyph name="Racute" xMin="108" yMin="-1" xMax="1184" yMax="2000">
      <component glyphName="R" x="0" y="0" flags="0x204"/>
      <component glyphName="acute.cap" x="632" y="0" flags="0x4"/>
    </TTGlyph>
    <TTGlyph name="Rcaron" xMin="108" yMin="-1" xMax="1184" yMax="2013">
      <component glyphName="caron.cap" x="372" y="0" flags="0x4"/>
      <component glyphName="R" x="0" y="0" flags="0x4"/>
    </TTGlyph>
    <TTGlyph name="Rcommaaccent" xMin="108" yMin="-560" xMax="1184" yMax="1546">
      <component glyphName="commaaccent" x="460" y="0" flags="0x4"/>
      <component glyphName="R" x="0" y="0" flags="0x4"/>
    </TTGlyph>
    <TTGlyph name="S" xMin="29" yMin="-16" xMax="991" yMax="1546">
      <contour>
        <pt x="84" y="235" on="1"/>
        <pt x="98" y="220" on="0"/>
        <pt x="164" y="186" on="0"/>
        <pt x="251" y="157" on="0"/>
        <pt x="350" y="139" on="0"/>
        <pt x="397" y="139" on="1"/>
        <pt x="457" y="139" on="0"/>
        <pt x="571" y="163" on="0"/>
        <pt x="660" y="218" on="0"/>
        <pt x="715" y="307" on="0"/>
        <pt x="715" y="373" on="1"/>
        <pt x="715" y="415" on="0"/>
        <pt x="694" y="493" on="0"/>
        <pt x="643" y="569" on="0"/>
        <pt x="560" y="645" on="0"/>
        <pt x="498" y="686" on="1"/>
        <pt x="441" y="724" on="0"/>
        <pt x="329" y="812" on="0"/>
        <pt x="240" y="920" on="0"/>
        <pt x="184" y="1054" on="0"/>
        <pt x="183" y="1137" on="1"/>
        <pt x="181" y="1234" on="0"/>
        <pt x="250" y="1386" on="0"/>
        <pt x="374" y="1491" on="0"/>
        <pt x="546" y="1546" on="0"/>
        <pt x="648" y="1546" on="1"/>
        <pt x="718" y="1546" on="0"/>
        <pt x="828" y="1530" on="0"/>
        <pt x="912" y="1505" on="0"/>
        <pt x="972" y="1475" on="0"/>
        <pt x="991" y="1461" on="1"/>
        <pt x="928" y="1310" on="1"/>
        <pt x="904" y="1334" on="0"/>
        <pt x="836" y="1367" on="0"/>
        <pt x="762" y="1387" on="0"/>
        <pt x="689" y="1395" on="0"/>
        <pt x="661" y="1395" on="1"/>
        <pt x="616" y="1395" on="0"/>
        <pt x="520" y="1379" on="0"/>
        <pt x="439" y="1334" on="0"/>
        <pt x="384" y="1253" on="0"/>
        <pt x="381" y="1189" on="1"/>
        <pt x="378" y="1129" on="0"/>
        <pt x="403" y="1039" on="0"/>
        <pt x="460" y="961" on="0"/>
        <pt x="551" y="887" on="0"/>
        <pt x="615" y="844" on="1"/>
        <pt x="670" y="807" on="0"/>
        <pt x="778" y="723" on="0"/>
        <pt x="865" y="622" on="0"/>
        <pt x="919" y="498" on="0"/>
        <pt x="921" y="421" on="1"/>
        <pt x="923" y="311" on="0"/>
        <pt x="844" y="147" on="0"/>
        <pt x="702" y="38" on="0"/>
        <pt x="508" y="-16" on="0"/>
        <pt x="394" y="-16" on="1"/>
        <pt x="332" y="-16" on="0"/>
        <pt x="215" y="2" on="0"/>
        <pt x="117" y="29" on="0"/>
        <pt x="45" y="61" on="0"/>
        <pt x="29" y="75" on="1"/>
      </contour>
    </TTGlyph>
    <TTGlyph name="Sacute" xMin="29" yMin="-16" xMax="1032" yMax="2000">
      <component glyphName="S" x="0" y="0" flags="0x204"/>
      <component glyphName="acute.cap" x="554" y="0" flags="0x4"/>
    </TTGlyph>
    <TTGlyph name="Scaron" xMin="29" yMin="-16" xMax="1078" yMax="2013">
      <component glyphName="S" x="0" y="0" flags="0x204"/>
      <component glyphName="caron.cap" x="294" y="0" flags="0x4"/>
    </TTGlyph>
    <TTGlyph name="Scircumflex" xMin="29" yMin="-16" xMax="1039" yMax="2006">
      <component glyphName="S" x="0" y="0" flags="0x204"/>
      <component glyphName="circumflex.cap" x="295" y="0" flags="0x4"/>
    </TTGlyph>
    <TTGlyph name="T" xMin="129" yMin="0" xMax="1195" yMax="1530">
      <contour>
        <pt x="556" y="1384" on="1"/>
        <pt x="129" y="1373" on="1"/>
        <pt x="151" y="1530" on="1"/>
        <pt x="1195" y="1530" on="1"/>
        <pt x="1174" y="1373" on="1"/>
        <pt x="754" y="1384" on="1"/>
        <pt x="579" y="0" on="1"/>
        <pt x="381" y="0" on="1"/>
      </contour>
    </TTGlyph>
    <TTGlyph name="Tbar" xMin="129" yMin="0" xMax="1195" yMax="1530">
      <contour>
        <pt x="472" y="722" on="1"/>
        <pt x="203" y="722" on="1"/>
        <pt x="219" y="852" on="1"/>
        <pt x="489" y="852" on="1"/>
        <pt x="556" y="1384" on="1"/>
        <pt x="129" y="1373" on="1"/>
        <pt x="151" y="1530" on="1"/>
        <pt x="1195" y="1530" on="1"/>
        <pt x="1174" y="1373" on="1"/>
        <pt x="754" y="1384" on="1"/>
        <pt x="687" y="852" on="1"/>
        <pt x="958" y="852" on="1"/>
        <pt x="942" y="722" on="1"/>
        <pt x="670" y="722" on="1"/>
        <pt x="579" y="0" on="1"/>
        <pt x="381" y="0" on="1"/>
      </contour>
    </TTGlyph>
    <TTGlyph name="Tcaron" xMin="129" yMin="0" xMax="1195" yMax="2013">
      <component glyphName="caron.cap" x="325" y="0" flags="0x4"/>
      <component glyphName="T" x="0" y="0" flags="0x4"/>
    </TTGlyph>
    <TTGlyph name="Thorn" xMin="110" yMin="0" xMax="1142" yMax="1530">
      <contour>
        <pt x="303" y="1530" on="1"/>
        <pt x="501" y="1530" on="1"/>
        <pt x="469" y="1283" on="1"/>
        <pt x="520" y="1287" on="0"/>
        <pt x="623" y="1297" on="0"/>
        <pt x="682" y="1297" on="1"/>
        <pt x="899" y="1297" on="0"/>
        <pt x="1136" y="1106" on="0"/>
        <pt x="1139" y="907" on="1"/>
        <pt x="1142" y="760" on="0"/>
        <pt x="1053" y="524" on="0"/>
        <pt x="889" y="359" on="0"/>
        <pt x="661" y="270" on="0"/>
        <pt x="525" y="270" on="1"/>
        <pt x="453" y="270" on="0"/>
        <pt x="365" y="276" on="0"/>
        <pt x="343" y="280" on="1"/>
        <pt x="308" y="0" on="1"/>
        <pt x="110" y="0" on="1"/>
      </contour>
      <contour>
        <pt x="363" y="440" on="1"/>
        <pt x="376" y="437" on="0"/>
        <pt x="417" y="432" on="0"/>
        <pt x="463" y="428" on="0"/>
        <pt x="511" y="426" on="0"/>
        <pt x="531" y="426" on="1"/>
        <pt x="637" y="427" on="0"/>
        <pt x="789" y="489" on="0"/>
        <pt x="888" y="607" on="0"/>
        <pt x="936" y="779" on="0"/>
        <pt x="938" y="889" on="1"/>
        <pt x="940" y="1016" on="0"/>
        <pt x="801" y="1148" on="0"/>
        <pt x="650" y="1148" on="1"/>
        <pt x="630" y="1148" on="0"/>
        <pt x="579" y="1145" on="0"/>
        <pt x="525" y="1139" on="0"/>
        <pt x="472" y="1131" on="0"/>
        <pt x="450" y="1127" on="1"/>
      </contour>
    </TTGlyph>
    <TTGlyph name="U" xMin="145" yMin="-16" xMax="1322" yMax="1530">
      <contour>
        <pt x="146" y="428" on="1"/>
        <pt x="145" y="467" on="0"/>
        <pt x="154" y="548" on="0"/>
        <pt x="159" y="593" on="1"/>
        <pt x="277" y="1530" on="1"/>
        <pt x="475" y="1530" on="1"/>
        <pt x="361" y="628" on="1"/>
        <pt x="355" y="573" on="0"/>
        <pt x="348" y="479" on="0"/>
        <pt x="349" y="436" on="1"/>
        <pt x="352" y="289" on="0"/>
        <pt x="498" y="145" on="0"/>
        <pt x="630" y="145" on="1"/>
        <pt x="710" y="145" on="0"/>
        <pt x="839" y="200" on="0"/>
        <pt x="935" y="320" on="0"/>
        <pt x="1000" y="510" on="0"/>
        <pt x="1017" y="644" on="1"/>
        <pt x="1129" y="1530" on="1"/>
        <pt x="1322" y="1530" on="1"/>
        <pt x="1208" y="627" on="1"/>
        <pt x="1185" y="450" on="0"/>
        <pt x="1086" y="205" on="0"/>
        <pt x="934" y="52" on="0"/>
        <pt x="730" y="-16" on="0"/>
        <pt x="602" y="-16" on="1"/>
        <pt x="490" y="-16" on="0"/>
        <pt x="321" y="45" on="0"/>
        <pt x="207" y="160" on="0"/>
        <pt x="148" y="324" on="0"/>
      </contour>
    </TTGlyph>
    <TTGlyph name="Uacute" xMin="145" yMin="-16" xMax="1322" yMax="2000">
      <component glyphName="acute.cap" x="691" y="0" flags="0x4"/>
      <component glyphName="U" x="0" y="0" flags="0x4"/>
    </TTGlyph>
    <TTGlyph name="Ubreve" xMin="145" yMin="-16" xMax="1322" yMax="1980">
      <component glyphName="breve.cap" x="476" y="0" flags="0x4"/>
      <component glyphName="U" x="0" y="0" flags="0x4"/>
    </TTGlyph>
    <TTGlyph name="Ucircumflex" xMin="145" yMin="-16" xMax="1322" yMax="2006">
      <component glyphName="U" x="0" y="0" flags="0x204"/>
      <component glyphName="circumflex.cap" x="432" y="0" flags="0x4"/>
    </TTGlyph>
    <TTGlyph name="Udieresis" xMin="145" yMin="-16" xMax="1322" yMax="1959">
      <component glyphName="dieresis.cap" x="440" y="0" flags="0x4"/>
      <component glyphName="U" x="0" y="0" flags="0x4"/>
    </TTGlyph>
    <TTGlyph name="Ugrave" xMin="145" yMin="-16" xMax="1322" yMax="2000">
      <component glyphName="grave.cap" x="453" y="0" flags="0x4"/>
      <component glyphName="U" x="0" y="0" flags="0x4"/>
    </TTGlyph>
    <TTGlyph name="Uhungarumlaut" xMin="145" yMin="-16" xMax="1398" yMax="2000">
      <component glyphName="U" x="0" y="0" flags="0x204"/>
      <component glyphName="hungarumlaut.cap" x="477" y="0" flags="0x4"/>
    </TTGlyph>
    <TTGlyph name="Umacron" xMin="145" yMin="-16" xMax="1322" yMax="1878">
      <component glyphName="macron.cap" x="506" y="0" flags="0x4"/>
      <component glyphName="U" x="0" y="0" flags="0x4"/>
    </TTGlyph>
    <TTGlyph name="Uogonek" xMin="145" yMin="-435" xMax="1322" yMax="1530">
      <contour>
        <pt x="146" y="428" on="1"/>
        <pt x="145" y="467" on="0"/>
        <pt x="154" y="548" on="0"/>
        <pt x="159" y="593" on="1"/>
        <pt x="277" y="1530" on="1"/>
        <pt x="475" y="1530" on="1"/>
        <pt x="361" y="628" on="1"/>
        <pt x="355" y="573" on="0"/>
        <pt x="348" y="479" on="0"/>
        <pt x="349" y="436" on="1"/>
        <pt x="352" y="289" on="0"/>
        <pt x="498" y="145" on="0"/>
        <pt x="630" y="145" on="1"/>
        <pt x="710" y="145" on="0"/>
        <pt x="839" y="200" on="0"/>
        <pt x="935" y="320" on="0"/>
        <pt x="1000" y="510" on="0"/>
        <pt x="1017" y="644" on="1"/>
        <pt x="1129" y="1530" on="1"/>
        <pt x="1322" y="1530" on="1"/>
        <pt x="1208" y="627" on="1"/>
        <pt x="1191" y="496" on="0"/>
        <pt x="1128" y="295" on="0"/>
        <pt x="1036" y="146" on="0"/>
        <pt x="916" y="48" on="0"/>
        <pt x="841" y="21" on="1"/>
        <pt x="808" y="-12" on="0"/>
        <pt x="742" y="-82" on="0"/>
        <pt x="689" y="-147" on="0"/>
        <pt x="655" y="-203" on="0"/>
        <pt x="655" y="-221" on="1"/>
        <pt x="655" y="-242" on="0"/>
        <pt x="668" y="-267" on="0"/>
        <pt x="688" y="-282" on="0"/>
        <pt x="709" y="-287" on="0"/>
        <pt x="718" y="-287" on="1"/>
        <pt x="745" y="-287" on="0"/>
        <pt x="806" y="-271" on="0"/>
        <pt x="848" y="-242" on="1"/>
        <pt x="899" y="-341" on="1"/>
        <pt x="883" y="-355" on="0"/>
        <pt x="835" y="-387" on="0"/>
        <pt x="773" y="-416" on="0"/>
        <pt x="697" y="-435" on="0"/>
        <pt x="654" y="-435" on="1"/>
        <pt x="603" y="-435" on="0"/>
        <pt x="529" y="-405" on="0"/>
        <pt x="483" y="-359" on="0"/>
        <pt x="461" y="-305" on="0"/>
        <pt x="461" y="-281" on="1"/>
        <pt x="461" y="-237" on="0"/>
        <pt x="508" y="-156" on="0"/>
        <pt x="577" y="-87" on="0"/>
        <pt x="655" y="-31" on="0"/>
        <pt x="686" y="-12" on="1"/>
        <pt x="666" y="-14" on="0"/>
        <pt x="624" y="-16" on="0"/>
        <pt x="602" y="-16" on="1"/>
        <pt x="490" y="-16" on="0"/>
        <pt x="321" y="45" on="0"/>
        <pt x="207" y="160" on="0"/>
        <pt x="148" y="324" on="0"/>
      </contour>
    </TTGlyph>
    <TTGlyph name="Uring" xMin="145" yMin="-16" xMax="1322" yMax="2000">
      <component glyphName="U" x="0" y="0" flags="0x204"/>
      <component glyphName="ring.cap" x="463" y="0" flags="0x4"/>
    </TTGlyph>
    <TTGlyph name="Utilde" xMin="145" yMin="-16" xMax="1322" yMax="1970">
      <component glyphName="tilde.cap" x="441" y="0" flags="0x4"/>
      <component glyphName="U" x="0" y="0" flags="0x4"/>
    </TTGlyph>
    <TTGlyph name="V" xMin="128" yMin="0" xMax="1286" yMax="1530">
      <contour>
        <pt x="128" y="1530" on="1"/>
        <pt x="326" y="1530" on="1"/>
        <pt x="489" y="429" on="1"/>
        <pt x="514" y="207" on="1"/>
        <pt x="600" y="429" on="1"/>
        <pt x="1076" y="1530" on="1"/>
        <pt x="1286" y="1530" on="1"/>
        <pt x="589" y="0" on="1"/>
        <pt x="380" y="0" on="1"/>
      </contour>
    </TTGlyph>
    <TTGlyph name="W" xMin="126" yMin="-10" xMax="1888" yMax="1530">
      <contour>
        <pt x="126" y="1530" on="1"/>
        <pt x="324" y="1530" on="1"/>
        <pt x="464" y="436" on="1"/>
        <pt x="496" y="220" on="1"/>
        <pt x="557" y="435" on="1"/>
        <pt x="900" y="1313" on="1"/>
        <pt x="876" y="1530" on="1"/>
        <pt x="1066" y="1530" on="1"/>
        <pt x="1182" y="436" on="1"/>
        <pt x="1197" y="220" on="1"/>
        <pt x="1271" y="435" on="1"/>
        <pt x="1688" y="1530" on="1"/>
        <pt x="1888" y="1530" on="1"/>
        <pt x="1259" y="-10" on="1"/>
        <pt x="1057" y="-10" on="1"/>
        <pt x="961" y="850" on="1"/>
        <pt x="947" y="1022" on="1"/>
        <pt x="892" y="850" on="1"/>
        <pt x="562" y="-10" on="1"/>
        <pt x="358" y="-10" on="1"/>
      </contour>
    </TTGlyph>
    <TTGlyph name="Wacute" xMin="126" yMin="-10" xMax="1888" yMax="2000">
      <component glyphName="acute.cap" x="922" y="0" flags="0x4"/>
      <component glyphName="W" x="0" y="0" flags="0x4"/>
    </TTGlyph>
    <TTGlyph name="Wcircumflex" xMin="126" yMin="-10" xMax="1888" yMax="2006">
      <component glyphName="W" x="0" y="0" flags="0x204"/>
      <component glyphName="circumflex.cap" x="663" y="0" flags="0x4"/>
    </TTGlyph>
    <TTGlyph name="Wdieresis" xMin="126" yMin="-10" xMax="1888" yMax="1959">
      <component glyphName="dieresis.cap" x="671" y="0" flags="0x4"/>
      <component glyphName="W" x="0" y="0" flags="0x4"/>
    </TTGlyph>
    <TTGlyph name="Wgrave" xMin="126" yMin="-10" xMax="1888" yMax="2000">
      <component glyphName="grave.cap" x="684" y="0" flags="0x4"/>
      <component glyphName="W" x="0" y="0" flags="0x4"/>
    </TTGlyph>
    <TTGlyph name="X" xMin="-59" yMin="0" xMax="1241" yMax="1530">
      <contour>
        <pt x="499" y="793" on="1"/>
        <pt x="181" y="1530" on="1"/>
        <pt x="399" y="1530" on="1"/>
        <pt x="628" y="932" on="1"/>
        <pt x="1017" y="1530" on="1"/>
        <pt x="1241" y="1530" on="1"/>
        <pt x="704" y="753" on="1"/>
        <pt x="1051" y="0" on="1"/>
        <pt x="823" y="0" on="1"/>
        <pt x="575" y="620" on="1"/>
        <pt x="181" y="0" on="1"/>
        <pt x="-59" y="0" on="1"/>
      </contour>
    </TTGlyph>
    <TTGlyph name="Y" xMin="83" yMin="0" xMax="1237" yMax="1530">
      <contour>
        <pt x="456" y="590" on="1"/>
        <pt x="83" y="1530" on="1"/>
        <pt x="295" y="1530" on="1"/>
        <pt x="543" y="838" on="1"/>
        <pt x="575" y="762" on="1"/>
        <pt x="613" y="838" on="1"/>
        <pt x="1025" y="1530" on="1"/>
        <pt x="1237" y="1530" on="1"/>
        <pt x="644" y="590" on="1"/>
        <pt x="568" y="0" on="1"/>
        <pt x="380" y="0" on="1"/>
      </contour>
    </TTGlyph>
    <TTGlyph name="Yacute" xMin="83" yMin="0" xMax="1237" yMax="2000">
      <component glyphName="Y" x="0" y="0" flags="0x204"/>
      <component glyphName="acute.cap" x="561" y="0" flags="0x4"/>
    </TTGlyph>
    <TTGlyph name="Ycircumflex" xMin="83" yMin="0" xMax="1237" yMax="2006">
      <component glyphName="Y" x="0" y="0" flags="0x204"/>
      <component glyphName="circumflex.cap" x="302" y="0" flags="0x4"/>
    </TTGlyph>
    <TTGlyph name="Ydieresis" xMin="83" yMin="0" xMax="1237" yMax="1959">
      <component glyphName="Y" x="0" y="0" flags="0x204"/>
      <component glyphName="dieresis.cap" x="310" y="0" flags="0x4"/>
    </TTGlyph>
    <TTGlyph name="Ygrave" xMin="83" yMin="0" xMax="1237" yMax="2000">
      <component glyphName="Y" x="0" y="0" flags="0x204"/>
      <component glyphName="grave.cap" x="323" y="0" flags="0x4"/>
    </TTGlyph>
    <TTGlyph name="Z" xMin="15" yMin="0" xMax="1183" yMax="1530">
      <contour>
        <pt x="15" y="89" on="1"/>
        <pt x="794" y="1217" on="1"/>
        <pt x="928" y="1376" on="1"/>
        <pt x="238" y="1362" on="1"/>
        <pt x="260" y="1530" on="1"/>
        <pt x="1158" y="1530" on="1"/>
        <pt x="1183" y="1444" on="1"/>
        <pt x="403" y="303" on="1"/>
        <pt x="279" y="158" on="1"/>
        <pt x="1031" y="170" on="1"/>
        <pt x="1003" y="0" on="1"/>
        <pt x="42" y="0" on="1"/>
      </contour>
    </TTGlyph>
    <TTGlyph name="Zacute" xMin="15" yMin="0" xMax="1183" yMax="2000">
      <component glyphName="Z" x="0" y="0" flags="0x204"/>
      <component glyphName="acute.cap" x="627" y="0" flags="0x4"/>
    </TTGlyph>
    <TTGlyph name="Zcaron" xMin="15" yMin="0" xMax="1183" yMax="2013">
      <component glyphName="caron.cap" x="367" y="0" flags="0x4"/>
      <component glyphName="Z" x="0" y="0" flags="0x4"/>
    </TTGlyph>
    <TTGlyph name="Zdotaccent" xMin="15" yMin="0" xMax="1183" yMax="1959">
      <component glyphName="dotaccent.cap" x="583" y="0" flags="0x4"/>
      <component glyphName="Z" x="0" y="0" flags="0x4"/>
    </TTGlyph>
    <TTGlyph name="a" xMin="81" yMin="-16" xMax="1058" yMax="1156">
      <contour>
        <pt x="391" y="-16" on="1"/>
        <pt x="311" y="-16" on="0"/>
        <pt x="195" y="46" on="0"/>
        <pt x="118" y="159" on="0"/>
        <pt x="81" y="318" on="0"/>
        <pt x="81" y="416" on="1"/>
        <pt x="81" y="494" on="0"/>
        <pt x="113" y="665" on="0"/>
        <pt x="179" y="829" on="0"/>
        <pt x="282" y="978" on="0"/>
        <pt x="424" y="1090" on="0"/>
        <pt x="606" y="1156" on="0"/>
        <pt x="719" y="1156" on="1"/>
        <pt x="746" y="1156" on="0"/>
        <pt x="805" y="1150" on="0"/>
        <pt x="864" y="1141" on="0"/>
        <pt x="921" y="1128" on="0"/>
        <pt x="945" y="1122" on="1"/>
        <pt x="1058" y="1156" on="1"/>
        <pt x="902" y="0" on="1"/>
        <pt x="730" y="0" on="1"/>
        <pt x="745" y="190" on="1"/>
        <pt x="717" y="152" on="0"/>
        <pt x="644" y="78" on="0"/>
        <pt x="554" y="20" on="0"/>
        <pt x="449" y="-16" on="0"/>
      </contour>
      <contour>
        <pt x="426" y="136" on="1"/>
        <pt x="479" y="136" on="0"/>
        <pt x="577" y="184" on="0"/>
        <pt x="662" y="257" on="0"/>
        <pt x="732" y="344" on="0"/>
        <pt x="757" y="383" on="1"/>
        <pt x="843" y="988" on="1"/>
        <pt x="810" y="999" on="0"/>
        <pt x="730" y="1013" on="0"/>
        <pt x="688" y="1013" on="1"/>
        <pt x="616" y="1013" on="0"/>
        <pt x="501" y="961" on="0"/>
        <pt x="411" y="873" on="0"/>
        <pt x="346" y="758" on="0"/>
        <pt x="303" y="630" on="0"/>
        <pt x="283" y="499" on="0"/>
        <pt x="283" y="440" on="1"/>
        <pt x="283" y="279" on="0"/>
        <pt x="360" y="136" on="0"/>
      </contour>
    </TTGlyph>
    <TTGlyph name="aacute" xMin="81" yMin="-16" xMax="1076" yMax="1733">
      <component glyphName="a" x="0" y="0" flags="0x204"/>
      <component glyphName="acute" x="548" y="0" flags="0x4"/>
    </TTGlyph>
    <TTGlyph name="abreve" xMin="81" yMin="-16" xMax="1058" yMax="1651">
      <component glyphName="a" x="0" y="0" flags="0x204"/>
      <component glyphName="breve" x="361" y="0" flags="0x4"/>
    </TTGlyph>
    <TTGlyph name="acircumflex" xMin="81" yMin="-16" xMax="1077" yMax="1690">
      <component glyphName="a" x="0" y="0" flags="0x204"/>
      <component glyphName="circumflex" x="293" y="0" flags="0x4"/>
    </TTGlyph>
    <TTGlyph name="acute" xMin="69" yMin="1261" xMax="528" yMax="1733">
      <contour>
        <pt x="69" y="1332" on="1"/>
        <pt x="376" y="1733" on="1"/>
        <pt x="528" y="1596" on="1"/>
        <pt x="519" y="1579" on="0"/>
        <pt x="473" y="1523" on="0"/>
        <pt x="409" y="1456" on="0"/>
        <pt x="333" y="1385" on="0"/>
        <pt x="256" y="1322" on="0"/>
        <pt x="182" y="1272" on="0"/>
        <pt x="152" y="1261" on="1"/>
      </contour>
    </TTGlyph>
    <TTGlyph name="acute.cap" xMin="78" yMin="1593" xMax="478" yMax="2000">
      <contour>
        <pt x="78" y="1658" on="1"/>
        <pt x="354" y="2000" on="1"/>
        <pt x="478" y="1872" on="1"/>
        <pt x="455" y="1830" on="0"/>
        <pt x="374" y="1743" on="0"/>
        <pt x="281" y="1666" on="0"/>
        <pt x="187" y="1606" on="0"/>
        <pt x="151" y="1593" on="1"/>
      </contour>
    </TTGlyph>
    <TTGlyph name="adieresis" xMin="81" yMin="-16" xMax="1075" yMax="1651">
      <component glyphName="a" x="0" y="0" flags="0x204"/>
      <component glyphName="dieresis" x="327" y="0" flags="0x4"/>
    </TTGlyph>
    <TTGlyph name="ae" xMin="81" yMin="-16" xMax="1563" yMax="1156">
      <contour>
        <pt x="371" y="-16" on="1"/>
        <pt x="291" y="-16" on="0"/>
        <pt x="181" y="46" on="0"/>
        <pt x="112" y="159" on="0"/>
        <pt x="81" y="318" on="0"/>
        <pt x="81" y="416" on="1"/>
        <pt x="81" y="494" on="0"/>
        <pt x="113" y="665" on="0"/>
        <pt x="179" y="829" on="0"/>
        <pt x="282" y="978" on="0"/>
        <pt x="424" y="1090" on="0"/>
        <pt x="606" y="1156" on="0"/>
        <pt x="719" y="1156" on="1"/>
        <pt x="749" y="1156" on="0"/>
        <pt x="810" y="1154" on="0"/>
        <pt x="879" y="1139" on="0"/>
        <pt x="958" y="1108" on="0"/>
        <pt x="1006" y="1079" on="1"/>
        <pt x="1066" y="1116" on="0"/>
        <pt x="1204" y="1156" on="0"/>
        <pt x="1282" y="1156" on="1"/>
        <pt x="1354" y="1156" on="0"/>
        <pt x="1460" y="1118" on="0"/>
        <pt x="1529" y="1050" on="0"/>
        <pt x="1563" y="959" on="0"/>
        <pt x="1563" y="906" on="1"/>
        <pt x="1563" y="823" on="0"/>
        <pt x="1495" y="689" on="0"/>
        <pt x="1384" y="585" on="0"/>
        <pt x="1241" y="509" on="0"/>
        <pt x="1092" y="457" on="0"/>
        <pt x="947" y="429" on="0"/>
        <pt x="890" y="425" on="1"/>
        <pt x="888" y="379" on="0"/>
        <pt x="901" y="278" on="0"/>
        <pt x="946" y="193" on="0"/>
        <pt x="1031" y="138" on="0"/>
        <pt x="1100" y="138" on="1"/>
        <pt x="1175" y="138" on="0"/>
        <pt x="1346" y="216" on="0"/>
        <pt x="1432" y="297" on="1"/>
        <pt x="1487" y="186" on="1"/>
        <pt x="1466" y="156" on="0"/>
        <pt x="1387" y="86" on="0"/>
        <pt x="1280" y="25" on="0"/>
        <pt x="1150" y="-16" on="0"/>
        <pt x="1077" y="-16" on="1"/>
        <pt x="999" y="-16" on="0"/>
        <pt x="877" y="26" on="0"/>
        <pt x="785" y="99" on="0"/>
        <pt x="723" y="198" on="0"/>
        <pt x="706" y="255" on="1"/>
        <pt x="680" y="205" on="0"/>
        <pt x="614" y="108" on="0"/>
        <pt x="531" y="31" on="0"/>
        <pt x="430" y="-16" on="0"/>
      </contour>
      <contour>
        <pt x="416" y="136" on="1"/>
        <pt x="457" y="136" on="0"/>
        <pt x="533" y="185" on="0"/>
        <pt x="601" y="264" on="0"/>
        <pt x="660" y="363" on="0"/>
        <pt x="684" y="412" on="1"/>
        <pt x="684" y="434" on="1"/>
        <pt x="688" y="592" on="0"/>
        <pt x="784" y="864" on="0"/>
        <pt x="870" y="963" on="1"/>
        <pt x="826" y="986" on="0"/>
        <pt x="736" y="1013" on="0"/>
        <pt x="688" y="1013" on="1"/>
        <pt x="616" y="1013" on="0"/>
        <pt x="501" y="961" on="0"/>
        <pt x="411" y="873" on="0"/>
        <pt x="346" y="758" on="0"/>
        <pt x="303" y="630" on="0"/>
        <pt x="283" y="499" on="0"/>
        <pt x="283" y="440" on="1"/>
        <pt x="283" y="279" on="0"/>
        <pt x="350" y="136" on="0"/>
      </contour>
      <contour>
        <pt x="895" y="564" on="1"/>
        <pt x="935" y="566" on="0"/>
        <pt x="1037" y="588" on="0"/>
        <pt x="1142" y="627" on="0"/>
        <pt x="1242" y="683" on="0"/>
        <pt x="1320" y="754" on="0"/>
        <pt x="1367" y="840" on="0"/>
        <pt x="1367" y="889" on="1"/>
        <pt x="1367" y="923" on="0"/>
        <pt x="1348" y="969" on="0"/>
        <pt x="1314" y="996" on="0"/>
        <pt x="1267" y="1008" on="0"/>
        <pt x="1239" y="1008" on="1"/>
        <pt x="1188" y="1008" on="0"/>
        <pt x="1100" y="967" on="0"/>
        <pt x="1027" y="897" on="0"/>
        <pt x="969" y="807" on="0"/>
        <pt x="927" y="708" on="0"/>
        <pt x="900" y="608" on="0"/>
      </contour>
    </TTGlyph>
    <TTGlyph name="aeacute" xMin="81" yMin="-16" xMax="1563" yMax="1733">
      <component glyphName="acute" x="752" y="0" flags="0x4"/>
      <component glyphName="ae" x="0" y="0" flags="0x4"/>
    </TTGlyph>
    <TTGlyph name="afii61352" xMin="162" yMin="0" xMax="2446" yMax="1532">
      <contour>
        <pt x="1580" y="1058" on="1"/>
        <pt x="1592" y="1185" on="0"/>
        <pt x="1691" y="1365" on="0"/>
        <pt x="1828" y="1479" on="0"/>
        <pt x="1987" y="1532" on="0"/>
        <pt x="2061" y="1532" on="1"/>
        <pt x="2158" y="1532" on="0"/>
        <pt x="2308" y="1464" on="0"/>
        <pt x="2405" y="1338" on="0"/>
        <pt x="2446" y="1159" on="0"/>
        <pt x="2435" y="1048" on="1"/>
        <pt x="2422" y="921" on="0"/>
        <pt x="2324" y="740" on="0"/>
        <pt x="2187" y="624" on="0"/>
        <pt x="2028" y="570" on="0"/>
        <pt x="1955" y="570" on="1"/>
        <pt x="1858" y="570" on="0"/>
        <pt x="1708" y="639" on="0"/>
        <pt x="1610" y="766" on="0"/>
        <pt x="1569" y="947" on="0"/>
      </contour>
      <contour>
        <pt x="355" y="1530" on="1"/>
        <pt x="561" y="1530" on="1"/>
        <pt x="1001" y="468" on="1"/>
        <pt x="1064" y="261" on="1"/>
        <pt x="1083" y="510" on="1"/>
        <pt x="1206" y="1530" on="1"/>
        <pt x="1394" y="1530" on="1"/>
        <pt x="1201" y="0" on="1"/>
        <pt x="1008" y="0" on="1"/>
        <pt x="553" y="1075" on="1"/>
        <pt x="500" y="1307" on="1"/>
        <pt x="473" y="1009" on="1"/>
        <pt x="347" y="0" on="1"/>
        <pt x="162" y="0" on="1"/>
      </contour>
      <contour>
        <pt x="1767" y="1068" on="1"/>
        <pt x="1759" y="989" on="0"/>
        <pt x="1779" y="858" on="0"/>
        <pt x="1832" y="764" on="0"/>
        <pt x="1917" y="712" on="0"/>
        <pt x="1974" y="713" on="1"/>
        <pt x="2031" y="714" on="0"/>
        <pt x="2124" y="751" on="0"/>
        <pt x="2194" y="829" on="0"/>
        <pt x="2239" y="951" on="0"/>
        <pt x="2247" y="1036" on="1"/>
        <pt x="2255" y="1115" on="0"/>
        <pt x="2235" y="1246" on="0"/>
        <pt x="2182" y="1339" on="0"/>
        <pt x="2098" y="1390" on="0"/>
        <pt x="2041" y="1389" on="1"/>
        <pt x="1985" y="1388" on="0"/>
        <pt x="1892" y="1352" on="0"/>
        <pt x="1821" y="1275" on="0"/>
        <pt x="1776" y="1154" on="0"/>
      </contour>
      <contour>
        <pt x="1530" y="158" on="1"/>
        <pt x="2303" y="158" on="1"/>
        <pt x="2291" y="0" on="1"/>
        <pt x="1518" y="0" on="1"/>
      </contour>
    </TTGlyph>
    <TTGlyph name="agrave" xMin="81" yMin="-16" xMax="1058" yMax="1733">
      <component glyphName="a" x="0" y="0" flags="0x204"/>
      <component glyphName="grave" x="270" y="0" flags="0x4"/>
    </TTGlyph>
    <TTGlyph name="amacron" xMin="81" yMin="-16" xMax="1058" yMax="1544">
      <component glyphName="a" x="0" y="0" flags="0x204"/>
      <component glyphName="macron" x="391" y="0" flags="0x4"/>
    </TTGlyph>
    <TTGlyph name="ampersand" xMin="94" yMin="-20" xMax="1439" yMax="1546">
      <contour>
        <pt x="94" y="368" on="1"/>
        <pt x="94" y="441" on="0"/>
        <pt x="148" y="560" on="0"/>
        <pt x="238" y="658" on="0"/>
        <pt x="358" y="741" on="0"/>
        <pt x="424" y="778" on="1"/>
        <pt x="406" y="817" on="0"/>
        <pt x="374" y="906" on="0"/>
        <pt x="349" y="997" on="0"/>
        <pt x="335" y="1087" on="0"/>
        <pt x="335" y="1128" on="1"/>
        <pt x="335" y="1218" on="0"/>
        <pt x="397" y="1372" on="0"/>
        <pt x="507" y="1483" on="0"/>
        <pt x="659" y="1546" on="0"/>
        <pt x="749" y="1546" on="1"/>
        <pt x="836" y="1546" on="0"/>
        <pt x="969" y="1488" on="0"/>
        <pt x="1059" y="1397" on="0"/>
        <pt x="1105" y="1288" on="0"/>
        <pt x="1105" y="1237" on="1"/>
        <pt x="1105" y="1173" on="0"/>
        <pt x="1067" y="1065" on="0"/>
        <pt x="1001" y="974" on="0"/>
        <pt x="912" y="896" on="0"/>
        <pt x="810" y="828" on="0"/>
        <pt x="699" y="767" on="0"/>
        <pt x="644" y="737" on="1"/>
        <pt x="724" y="598" on="0"/>
        <pt x="902" y="356" on="0"/>
        <pt x="1008" y="259" on="1"/>
        <pt x="1056" y="311" on="0"/>
        <pt x="1109" y="453" on="0"/>
        <pt x="1109" y="542" on="1"/>
        <pt x="1109" y="584" on="0"/>
        <pt x="1096" y="654" on="0"/>
        <pt x="1087" y="682" on="1"/>
        <pt x="1055" y="679" on="0"/>
        <pt x="1003" y="669" on="0"/>
        <pt x="987" y="661" on="1"/>
        <pt x="997" y="795" on="1"/>
        <pt x="1011" y="809" on="0"/>
        <pt x="1086" y="830" on="0"/>
        <pt x="1152" y="830" on="1"/>
        <pt x="1439" y="829" on="1"/>
        <pt x="1430" y="684" on="1"/>
        <pt x="1278" y="684" on="1"/>
        <pt x="1283" y="664" on="0"/>
        <pt x="1290" y="616" on="0"/>
        <pt x="1290" y="586" on="1"/>
        <pt x="1290" y="451" on="0"/>
        <pt x="1212" y="238" on="0"/>
        <pt x="1137" y="161" on="1"/>
        <pt x="1191" y="132" on="0"/>
        <pt x="1308" y="112" on="0"/>
        <pt x="1380" y="114" on="1"/>
        <pt x="1406" y="114" on="1"/>
        <pt x="1385" y="-6" on="1"/>
        <pt x="1347" y="-14" on="0"/>
        <pt x="1265" y="-20" on="0"/>
        <pt x="1236" y="-20" on="1"/>
        <pt x="1207" y="-20" on="0"/>
        <pt x="1143" y="-11" on="0"/>
        <pt x="1077" y="7" on="0"/>
        <pt x="1013" y="34" on="0"/>
        <pt x="985" y="52" on="1"/>
        <pt x="913" y="18" on="0"/>
        <pt x="741" y="-17" on="0"/>
        <pt x="641" y="-17" on="1"/>
        <pt x="538" y="-17" on="0"/>
        <pt x="341" y="24" on="0"/>
        <pt x="188" y="115" on="0"/>
        <pt x="94" y="262" on="0"/>
      </contour>
      <contour>
        <pt x="576" y="860" on="1"/>
        <pt x="643" y="896" on="0"/>
        <pt x="768" y="970" on="0"/>
        <pt x="862" y="1055" on="0"/>
        <pt x="919" y="1155" on="0"/>
        <pt x="919" y="1216" on="1"/>
        <pt x="919" y="1259" on="0"/>
        <pt x="896" y="1331" on="0"/>
        <pt x="851" y="1384" on="0"/>
        <pt x="785" y="1413" on="0"/>
        <pt x="742" y="1413" on="1"/>
        <pt x="688" y="1413" on="0"/>
        <pt x="604" y="1367" on="0"/>
        <pt x="546" y="1289" on="0"/>
        <pt x="515" y="1188" on="0"/>
        <pt x="515" y="1134" on="1"/>
        <pt x="515" y="1046" on="0"/>
        <pt x="553" y="908" on="0"/>
      </contour>
      <contour>
        <pt x="298" y="372" on="1"/>
        <pt x="298" y="300" on="0"/>
        <pt x="362" y="205" on="0"/>
        <pt x="465" y="147" on="0"/>
        <pt x="593" y="123" on="0"/>
        <pt x="657" y="123" on="1"/>
        <pt x="714" y="123" on="0"/>
        <pt x="817" y="142" on="0"/>
        <pt x="862" y="160" on="1"/>
        <pt x="793" y="226" on="0"/>
        <pt x="690" y="348" on="0"/>
        <pt x="605" y="466" on="0"/>
        <pt x="532" y="586" on="0"/>
        <pt x="494" y="649" on="1"/>
        <pt x="452" y="622" on="0"/>
        <pt x="380" y="562" on="0"/>
        <pt x="327" y="494" on="0"/>
        <pt x="298" y="417" on="0"/>
      </contour>
    </TTGlyph>
    <TTGlyph name="aogonek" xMin="97" yMin="-435" xMax="1074" yMax="1156">
      <contour>
        <pt x="407" y="-16" on="1"/>
        <pt x="327" y="-16" on="0"/>
        <pt x="211" y="46" on="0"/>
        <pt x="134" y="159" on="0"/>
        <pt x="97" y="318" on="0"/>
        <pt x="97" y="416" on="1"/>
        <pt x="97" y="494" on="0"/>
        <pt x="129" y="665" on="0"/>
        <pt x="195" y="829" on="0"/>
        <pt x="298" y="978" on="0"/>
        <pt x="440" y="1090" on="0"/>
        <pt x="622" y="1156" on="0"/>
        <pt x="735" y="1156" on="1"/>
        <pt x="762" y="1156" on="0"/>
        <pt x="821" y="1150" on="0"/>
        <pt x="880" y="1141" on="0"/>
        <pt x="937" y="1128" on="0"/>
        <pt x="961" y="1122" on="1"/>
        <pt x="1074" y="1156" on="1"/>
        <pt x="918" y="0" on="1"/>
        <pt x="902" y="0" on="1"/>
        <pt x="874" y="-20" on="0"/>
        <pt x="802" y="-74" on="0"/>
        <pt x="739" y="-132" on="0"/>
        <pt x="695" y="-193" on="0"/>
        <pt x="695" y="-221" on="1"/>
        <pt x="695" y="-242" on="0"/>
        <pt x="708" y="-267" on="0"/>
        <pt x="728" y="-282" on="0"/>
        <pt x="749" y="-287" on="0"/>
        <pt x="758" y="-287" on="1"/>
        <pt x="785" y="-287" on="0"/>
        <pt x="846" y="-271" on="0"/>
        <pt x="888" y="-242" on="1"/>
        <pt x="939" y="-341" on="1"/>
        <pt x="923" y="-355" on="0"/>
        <pt x="875" y="-387" on="0"/>
        <pt x="813" y="-416" on="0"/>
        <pt x="737" y="-435" on="0"/>
        <pt x="694" y="-435" on="1"/>
        <pt x="643" y="-435" on="0"/>
        <pt x="569" y="-405" on="0"/>
        <pt x="523" y="-359" on="0"/>
        <pt x="501" y="-305" on="0"/>
        <pt x="501" y="-281" on="1"/>
        <pt x="501" y="-229" on="0"/>
        <pt x="556" y="-142" on="0"/>
        <pt x="633" y="-71" on="0"/>
        <pt x="717" y="-18" on="0"/>
        <pt x="746" y="0" on="1"/>
        <pt x="761" y="190" on="1"/>
        <pt x="733" y="152" on="0"/>
        <pt x="660" y="78" on="0"/>
        <pt x="570" y="20" on="0"/>
        <pt x="465" y="-16" on="0"/>
      </contour>
      <contour>
        <pt x="442" y="136" on="1"/>
        <pt x="495" y="136" on="0"/>
        <pt x="593" y="184" on="0"/>
        <pt x="678" y="257" on="0"/>
        <pt x="748" y="344" on="0"/>
        <pt x="773" y="383" on="1"/>
        <pt x="859" y="988" on="1"/>
        <pt x="826" y="999" on="0"/>
        <pt x="746" y="1013" on="0"/>
        <pt x="704" y="1013" on="1"/>
        <pt x="633" y="1013" on="0"/>
        <pt x="517" y="961" on="0"/>
        <pt x="427" y="873" on="0"/>
        <pt x="362" y="758" on="0"/>
        <pt x="319" y="630" on="0"/>
        <pt x="299" y="499" on="0"/>
        <pt x="299" y="440" on="1"/>
        <pt x="299" y="279" on="0"/>
        <pt x="376" y="136" on="0"/>
      </contour>
    </TTGlyph>
    <TTGlyph name="approxequal" xMin="55" yMin="285" xMax="1032" yMax="1069">
      <component glyphName="asciitilde" x="-77" y="-435" flags="0x4"/>
      <component glyphName="asciitilde" x="-27" y="11" flags="0x4"/>
    </TTGlyph>
    <TTGlyph name="aring" xMin="81" yMin="-16" xMax="1065" yMax="1786">
      <component glyphName="a" x="0" y="0" flags="0x204"/>
      <component glyphName="ring" x="349" y="0" flags="0x4"/>
    </TTGlyph>
    <TTGlyph name="asciicircum" xMin="176" yMin="510" xMax="1141" yMax="1530">
      <contour>
        <pt x="687" y="1530" on="1"/>
        <pt x="884" y="1530" on="1"/>
        <pt x="1141" y="510" on="1"/>
        <pt x="970" y="510" on="1"/>
        <pt x="768" y="1338" on="1"/>
        <pt x="351" y="510" on="1"/>
        <pt x="176" y="510" on="1"/>
      </contour>
    </TTGlyph>
    <TTGlyph name="asciitilde" xMin="132" yMin="720" xMax="1059" yMax="1058">
      <contour>
        <pt x="132" y="848" on="1"/>
        <pt x="144" y="884" on="0"/>
        <pt x="202" y="959" on="0"/>
        <pt x="285" y="1019" on="0"/>
        <pt x="387" y="1058" on="0"/>
        <pt x="444" y="1058" on="1"/>
        <pt x="482" y="1058" on="0"/>
        <pt x="547" y="1033" on="0"/>
        <pt x="604" y="994" on="0"/>
        <pt x="656" y="950" on="0"/>
        <pt x="706" y="911" on="0"/>
        <pt x="758" y="886" on="0"/>
        <pt x="786" y="886" on="1"/>
        <pt x="853" y="886" on="0"/>
        <pt x="953" y="950" on="0"/>
        <pt x="988" y="1003" on="1"/>
        <pt x="1059" y="930" on="1"/>
        <pt x="1048" y="889" on="0"/>
        <pt x="990" y="814" on="0"/>
        <pt x="907" y="755" on="0"/>
        <pt x="804" y="720" on="0"/>
        <pt x="747" y="720" on="1"/>
        <pt x="709" y="720" on="0"/>
        <pt x="644" y="745" on="0"/>
        <pt x="587" y="784" on="0"/>
        <pt x="536" y="828" on="0"/>
        <pt x="486" y="867" on="0"/>
        <pt x="434" y="892" on="0"/>
        <pt x="405" y="892" on="1"/>
        <pt x="338" y="892" on="0"/>
        <pt x="238" y="828" on="0"/>
        <pt x="203" y="775" on="1"/>
      </contour>
    </TTGlyph>
    <TTGlyph name="asterisk" xMin="231" yMin="647" xMax="1231" yMax="1653">
      <contour>
        <pt x="641" y="939" on="1"/>
        <pt x="683" y="1084" on="1"/>
        <pt x="565" y="986" on="1"/>
        <pt x="308" y="815" on="1"/>
        <pt x="231" y="982" on="1"/>
        <pt x="510" y="1102" on="1"/>
        <pt x="652" y="1150" on="1"/>
        <pt x="520" y="1197" on="1"/>
        <pt x="265" y="1318" on="1"/>
        <pt x="380" y="1484" on="1"/>
        <pt x="598" y="1314" on="1"/>
        <pt x="698" y="1219" on="1"/>
        <pt x="685" y="1361" on="1"/>
        <pt x="687" y="1653" on="1"/>
        <pt x="879" y="1653" on="1"/>
        <pt x="820" y="1361" on="1"/>
        <pt x="777" y="1219" on="1"/>
        <pt x="897" y="1314" on="1"/>
        <pt x="1154" y="1485" on="1"/>
        <pt x="1231" y="1318" on="1"/>
        <pt x="952" y="1197" on="1"/>
        <pt x="810" y="1149" on="1"/>
        <pt x="942" y="1102" on="1"/>
        <pt x="1197" y="982" on="1"/>
        <pt x="1082" y="816" on="1"/>
        <pt x="863" y="986" on="1"/>
        <pt x="762" y="1084" on="1"/>
        <pt x="778" y="939" on="1"/>
        <pt x="779" y="647" on="1"/>
        <pt x="582" y="648" on="1"/>
      </contour>
    </TTGlyph>
    <TTGlyph name="at" xMin="121" yMin="-440" xMax="1869" yMax="1545">
      <contour>
        <pt x="121" y="374" on="1"/>
        <pt x="121" y="555" on="0"/>
        <pt x="197" y="869" on="0"/>
        <pt x="335" y="1129" on="0"/>
        <pt x="529" y="1333" on="0"/>
        <pt x="765" y="1472" on="0"/>
        <pt x="1037" y="1545" on="0"/>
        <pt x="1185" y="1545" on="1"/>
        <pt x="1344" y="1545" on="0"/>
        <pt x="1597" y="1452" on="0"/>
        <pt x="1774" y="1281" on="0"/>
        <pt x="1869" y="1039" on="0"/>
        <pt x="1869" y="889" on="1"/>
        <pt x="1869" y="749" on="0"/>
        <pt x="1815" y="510" on="0"/>
        <pt x="1724" y="315" on="0"/>
        <pt x="1602" y="165" on="0"/>
        <pt x="1466" y="63" on="0"/>
        <pt x="1324" y="11" on="0"/>
        <pt x="1257" y="11" on="1"/>
        <pt x="1223" y="11" on="0"/>
        <pt x="1187" y="44" on="0"/>
        <pt x="1170" y="102" on="0"/>
        <pt x="1167" y="180" on="0"/>
        <pt x="1167" y="225" on="1"/>
        <pt x="1167" y="260" on="0"/>
        <pt x="1174" y="327" on="0"/>
        <pt x="1179" y="371" on="1"/>
        <pt x="1145" y="291" on="0"/>
        <pt x="1063" y="157" on="0"/>
        <pt x="970" y="61" on="0"/>
        <pt x="866" y="7" on="0"/>
        <pt x="811" y="7" on="1"/>
        <pt x="760" y="7" on="0"/>
        <pt x="659" y="57" on="0"/>
        <pt x="579" y="161" on="0"/>
        <pt x="531" y="323" on="0"/>
        <pt x="533" y="434" on="1"/>
        <pt x="534" y="507" on="0"/>
        <pt x="564" y="661" on="0"/>
        <pt x="623" y="807" on="0"/>
        <pt x="710" y="937" on="0"/>
        <pt x="829" y="1035" on="0"/>
        <pt x="980" y="1092" on="0"/>
        <pt x="1073" y="1092" on="1"/>
        <pt x="1094" y="1092" on="0"/>
        <pt x="1152" y="1086" on="0"/>
        <pt x="1213" y="1073" on="0"/>
        <pt x="1272" y="1053" on="0"/>
        <pt x="1293" y="1038" on="1"/>
        <pt x="1458" y="1068" on="1"/>
        <pt x="1443" y="1011" on="0"/>
        <pt x="1411" y="844" on="0"/>
        <pt x="1381" y="660" on="0"/>
        <pt x="1356" y="475" on="0"/>
        <pt x="1349" y="400" on="1"/>
        <pt x="1345" y="361" on="0"/>
        <pt x="1343" y="305" on="0"/>
        <pt x="1343" y="262" on="0"/>
        <pt x="1344" y="228" on="0"/>
        <pt x="1344" y="213" on="1"/>
        <pt x="1344" y="185" on="0"/>
        <pt x="1358" y="185" on="1"/>
        <pt x="1400" y="185" on="0"/>
        <pt x="1486" y="240" on="0"/>
        <pt x="1565" y="336" on="0"/>
        <pt x="1635" y="466" on="0"/>
        <pt x="1686" y="616" on="0"/>
        <pt x="1716" y="778" on="0"/>
        <pt x="1716" y="859" on="1"/>
        <pt x="1716" y="1024" on="0"/>
        <pt x="1624" y="1238" on="0"/>
        <pt x="1468" y="1364" on="0"/>
        <pt x="1261" y="1414" on="0"/>
        <pt x="1147" y="1414" on="1"/>
        <pt x="1012" y="1414" on="0"/>
        <pt x="777" y="1333" on="0"/>
        <pt x="583" y="1192" on="0"/>
        <pt x="431" y="998" on="0"/>
        <pt x="327" y="773" on="0"/>
        <pt x="273" y="524" on="0"/>
        <pt x="273" y="398" on="1"/>
        <pt x="273" y="207" on="0"/>
        <pt x="379" y="-59" on="0"/>
        <pt x="556" y="-225" on="0"/>
        <pt x="787" y="-301" on="0"/>
        <pt x="913" y="-301" on="1"/>
        <pt x="957" y="-301" on="0"/>
        <pt x="1067" y="-287" on="0"/>
        <pt x="1174" y="-266" on="0"/>
        <pt x="1265" y="-239" on="0"/>
        <pt x="1291" y="-227" on="1"/>
        <pt x="1324" y="-324" on="1"/>
        <pt x="1289" y="-350" on="0"/>
        <pt x="1196" y="-393" on="0"/>
        <pt x="1085" y="-423" on="0"/>
        <pt x="962" y="-440" on="0"/>
        <pt x="898" y="-440" on="1"/>
        <pt x="730" y="-440" on="0"/>
        <pt x="445" y="-331" on="0"/>
        <pt x="238" y="-123" on="0"/>
        <pt x="121" y="180" on="0"/>
      </contour>
      <contour>
        <pt x="712" y="447" on="1"/>
        <pt x="712" y="388" on="0"/>
        <pt x="724" y="284" on="0"/>
        <pt x="754" y="206" on="0"/>
        <pt x="804" y="160" on="0"/>
        <pt x="842" y="160" on="1"/>
        <pt x="876" y="160" on="0"/>
        <pt x="958" y="235" on="0"/>
        <pt x="1043" y="358" on="0"/>
        <pt x="1124" y="514" on="0"/>
        <pt x="1191" y="677" on="0"/>
        <pt x="1237" y="832" on="0"/>
        <pt x="1245" y="892" on="1"/>
        <pt x="1233" y="911" on="0"/>
        <pt x="1189" y="939" on="0"/>
        <pt x="1138" y="958" on="0"/>
        <pt x="1086" y="967" on="0"/>
        <pt x="1065" y="967" on="1"/>
        <pt x="1008" y="967" on="0"/>
        <pt x="911" y="922" on="0"/>
        <pt x="833" y="845" on="0"/>
        <pt x="773" y="742" on="0"/>
        <pt x="733" y="626" on="0"/>
        <pt x="712" y="504" on="0"/>
      </contour>
    </TTGlyph>
    <TTGlyph name="atilde" xMin="81" yMin="-16" xMax="1106" yMax="1650">
      <component glyphName="a" x="0" y="0" flags="0x204"/>
      <component glyphName="tilde" x="314" y="0" flags="0x4"/>
    </TTGlyph>
    <TTGlyph name="b" xMin="83" yMin="-16" xMax="1070" yMax="1638">
      <contour>
        <pt x="302" y="1638" on="1"/>
        <pt x="487" y="1638" on="1"/>
        <pt x="432" y="1147" on="1"/>
        <pt x="396" y="954" on="1"/>
        <pt x="424" y="991" on="0"/>
        <pt x="501" y="1064" on="0"/>
        <pt x="594" y="1121" on="0"/>
        <pt x="701" y="1156" on="0"/>
        <pt x="760" y="1156" on="1"/>
        <pt x="839" y="1156" on="0"/>
        <pt x="956" y="1094" on="0"/>
        <pt x="1033" y="981" on="0"/>
        <pt x="1070" y="821" on="0"/>
        <pt x="1070" y="724" on="1"/>
        <pt x="1070" y="646" on="0"/>
        <pt x="1037" y="475" on="0"/>
        <pt x="968" y="311" on="0"/>
        <pt x="862" y="162" on="0"/>
        <pt x="718" y="50" on="0"/>
        <pt x="535" y="-16" on="0"/>
        <pt x="422" y="-16" on="1"/>
        <pt x="368" y="-16" on="0"/>
        <pt x="245" y="4" on="0"/>
        <pt x="196" y="17" on="1"/>
        <pt x="83" y="-16" on="1"/>
      </contour>
      <contour>
        <pt x="300" y="151" on="1"/>
        <pt x="333" y="140" on="0"/>
        <pt x="411" y="127" on="0"/>
        <pt x="453" y="127" on="1"/>
        <pt x="525" y="127" on="0"/>
        <pt x="642" y="179" on="0"/>
        <pt x="734" y="267" on="0"/>
        <pt x="802" y="382" on="0"/>
        <pt x="846" y="510" on="0"/>
        <pt x="868" y="641" on="0"/>
        <pt x="868" y="700" on="1"/>
        <pt x="868" y="861" on="0"/>
        <pt x="791" y="1004" on="0"/>
        <pt x="725" y="1004" on="1"/>
        <pt x="671" y="1004" on="0"/>
        <pt x="568" y="956" on="0"/>
        <pt x="479" y="883" on="0"/>
        <pt x="405" y="797" on="0"/>
        <pt x="380" y="759" on="1"/>
      </contour>
    </TTGlyph>
    <TTGlyph name="backslash" xMin="26" yMin="-362" xMax="776" yMax="1597">
      <contour>
        <pt x="602" y="-362" on="1"/>
        <pt x="26" y="1597" on="1"/>
        <pt x="199" y="1597" on="1"/>
        <pt x="776" y="-362" on="1"/>
      </contour>
    </TTGlyph>
    <TTGlyph name="bar" xMin="354" yMin="-186" xMax="527" yMax="1780">
      <contour>
        <pt x="354" y="1780" on="1"/>
        <pt x="527" y="1780" on="1"/>
        <pt x="527" y="-186" on="1"/>
        <pt x="354" y="-186" on="1"/>
      </contour>
    </TTGlyph>
    <TTGlyph name="braceleft" xMin="160" yMin="-190" xMax="1007" yMax="1735">
      <contour>
        <pt x="287" y="-47" on="1"/>
        <pt x="287" y="-42" on="0"/>
        <pt x="295" y="18" on="0"/>
        <pt x="308" y="108" on="0"/>
        <pt x="324" y="220" on="0"/>
        <pt x="332" y="277" on="1"/>
        <pt x="351" y="412" on="0"/>
        <pt x="377" y="579" on="1"/>
        <pt x="377" y="596" on="0"/>
        <pt x="349" y="630" on="0"/>
        <pt x="325" y="646" on="1"/>
        <pt x="293" y="668" on="0"/>
        <pt x="205" y="703" on="0"/>
        <pt x="160" y="714" on="1"/>
        <pt x="178" y="838" on="1"/>
        <pt x="227" y="850" on="0"/>
        <pt x="331" y="883" on="0"/>
        <pt x="370" y="903" on="1"/>
        <pt x="397" y="917" on="0"/>
        <pt x="432" y="949" on="0"/>
        <pt x="435" y="966" on="1"/>
        <pt x="512" y="1483" on="1"/>
        <pt x="524" y="1557" on="0"/>
        <pt x="556" y="1655" on="0"/>
        <pt x="609" y="1712" on="0"/>
        <pt x="688" y="1735" on="0"/>
        <pt x="747" y="1735" on="1"/>
        <pt x="780" y="1735" on="0"/>
        <pt x="869" y="1720" on="0"/>
        <pt x="910" y="1711" on="1"/>
        <pt x="958" y="1700" on="0"/>
        <pt x="1007" y="1688" on="1"/>
        <pt x="1004" y="1669" on="0"/>
        <pt x="1001" y="1652" on="1"/>
        <pt x="999" y="1638" on="0"/>
        <pt x="994" y="1608" on="0"/>
        <pt x="994" y="1601" on="1"/>
        <pt x="718" y="1601" on="1"/>
        <pt x="622" y="970" on="1"/>
        <pt x="616" y="929" on="0"/>
        <pt x="564" y="871" on="0"/>
        <pt x="524" y="846" on="1"/>
        <pt x="513" y="839" on="0"/>
        <pt x="466" y="816" on="0"/>
        <pt x="441" y="805" on="1"/>
        <pt x="412" y="792" on="0"/>
        <pt x="379" y="776" on="1"/>
        <pt x="424" y="753" on="0"/>
        <pt x="499" y="707" on="0"/>
        <pt x="521" y="684" on="1"/>
        <pt x="544" y="661" on="0"/>
        <pt x="567" y="606" on="0"/>
        <pt x="562" y="575" on="1"/>
        <pt x="467" y="-55" on="1"/>
        <pt x="742" y="-55" on="1"/>
        <pt x="740" y="-61" on="0"/>
        <pt x="737" y="-90" on="0"/>
        <pt x="735" y="-105" on="1"/>
        <pt x="732" y="-123" on="0"/>
        <pt x="730" y="-143" on="1"/>
        <pt x="696" y="-153" on="0"/>
        <pt x="632" y="-170" on="0"/>
        <pt x="567" y="-183" on="0"/>
        <pt x="496" y="-190" on="0"/>
        <pt x="455" y="-190" on="1"/>
        <pt x="408" y="-190" on="0"/>
        <pt x="344" y="-176" on="0"/>
        <pt x="304" y="-143" on="0"/>
        <pt x="287" y="-88" on="0"/>
      </contour>
    </TTGlyph>
    <TTGlyph name="braceright" xMin="66" yMin="-189" xMax="913" yMax="1735">
      <component glyphName="braceleft" x="1073" y="1546" scale="-0.99994" flags="0x4"/>
    </TTGlyph>
    <TTGlyph name="bracketleft" xMin="180" yMin="-190" xMax="871" yMax="1735">
      <contour>
        <pt x="180" y="-47" on="1"/>
        <pt x="180" y="-21" on="0"/>
        <pt x="182" y="33" on="0"/>
        <pt x="184" y="63" on="1"/>
        <pt x="189" y="155" on="0"/>
        <pt x="214" y="373" on="0"/>
        <pt x="248" y="613" on="0"/>
        <pt x="288" y="867" on="0"/>
        <pt x="328" y="1121" on="0"/>
        <pt x="366" y="1369" on="0"/>
        <pt x="381" y="1483" on="1"/>
        <pt x="390" y="1555" on="0"/>
        <pt x="420" y="1652" on="0"/>
        <pt x="472" y="1710" on="0"/>
        <pt x="552" y="1735" on="0"/>
        <pt x="611" y="1735" on="1"/>
        <pt x="644" y="1735" on="0"/>
        <pt x="733" y="1720" on="0"/>
        <pt x="774" y="1711" on="1"/>
        <pt x="822" y="1700" on="0"/>
        <pt x="871" y="1688" on="1"/>
        <pt x="858" y="1601" on="1"/>
        <pt x="583" y="1601" on="1"/>
        <pt x="360" y="-55" on="1"/>
        <pt x="426" y="-55" on="0"/>
        <pt x="569" y="-57" on="0"/>
        <pt x="635" y="-57" on="1"/>
        <pt x="632" y="-79" on="0"/>
        <pt x="627" y="-122" on="0"/>
        <pt x="625" y="-143" on="1"/>
        <pt x="591" y="-153" on="0"/>
        <pt x="528" y="-170" on="0"/>
        <pt x="463" y="-183" on="0"/>
        <pt x="393" y="-190" on="0"/>
        <pt x="352" y="-190" on="1"/>
        <pt x="305" y="-190" on="0"/>
        <pt x="239" y="-176" on="0"/>
        <pt x="198" y="-143" on="0"/>
        <pt x="180" y="-88" on="0"/>
      </contour>
    </TTGlyph>
    <TTGlyph name="bracketright" xMin="45" yMin="-179" xMax="736" yMax="1745">
      <component glyphName="bracketleft" x="916" y="1556" scale="-0.99994" flags="0x4"/>
    </TTGlyph>
    <TTGlyph name="breve" xMin="49" yMin="1300" xMax="687" yMax="1651">
      <contour>
        <pt x="348" y="1300" on="1"/>
        <pt x="267" y="1300" on="0"/>
        <pt x="153" y="1359" on="0"/>
        <pt x="82" y="1454" on="0"/>
        <pt x="49" y="1572" on="0"/>
        <pt x="49" y="1632" on="1"/>
        <pt x="49" y="1637" on="0"/>
        <pt x="49" y="1646" on="0"/>
        <pt x="50" y="1651" on="1"/>
        <pt x="185" y="1651" on="1"/>
        <pt x="186" y="1644" on="0"/>
        <pt x="187" y="1628" on="0"/>
        <pt x="189" y="1620" on="1"/>
        <pt x="195" y="1594" on="0"/>
        <pt x="212" y="1534" on="0"/>
        <pt x="248" y="1482" on="0"/>
        <pt x="308" y="1447" on="0"/>
        <pt x="355" y="1447" on="1"/>
        <pt x="410" y="1447" on="0"/>
        <pt x="480" y="1494" on="0"/>
        <pt x="523" y="1559" on="0"/>
        <pt x="546" y="1628" on="0"/>
        <pt x="555" y="1651" on="1"/>
        <pt x="687" y="1651" on="1"/>
        <pt x="687" y="1634" on="0"/>
        <pt x="684" y="1618" on="1"/>
        <pt x="676" y="1560" on="0"/>
        <pt x="624" y="1446" on="0"/>
        <pt x="540" y="1356" on="0"/>
        <pt x="422" y="1300" on="0"/>
      </contour>
    </TTGlyph>
    <TTGlyph name="breve.cap" xMin="49" yMin="1629" xMax="687" yMax="1980">
      <contour>
        <pt x="348" y="1629" on="1"/>
        <pt x="267" y="1629" on="0"/>
        <pt x="153" y="1688" on="0"/>
        <pt x="82" y="1783" on="0"/>
        <pt x="49" y="1901" on="0"/>
        <pt x="49" y="1961" on="1"/>
        <pt x="49" y="1966" on="0"/>
        <pt x="49" y="1975" on="0"/>
        <pt x="50" y="1980" on="1"/>
        <pt x="185" y="1980" on="1"/>
        <pt x="186" y="1973" on="0"/>
        <pt x="187" y="1957" on="0"/>
        <pt x="189" y="1949" on="1"/>
        <pt x="195" y="1923" on="0"/>
        <pt x="212" y="1863" on="0"/>
        <pt x="248" y="1811" on="0"/>
        <pt x="308" y="1776" on="0"/>
        <pt x="355" y="1776" on="1"/>
        <pt x="410" y="1776" on="0"/>
        <pt x="480" y="1823" on="0"/>
        <pt x="523" y="1888" on="0"/>
        <pt x="546" y="1957" on="0"/>
        <pt x="555" y="1980" on="1"/>
        <pt x="687" y="1980" on="1"/>
        <pt x="687" y="1963" on="0"/>
        <pt x="684" y="1947" on="1"/>
        <pt x="676" y="1889" on="0"/>
        <pt x="624" y="1775" on="0"/>
        <pt x="540" y="1685" on="0"/>
        <pt x="422" y="1629" on="0"/>
      </contour>
    </TTGlyph>
    <TTGlyph name="brokenbar" xMin="354" yMin="-186" xMax="527" yMax="1780">
      <contour>
        <pt x="354" y="1780" on="1"/>
        <pt x="527" y="1780" on="1"/>
        <pt x="527" y="886" on="1"/>
        <pt x="354" y="886" on="1"/>
      </contour>
      <contour>
        <pt x="354" y="708" on="1"/>
        <pt x="527" y="708" on="1"/>
        <pt x="527" y="-186" on="1"/>
        <pt x="354" y="-186" on="1"/>
      </contour>
    </TTGlyph>
    <TTGlyph name="bullet" xMin="233" yMin="507" xMax="660" yMax="939">
      <contour>
        <pt x="409" y="507" on="1"/>
        <pt x="371" y="507" on="0"/>
        <pt x="307" y="535" on="0"/>
        <pt x="260" y="583" on="0"/>
        <pt x="233" y="647" on="0"/>
        <pt x="233" y="683" on="1"/>
        <pt x="233" y="728" on="0"/>
        <pt x="271" y="819" on="0"/>
        <pt x="339" y="893" on="0"/>
        <pt x="431" y="939" on="0"/>
        <pt x="484" y="939" on="1"/>
        <pt x="522" y="939" on="0"/>
        <pt x="586" y="913" on="0"/>
        <pt x="633" y="867" on="0"/>
        <pt x="660" y="804" on="0"/>
        <pt x="660" y="767" on="1"/>
        <pt x="660" y="722" on="0"/>
        <pt x="625" y="629" on="0"/>
        <pt x="559" y="554" on="0"/>
        <pt x="466" y="507" on="0"/>
      </contour>
    </TTGlyph>
    <TTGlyph name="c" xMin="85" yMin="-16" xMax="885" yMax="1156">
      <contour>
        <pt x="85" y="434" on="1"/>
        <pt x="85" y="512" on="0"/>
        <pt x="117" y="680" on="0"/>
        <pt x="182" y="841" on="0"/>
        <pt x="279" y="984" on="0"/>
        <pt x="408" y="1093" on="0"/>
        <pt x="569" y="1156" on="0"/>
        <pt x="665" y="1156" on="1"/>
        <pt x="692" y="1156" on="0"/>
        <pt x="751" y="1152" on="0"/>
        <pt x="810" y="1143" on="0"/>
        <pt x="864" y="1129" on="0"/>
        <pt x="885" y="1118" on="1"/>
        <pt x="834" y="951" on="1"/>
        <pt x="795" y="983" on="0"/>
        <pt x="702" y="1009" on="0"/>
        <pt x="648" y="1009" on="1"/>
        <pt x="584" y="1009" on="0"/>
        <pt x="455" y="927" on="0"/>
        <pt x="350" y="779" on="0"/>
        <pt x="284" y="575" on="0"/>
        <pt x="284" y="454" on="1"/>
        <pt x="284" y="365" on="0"/>
        <pt x="311" y="242" on="0"/>
        <pt x="364" y="166" on="0"/>
        <pt x="442" y="133" on="0"/>
        <pt x="492" y="133" on="1"/>
        <pt x="558" y="133" on="0"/>
        <pt x="680" y="199" on="0"/>
        <pt x="755" y="272" on="1"/>
        <pt x="820" y="166" on="1"/>
        <pt x="801" y="140" on="0"/>
        <pt x="734" y="77" on="0"/>
        <pt x="642" y="21" on="0"/>
        <pt x="528" y="-16" on="0"/>
        <pt x="462" y="-16" on="1"/>
        <pt x="370" y="-16" on="0"/>
        <pt x="229" y="45" on="0"/>
        <pt x="134" y="161" on="0"/>
        <pt x="85" y="328" on="0"/>
      </contour>
    </TTGlyph>
    <TTGlyph name="cacute" xMin="85" yMin="-16" xMax="1020" yMax="1733">
      <component glyphName="acute" x="492" y="0" flags="0x4"/>
      <component glyphName="c" x="0" y="0" flags="0x4"/>
    </TTGlyph>
    <TTGlyph name="caron" xMin="80" yMin="1285" xMax="814" yMax="1680">
      <contour>
        <pt x="80" y="1592" on="1"/>
        <pt x="167" y="1680" on="1"/>
        <pt x="419" y="1436" on="1"/>
        <pt x="732" y="1680" on="1"/>
        <pt x="814" y="1593" on="1"/>
        <pt x="499" y="1285" on="1"/>
        <pt x="323" y="1285" on="1"/>
      </contour>
    </TTGlyph>
    <TTGlyph name="caron.cap" xMin="50" yMin="1627" xMax="784" yMax="2013">
      <contour>
        <pt x="50" y="1925" on="1"/>
        <pt x="137" y="2013" on="1"/>
        <pt x="389" y="1778" on="1"/>
        <pt x="702" y="2013" on="1"/>
        <pt x="784" y="1926" on="1"/>
        <pt x="469" y="1627" on="1"/>
        <pt x="293" y="1627" on="1"/>
      </contour>
    </TTGlyph>
    <TTGlyph name="caronvertical" xMin="197" yMin="1035" xMax="421" yMax="1680">
      <contour>
        <pt x="203" y="1075" on="1"/>
        <pt x="197" y="1100" on="1"/>
        <pt x="214" y="1170" on="0"/>
        <pt x="238" y="1330" on="0"/>
        <pt x="238" y="1411" on="1"/>
        <pt x="238" y="1439" on="0"/>
        <pt x="234" y="1497" on="0"/>
        <pt x="226" y="1549" on="0"/>
        <pt x="214" y="1591" on="0"/>
        <pt x="207" y="1602" on="1"/>
        <pt x="216" y="1634" on="1"/>
        <pt x="393" y="1680" on="1"/>
        <pt x="411" y="1637" on="0"/>
        <pt x="421" y="1523" on="0"/>
        <pt x="421" y="1450" on="1"/>
        <pt x="421" y="1401" on="0"/>
        <pt x="404" y="1290" on="0"/>
        <pt x="374" y="1179" on="0"/>
        <pt x="330" y="1076" on="0"/>
        <pt x="303" y="1035" on="1"/>
      </contour>
    </TTGlyph>
    <TTGlyph name="ccaron" xMin="85" yMin="-16" xMax="1078" yMax="1680">
      <component glyphName="caron" x="264" y="0" flags="0x4"/>
      <component glyphName="c" x="0" y="0" flags="0x4"/>
    </TTGlyph>
    <TTGlyph name="ccedilla" xMin="85" yMin="-464" xMax="885" yMax="1156">
      <contour>
        <pt x="157" y="-285" on="1"/>
        <pt x="183" y="-299" on="0"/>
        <pt x="228" y="-299" on="1"/>
        <pt x="259" y="-299" on="0"/>
        <pt x="316" y="-285" on="0"/>
        <pt x="360" y="-245" on="0"/>
        <pt x="387" y="-175" on="0"/>
        <pt x="387" y="-119" on="1"/>
        <pt x="387" y="-96" on="0"/>
        <pt x="388" y="-36" on="0"/>
        <pt x="387" y="-10" on="1"/>
        <pt x="238" y="13" on="0"/>
        <pt x="85" y="244" on="0"/>
        <pt x="85" y="434" on="1"/>
        <pt x="85" y="512" on="0"/>
        <pt x="117" y="680" on="0"/>
        <pt x="182" y="841" on="0"/>
        <pt x="279" y="984" on="0"/>
        <pt x="408" y="1093" on="0"/>
        <pt x="569" y="1156" on="0"/>
        <pt x="665" y="1156" on="1"/>
        <pt x="692" y="1156" on="0"/>
        <pt x="751" y="1152" on="0"/>
        <pt x="810" y="1143" on="0"/>
        <pt x="864" y="1129" on="0"/>
        <pt x="885" y="1118" on="1"/>
        <pt x="834" y="951" on="1"/>
        <pt x="795" y="983" on="0"/>
        <pt x="702" y="1009" on="0"/>
        <pt x="648" y="1009" on="1"/>
        <pt x="584" y="1009" on="0"/>
        <pt x="455" y="927" on="0"/>
        <pt x="350" y="779" on="0"/>
        <pt x="284" y="575" on="0"/>
        <pt x="284" y="454" on="1"/>
        <pt x="284" y="365" on="0"/>
        <pt x="311" y="242" on="0"/>
        <pt x="364" y="166" on="0"/>
        <pt x="442" y="133" on="0"/>
        <pt x="492" y="133" on="1"/>
        <pt x="558" y="133" on="0"/>
        <pt x="680" y="199" on="0"/>
        <pt x="755" y="272" on="1"/>
        <pt x="820" y="166" on="1"/>
        <pt x="803" y="144" on="0"/>
        <pt x="749" y="90" on="0"/>
        <pt x="676" y="40" on="0"/>
        <pt x="586" y="0" on="0"/>
        <pt x="534" y="-9" on="1"/>
        <pt x="545" y="-38" on="0"/>
        <pt x="558" y="-117" on="0"/>
        <pt x="558" y="-165" on="1"/>
        <pt x="558" y="-250" on="0"/>
        <pt x="513" y="-364" on="0"/>
        <pt x="436" y="-434" on="0"/>
        <pt x="335" y="-464" on="0"/>
        <pt x="280" y="-464" on="1"/>
        <pt x="260" y="-464" on="0"/>
        <pt x="215" y="-460" on="0"/>
        <pt x="174" y="-452" on="0"/>
        <pt x="140" y="-442" on="0"/>
        <pt x="132" y="-436" on="1"/>
        <pt x="157" y="-285" on="1"/>
      </contour>
    </TTGlyph>
    <TTGlyph name="ccircumflex" xMin="85" yMin="-16" xMax="1021" yMax="1690">
      <component glyphName="circumflex" x="237" y="0" flags="0x4"/>
      <component glyphName="c" x="0" y="0" flags="0x4"/>
    </TTGlyph>
    <TTGlyph name="cdotaccent" xMin="85" yMin="-16" xMax="885" yMax="1651">
      <component glyphName="c" x="0" y="0" flags="0x204"/>
      <component glyphName="dotaccent" x="486" y="0" flags="0x4"/>
    </TTGlyph>
    <TTGlyph name="cedilla" xMin="4" yMin="-464" xMax="430" yMax="34">
      <contour>
        <pt x="332" y="34" on="1"/>
        <pt x="385" y="30" on="1"/>
        <pt x="406" y="1" on="0"/>
        <pt x="430" y="-99" on="0"/>
        <pt x="430" y="-165" on="1"/>
        <pt x="430" y="-250" on="0"/>
        <pt x="385" y="-364" on="0"/>
        <pt x="308" y="-434" on="0"/>
        <pt x="207" y="-464" on="0"/>
        <pt x="152" y="-464" on="1"/>
        <pt x="132" y="-464" on="0"/>
        <pt x="87" y="-460" on="0"/>
        <pt x="46" y="-452" on="0"/>
        <pt x="12" y="-442" on="0"/>
        <pt x="4" y="-436" on="1"/>
        <pt x="29" y="-285" on="1"/>
        <pt x="55" y="-299" on="0"/>
        <pt x="100" y="-299" on="1"/>
        <pt x="131" y="-299" on="0"/>
        <pt x="188" y="-285" on="0"/>
        <pt x="232" y="-245" on="0"/>
        <pt x="259" y="-175" on="0"/>
        <pt x="259" y="-119" on="1"/>
        <pt x="259" y="-102" on="0"/>
        <pt x="260" y="-60" on="0"/>
        <pt x="260" y="-19" on="0"/>
        <pt x="258" y="18" on="0"/>
        <pt x="255" y="30" on="1"/>
      </contour>
    </TTGlyph>
    <TTGlyph name="cent" xMin="137" yMin="-215" xMax="937" yMax="1358">
      <contour>
        <pt x="400" y="-2" on="1"/>
        <pt x="270" y="31" on="0"/>
        <pt x="137" y="256" on="0"/>
        <pt x="137" y="434" on="1"/>
        <pt x="137" y="504" on="0"/>
        <pt x="163" y="653" on="0"/>
        <pt x="215" y="799" on="0"/>
        <pt x="292" y="933" on="0"/>
        <pt x="395" y="1044" on="0"/>
        <pt x="524" y="1124" on="0"/>
        <pt x="601" y="1142" on="1"/>
        <pt x="655" y="1358" on="1"/>
        <pt x="805" y="1358" on="1"/>
        <pt x="753" y="1155" on="1"/>
        <pt x="802" y="1153" on="0"/>
        <pt x="901" y="1136" on="0"/>
        <pt x="937" y="1118" on="1"/>
        <pt x="886" y="951" on="1"/>
        <pt x="847" y="983" on="0"/>
        <pt x="754" y="1009" on="0"/>
        <pt x="700" y="1009" on="1"/>
        <pt x="636" y="1009" on="0"/>
        <pt x="507" y="927" on="0"/>
        <pt x="402" y="779" on="0"/>
        <pt x="336" y="575" on="0"/>
        <pt x="336" y="454" on="1"/>
        <pt x="336" y="365" on="0"/>
        <pt x="363" y="242" on="0"/>
        <pt x="416" y="166" on="0"/>
        <pt x="494" y="133" on="0"/>
        <pt x="544" y="133" on="1"/>
        <pt x="610" y="133" on="0"/>
        <pt x="732" y="199" on="0"/>
        <pt x="807" y="272" on="1"/>
        <pt x="872" y="166" on="1"/>
        <pt x="854" y="142" on="0"/>
        <pt x="793" y="83" on="0"/>
        <pt x="710" y="30" on="0"/>
        <pt x="608" y="-9" on="0"/>
        <pt x="548" y="-14" on="1"/>
        <pt x="511" y="-215" on="1"/>
        <pt x="361" y="-215" on="1"/>
        <pt x="400" y="-2" on="1"/>
      </contour>
    </TTGlyph>
    <TTGlyph name="circumflex" xMin="89" yMin="1239" xMax="784" yMax="1690">
      <contour>
        <pt x="89" y="1316" on="1"/>
        <pt x="416" y="1690" on="1"/>
        <pt x="594" y="1690" on="1"/>
        <pt x="784" y="1316" on="1"/>
        <pt x="690" y="1248" on="1"/>
        <pt x="479" y="1512" on="1"/>
        <pt x="166" y="1239" on="1"/>
      </contour>
    </TTGlyph>
    <TTGlyph name="circumflex.cap" xMin="49" yMin="1585" xMax="744" yMax="2006">
      <contour>
        <pt x="49" y="1662" on="1"/>
        <pt x="376" y="2006" on="1"/>
        <pt x="554" y="2006" on="1"/>
        <pt x="744" y="1662" on="1"/>
        <pt x="650" y="1594" on="1"/>
        <pt x="439" y="1828" on="1"/>
        <pt x="126" y="1585" on="1"/>
      </contour>
    </TTGlyph>
    <TTGlyph name="colon" xMin="68" yMin="-22" xMax="437" yMax="1059">
      <component glyphName="period" x="-21" y="0" flags="0x204"/>
      <component glyphName="period" x="72" y="809" flags="0x4"/>
    </TTGlyph>
    <TTGlyph name="colonmonetary" xMin="147" yMin="-353" xMax="1297" yMax="1815">
      <contour>
        <pt x="447" y="39" on="1"/>
        <pt x="367" y="80" on="0"/>
        <pt x="253" y="214" on="0"/>
        <pt x="181" y="377" on="0"/>
        <pt x="147" y="560" on="0"/>
        <pt x="147" y="650" on="1"/>
        <pt x="147" y="820" on="0"/>
        <pt x="235" y="1109" on="0"/>
        <pt x="394" y="1333" on="0"/>
        <pt x="615" y="1486" on="0"/>
        <pt x="749" y="1520" on="1"/>
        <pt x="809" y="1815" on="1"/>
        <pt x="926" y="1815" on="1"/>
        <pt x="870" y="1541" on="1"/>
        <pt x="893" y="1543" on="0"/>
        <pt x="938" y="1546" on="0"/>
        <pt x="961" y="1546" on="1"/>
        <pt x="973" y="1546" on="0"/>
        <pt x="996" y="1546" on="0"/>
        <pt x="1007" y="1545" on="1"/>
        <pt x="1062" y="1815" on="1"/>
        <pt x="1178" y="1815" on="1"/>
        <pt x="1121" y="1534" on="1"/>
        <pt x="1177" y="1526" on="0"/>
        <pt x="1263" y="1503" on="0"/>
        <pt x="1297" y="1492" on="1"/>
        <pt x="1233" y="1329" on="1"/>
        <pt x="1219" y="1343" on="0"/>
        <pt x="1147" y="1371" on="0"/>
        <pt x="1090" y="1381" on="1"/>
        <pt x="837" y="140" on="1"/>
        <pt x="886" y="145" on="0"/>
        <pt x="967" y="164" on="0"/>
        <pt x="1038" y="190" on="0"/>
        <pt x="1100" y="223" on="0"/>
        <pt x="1129" y="241" on="1"/>
        <pt x="1186" y="112" on="1"/>
        <pt x="1135" y="62" on="0"/>
        <pt x="938" y="-1" on="0"/>
        <pt x="806" y="-12" on="1"/>
        <pt x="736" y="-353" on="1"/>
        <pt x="619" y="-353" on="1"/>
        <pt x="688" y="-16" on="1"/>
        <pt x="687" y="-16" on="1"/>
        <pt x="615" y="-16" on="0"/>
        <pt x="555" y="-1" on="1"/>
        <pt x="483" y="-353" on="1"/>
        <pt x="367" y="-353" on="1"/>
      </contour>
      <contour>
        <pt x="587" y="157" on="1"/>
        <pt x="645" y="134" on="0"/>
        <pt x="717" y="134" on="1"/>
        <pt x="719" y="134" on="1"/>
        <pt x="976" y="1393" on="1"/>
        <pt x="965" y="1394" on="0"/>
        <pt x="941" y="1394" on="0"/>
        <pt x="929" y="1394" on="1"/>
        <pt x="882" y="1394" on="0"/>
        <pt x="839" y="1388" on="1"/>
      </contour>
      <contour>
        <pt x="715" y="1355" on="1"/>
        <pt x="550" y="1288" on="0"/>
        <pt x="369" y="945" on="0"/>
        <pt x="364" y="681" on="1"/>
        <pt x="362" y="609" on="0"/>
        <pt x="374" y="476" on="0"/>
        <pt x="403" y="360" on="0"/>
        <pt x="451" y="262" on="0"/>
        <pt x="485" y="226" on="1"/>
      </contour>
    </TTGlyph>
    <TTGlyph name="comma" xMin="-12" yMin="-501" xMax="373" yMax="265">
      <contour>
        <pt x="76" y="137" on="1"/>
        <pt x="182" y="265" on="1"/>
        <pt x="239" y="243" on="0"/>
        <pt x="313" y="171" on="0"/>
        <pt x="356" y="86" on="0"/>
        <pt x="373" y="-3" on="0"/>
        <pt x="373" y="-41" on="1"/>
        <pt x="373" y="-124" on="0"/>
        <pt x="327" y="-270" on="0"/>
        <pt x="244" y="-389" on="0"/>
        <pt x="130" y="-476" on="0"/>
        <pt x="61" y="-501" on="1"/>
        <pt x="-12" y="-412" on="1"/>
        <pt x="-9" y="-391" on="1"/>
        <pt x="28" y="-373" on="0"/>
        <pt x="92" y="-315" on="0"/>
        <pt x="139" y="-241" on="0"/>
        <pt x="165" y="-155" on="0"/>
        <pt x="165" y="-108" on="1"/>
        <pt x="165" y="-75" on="0"/>
        <pt x="152" y="-12" on="0"/>
        <pt x="127" y="40" on="0"/>
        <pt x="91" y="76" on="0"/>
        <pt x="69" y="83" on="1"/>
      </contour>
    </TTGlyph>
    <TTGlyph name="commaaccent" xMin="25" yMin="-560" xMax="288" yMax="-70">
      <contour>
        <pt x="180" y="-70" on="1"/>
        <pt x="208" y="-78" on="0"/>
        <pt x="249" y="-116" on="0"/>
        <pt x="276" y="-169" on="0"/>
        <pt x="288" y="-234" on="0"/>
        <pt x="288" y="-270" on="1"/>
        <pt x="288" y="-332" on="0"/>
        <pt x="253" y="-432" on="0"/>
        <pt x="199" y="-507" on="0"/>
        <pt x="135" y="-553" on="0"/>
        <pt x="106" y="-560" on="1"/>
        <pt x="26" y="-510" on="1"/>
        <pt x="29" y="-484" on="1"/>
        <pt x="47" y="-470" on="0"/>
        <pt x="73" y="-441" on="0"/>
        <pt x="89" y="-406" on="0"/>
        <pt x="97" y="-363" on="0"/>
        <pt x="97" y="-334" on="1"/>
        <pt x="97" y="-317" on="0"/>
        <pt x="86" y="-281" on="0"/>
        <pt x="66" y="-250" on="0"/>
        <pt x="40" y="-228" on="0"/>
        <pt x="25" y="-225" on="1"/>
        <pt x="31" y="-171" on="1"/>
      </contour>
    </TTGlyph>
    <TTGlyph name="copyright" xMin="194" yMin="82" xMax="1935" yMax="1840">
      <contour>
        <pt x="194" y="963" on="1"/>
        <pt x="194" y="1084" on="0"/>
        <pt x="255" y="1309" on="0"/>
        <pt x="368" y="1504" on="0"/>
        <pt x="526" y="1664" on="0"/>
        <pt x="719" y="1778" on="0"/>
        <pt x="942" y="1840" on="0"/>
        <pt x="1064" y="1840" on="1"/>
        <pt x="1186" y="1840" on="0"/>
        <pt x="1409" y="1778" on="0"/>
        <pt x="1603" y="1664" on="0"/>
        <pt x="1761" y="1504" on="0"/>
        <pt x="1873" y="1309" on="0"/>
        <pt x="1935" y="1084" on="0"/>
        <pt x="1935" y="963" on="1"/>
        <pt x="1935" y="841" on="0"/>
        <pt x="1873" y="616" on="0"/>
        <pt x="1761" y="420" on="0"/>
        <pt x="1603" y="259" on="0"/>
        <pt x="1409" y="145" on="0"/>
        <pt x="1185" y="82" on="0"/>
        <pt x="1064" y="82" on="1"/>
        <pt x="943" y="82" on="0"/>
        <pt x="719" y="145" on="0"/>
        <pt x="526" y="259" on="0"/>
        <pt x="368" y="420" on="0"/>
        <pt x="255" y="616" on="0"/>
        <pt x="194" y="841" on="0"/>
      </contour>
      <contour>
        <pt x="336" y="963" on="1"/>
        <pt x="336" y="859" on="0"/>
        <pt x="386" y="668" on="0"/>
        <pt x="478" y="500" on="0"/>
        <pt x="608" y="363" on="0"/>
        <pt x="770" y="265" on="0"/>
        <pt x="959" y="211" on="0"/>
        <pt x="1064" y="211" on="1"/>
        <pt x="1169" y="211" on="0"/>
        <pt x="1358" y="265" on="0"/>
        <pt x="1520" y="363" on="0"/>
        <pt x="1650" y="500" on="0"/>
        <pt x="1742" y="668" on="0"/>
        <pt x="1792" y="859" on="0"/>
        <pt x="1792" y="963" on="1"/>
        <pt x="1792" y="1066" on="0"/>
        <pt x="1742" y="1258" on="0"/>
        <pt x="1650" y="1425" on="0"/>
        <pt x="1520" y="1562" on="0"/>
        <pt x="1358" y="1660" on="0"/>
        <pt x="1169" y="1714" on="0"/>
        <pt x="1064" y="1714" on="1"/>
        <pt x="959" y="1714" on="0"/>
        <pt x="770" y="1660" on="0"/>
        <pt x="608" y="1562" on="0"/>
        <pt x="478" y="1425" on="0"/>
        <pt x="386" y="1258" on="0"/>
        <pt x="336" y="1066" on="0"/>
      </contour>
      <contour>
        <pt x="621" y="956" on="1"/>
        <pt x="621" y="1061" on="0"/>
        <pt x="685" y="1242" on="0"/>
        <pt x="811" y="1374" on="0"/>
        <pt x="996" y="1450" on="0"/>
        <pt x="1117" y="1450" on="1"/>
        <pt x="1165" y="1450" on="0"/>
        <pt x="1242" y="1438" on="0"/>
        <pt x="1300" y="1421" on="0"/>
        <pt x="1342" y="1401" on="0"/>
        <pt x="1355" y="1394" on="1"/>
        <pt x="1323" y="1230" on="1"/>
        <pt x="1281" y="1257" on="0"/>
        <pt x="1173" y="1293" on="0"/>
        <pt x="1098" y="1293" on="1"/>
        <pt x="1029" y="1293" on="0"/>
        <pt x="923" y="1243" on="0"/>
        <pt x="852" y="1156" on="0"/>
        <pt x="815" y="1038" on="0"/>
        <pt x="815" y="971" on="1"/>
        <pt x="815" y="890" on="0"/>
        <pt x="855" y="765" on="0"/>
        <pt x="928" y="680" on="0"/>
        <pt x="1028" y="636" on="0"/>
        <pt x="1088" y="636" on="1"/>
        <pt x="1127" y="636" on="0"/>
        <pt x="1200" y="647" on="0"/>
        <pt x="1264" y="665" on="0"/>
        <pt x="1316" y="686" on="0"/>
        <pt x="1335" y="697" on="1"/>
        <pt x="1380" y="573" on="1"/>
        <pt x="1356" y="553" on="0"/>
        <pt x="1287" y="518" on="0"/>
        <pt x="1205" y="493" on="0"/>
        <pt x="1111" y="479" on="0"/>
        <pt x="1061" y="479" on="1"/>
        <pt x="957" y="479" on="0"/>
        <pt x="794" y="558" on="0"/>
        <pt x="681" y="691" on="0"/>
        <pt x="621" y="863" on="0"/>
      </contour>
    </TTGlyph>
    <TTGlyph name="currency" xMin="229" yMin="130" xMax="1341" yMax="1249">
      <contour>
        <pt x="424" y="435" on="1"/>
        <pt x="385" y="489" on="0"/>
        <pt x="342" y="618" on="0"/>
        <pt x="342" y="690" on="1"/>
        <pt x="342" y="761" on="0"/>
        <pt x="384" y="888" on="0"/>
        <pt x="422" y="942" on="1"/>
        <pt x="229" y="1135" on="1"/>
        <pt x="342" y="1249" on="1"/>
        <pt x="536" y="1053" on="1"/>
        <pt x="589" y="1088" on="0"/>
        <pt x="713" y="1128" on="0"/>
        <pt x="782" y="1128" on="1"/>
        <pt x="854" y="1128" on="0"/>
        <pt x="984" y="1085" on="0"/>
        <pt x="1038" y="1047" on="1"/>
        <pt x="1228" y="1236" on="1"/>
        <pt x="1341" y="1122" on="1"/>
        <pt x="1150" y="931" on="1"/>
        <pt x="1184" y="879" on="0"/>
        <pt x="1222" y="757" on="0"/>
        <pt x="1222" y="690" on="1"/>
        <pt x="1222" y="620" on="0"/>
        <pt x="1181" y="495" on="0"/>
        <pt x="1145" y="442" on="1"/>
        <pt x="1339" y="248" on="1"/>
        <pt x="1225" y="135" on="1"/>
        <pt x="1031" y="328" on="1"/>
        <pt x="977" y="292" on="0"/>
        <pt x="851" y="252" on="0"/>
        <pt x="782" y="252" on="1"/>
        <pt x="714" y="252" on="0"/>
        <pt x="592" y="289" on="0"/>
        <pt x="540" y="324" on="1"/>
        <pt x="346" y="130" on="1"/>
        <pt x="232" y="243" on="1"/>
      </contour>
      <contour>
        <pt x="490" y="690" on="1"/>
        <pt x="490" y="627" on="0"/>
        <pt x="536" y="516" on="0"/>
        <pt x="615" y="433" on="0"/>
        <pt x="721" y="385" on="0"/>
        <pt x="782" y="385" on="1"/>
        <pt x="843" y="385" on="0"/>
        <pt x="949" y="433" on="0"/>
        <pt x="1028" y="516" on="0"/>
        <pt x="1074" y="627" on="0"/>
        <pt x="1074" y="690" on="1"/>
        <pt x="1074" y="753" on="0"/>
        <pt x="1028" y="864" on="0"/>
        <pt x="949" y="947" on="0"/>
        <pt x="843" y="995" on="0"/>
        <pt x="782" y="995" on="1"/>
        <pt x="721" y="995" on="0"/>
        <pt x="615" y="947" on="0"/>
        <pt x="536" y="864" on="0"/>
        <pt x="490" y="753" on="0"/>
      </contour>
    </TTGlyph>
    <TTGlyph name="d" xMin="79" yMin="-16" xMax="1133" yMax="1638">
      <contour>
        <pt x="389" y="-16" on="1"/>
        <pt x="309" y="-16" on="0"/>
        <pt x="193" y="46" on="0"/>
        <pt x="116" y="159" on="0"/>
        <pt x="79" y="318" on="0"/>
        <pt x="79" y="416" on="1"/>
        <pt x="79" y="494" on="0"/>
        <pt x="112" y="665" on="0"/>
        <pt x="181" y="829" on="0"/>
        <pt x="287" y="978" on="0"/>
        <pt x="431" y="1090" on="0"/>
        <pt x="614" y="1156" on="0"/>
        <pt x="727" y="1156" on="1"/>
        <pt x="760" y="1156" on="0"/>
        <pt x="834" y="1148" on="0"/>
        <pt x="870" y="1141" on="1"/>
        <pt x="938" y="1638" on="1"/>
        <pt x="1133" y="1638" on="1"/>
        <pt x="912" y="0" on="1"/>
        <pt x="738" y="0" on="1"/>
        <pt x="754" y="194" on="1"/>
        <pt x="725" y="155" on="0"/>
        <pt x="648" y="80" on="0"/>
        <pt x="555" y="20" on="0"/>
        <pt x="448" y="-16" on="0"/>
      </contour>
      <contour>
        <pt x="424" y="136" on="1"/>
        <pt x="478" y="136" on="0"/>
        <pt x="580" y="186" on="0"/>
        <pt x="670" y="261" on="0"/>
        <pt x="743" y="350" on="0"/>
        <pt x="768" y="389" on="1"/>
        <pt x="850" y="988" on="1"/>
        <pt x="817" y="999" on="0"/>
        <pt x="738" y="1013" on="0"/>
        <pt x="696" y="1013" on="1"/>
        <pt x="625" y="1013" on="0"/>
        <pt x="507" y="961" on="0"/>
        <pt x="415" y="873" on="0"/>
        <pt x="347" y="758" on="0"/>
        <pt x="303" y="630" on="0"/>
        <pt x="281" y="499" on="0"/>
        <pt x="281" y="440" on="1"/>
        <pt x="281" y="279" on="0"/>
        <pt x="358" y="136" on="0"/>
      </contour>
    </TTGlyph>
    <TTGlyph name="dagger" xMin="135" yMin="151" xMax="875" yMax="1646">
      <contour>
        <pt x="388" y="1008" on="1"/>
        <pt x="414" y="1127" on="1"/>
        <pt x="135" y="1127" on="1"/>
        <pt x="157" y="1277" on="1"/>
        <pt x="457" y="1277" on="1"/>
        <pt x="459" y="1469" on="1"/>
        <pt x="483" y="1646" on="1"/>
        <pt x="673" y="1646" on="1"/>
        <pt x="643" y="1469" on="1"/>
        <pt x="582" y="1277" on="1"/>
        <pt x="875" y="1277" on="1"/>
        <pt x="854" y="1127" on="1"/>
        <pt x="583" y="1127" on="1"/>
        <pt x="577" y="1008" on="1"/>
        <pt x="412" y="151" on="1"/>
        <pt x="295" y="151" on="1"/>
      </contour>
    </TTGlyph>
    <TTGlyph name="daggerdbl" xMin="135" yMin="-51" xMax="875" yMax="1646">
      <contour>
        <pt x="324" y="510" on="1"/>
        <pt x="353" y="629" on="1"/>
        <pt x="135" y="629" on="1"/>
        <pt x="159" y="779" on="1"/>
        <pt x="388" y="779" on="1"/>
        <pt x="387" y="981" on="1"/>
        <pt x="427" y="1127" on="1"/>
        <pt x="178" y="1127" on="1"/>
        <pt x="198" y="1277" on="1"/>
        <pt x="469" y="1277" on="1"/>
        <pt x="470" y="1469" on="1"/>
        <pt x="495" y="1646" on="1"/>
        <pt x="685" y="1646" on="1"/>
        <pt x="655" y="1469" on="1"/>
        <pt x="594" y="1277" on="1"/>
        <pt x="875" y="1277" on="1"/>
        <pt x="854" y="1127" on="1"/>
        <pt x="595" y="1127" on="1"/>
        <pt x="589" y="981" on="1"/>
        <pt x="530" y="779" on="1"/>
        <pt x="755" y="779" on="1"/>
        <pt x="734" y="629" on="1"/>
        <pt x="520" y="629" on="1"/>
        <pt x="513" y="510" on="1"/>
        <pt x="395" y="-51" on="1"/>
        <pt x="280" y="-51" on="1"/>
      </contour>
    </TTGlyph>
    <TTGlyph name="dcaron" xMin="79" yMin="-16" xMax="1447" yMax="1650">
      <component glyphName="d" x="0" y="0" flags="0x4"/>
      <component glyphName="caronvertical" x="1026" y="-30" flags="0x4"/>
    </TTGlyph>
    <TTGlyph name="dcroat" xMin="79" yMin="-16" xMax="1226" yMax="1638">
      <contour>
        <pt x="389" y="-16" on="1"/>
        <pt x="309" y="-16" on="0"/>
        <pt x="193" y="46" on="0"/>
        <pt x="116" y="159" on="0"/>
        <pt x="79" y="318" on="0"/>
        <pt x="79" y="416" on="1"/>
        <pt x="79" y="494" on="0"/>
        <pt x="112" y="665" on="0"/>
        <pt x="181" y="829" on="0"/>
        <pt x="287" y="978" on="0"/>
        <pt x="431" y="1090" on="0"/>
        <pt x="614" y="1156" on="0"/>
        <pt x="727" y="1156" on="1"/>
        <pt x="760" y="1156" on="0"/>
        <pt x="834" y="1148" on="0"/>
        <pt x="870" y="1141" on="1"/>
        <pt x="887" y="1262" on="1"/>
        <pt x="628" y="1262" on="1"/>
        <pt x="644" y="1392" on="1"/>
        <pt x="904" y="1392" on="1"/>
        <pt x="938" y="1638" on="1"/>
        <pt x="1133" y="1638" on="1"/>
        <pt x="1100" y="1392" on="1"/>
        <pt x="1226" y="1392" on="1"/>
        <pt x="1210" y="1262" on="1"/>
        <pt x="1082" y="1262" on="1"/>
        <pt x="912" y="0" on="1"/>
        <pt x="738" y="0" on="1"/>
        <pt x="754" y="194" on="1"/>
        <pt x="725" y="155" on="0"/>
        <pt x="648" y="80" on="0"/>
        <pt x="555" y="20" on="0"/>
        <pt x="448" y="-16" on="0"/>
      </contour>
      <contour>
        <pt x="424" y="136" on="1"/>
        <pt x="478" y="136" on="0"/>
        <pt x="580" y="186" on="0"/>
        <pt x="670" y="261" on="0"/>
        <pt x="743" y="350" on="0"/>
        <pt x="768" y="389" on="1"/>
        <pt x="850" y="988" on="1"/>
        <pt x="817" y="999" on="0"/>
        <pt x="738" y="1013" on="0"/>
        <pt x="696" y="1013" on="1"/>
        <pt x="625" y="1013" on="0"/>
        <pt x="507" y="961" on="0"/>
        <pt x="415" y="873" on="0"/>
        <pt x="347" y="758" on="0"/>
        <pt x="303" y="630" on="0"/>
        <pt x="281" y="499" on="0"/>
        <pt x="281" y="440" on="1"/>
        <pt x="281" y="279" on="0"/>
        <pt x="358" y="136" on="0"/>
      </contour>
    </TTGlyph>
    <TTGlyph name="degree" xMin="143" yMin="955" xMax="805" yMax="1600">
      <contour>
        <pt x="463" y="955" on="1"/>
        <pt x="394" y="955" on="0"/>
        <pt x="276" y="1006" on="0"/>
        <pt x="190" y="1094" on="0"/>
        <pt x="143" y="1212" on="0"/>
        <pt x="144" y="1278" on="1"/>
        <pt x="145" y="1347" on="0"/>
        <pt x="197" y="1464" on="0"/>
        <pt x="287" y="1551" on="0"/>
        <pt x="410" y="1600" on="0"/>
        <pt x="482" y="1600" on="1"/>
        <pt x="551" y="1600" on="0"/>
        <pt x="670" y="1549" on="0"/>
        <pt x="757" y="1462" on="0"/>
        <pt x="805" y="1344" on="0"/>
        <pt x="804" y="1278" on="1"/>
        <pt x="803" y="1209" on="0"/>
        <pt x="750" y="1090" on="0"/>
        <pt x="659" y="1004" on="0"/>
        <pt x="535" y="955" on="0"/>
      </contour>
      <contour>
        <pt x="470" y="1076" on="1"/>
        <pt x="512" y="1076" on="0"/>
        <pt x="582" y="1106" on="0"/>
        <pt x="634" y="1160" on="0"/>
        <pt x="663" y="1234" on="0"/>
        <pt x="664" y="1278" on="1"/>
        <pt x="665" y="1320" on="0"/>
        <pt x="636" y="1393" on="0"/>
        <pt x="586" y="1447" on="0"/>
        <pt x="517" y="1479" on="0"/>
        <pt x="477" y="1479" on="1"/>
        <pt x="435" y="1479" on="0"/>
        <pt x="365" y="1449" on="0"/>
        <pt x="314" y="1395" on="0"/>
        <pt x="285" y="1321" on="0"/>
        <pt x="284" y="1278" on="1"/>
        <pt x="283" y="1236" on="0"/>
        <pt x="311" y="1163" on="0"/>
        <pt x="362" y="1108" on="0"/>
        <pt x="430" y="1076" on="0"/>
      </contour>
    </TTGlyph>
    <TTGlyph name="dieresis" xMin="59" yMin="1388" xMax="748" yMax="1651">
      <contour>
        <pt x="595" y="1388" on="1"/>
        <pt x="571" y="1388" on="0"/>
        <pt x="528" y="1407" on="0"/>
        <pt x="496" y="1440" on="0"/>
        <pt x="479" y="1484" on="0"/>
        <pt x="480" y="1508" on="1"/>
        <pt x="481" y="1536" on="0"/>
        <pt x="506" y="1588" on="0"/>
        <pt x="546" y="1628" on="0"/>
        <pt x="598" y="1651" on="0"/>
        <pt x="625" y="1651" on="1"/>
        <pt x="653" y="1651" on="0"/>
        <pt x="700" y="1632" on="0"/>
        <pt x="732" y="1601" on="0"/>
        <pt x="748" y="1559" on="0"/>
        <pt x="747" y="1536" on="1"/>
        <pt x="746" y="1507" on="0"/>
        <pt x="721" y="1453" on="0"/>
        <pt x="679" y="1412" on="0"/>
        <pt x="625" y="1388" on="0"/>
      </contour>
      <contour>
        <pt x="175" y="1388" on="1"/>
        <pt x="151" y="1388" on="0"/>
        <pt x="108" y="1407" on="0"/>
        <pt x="76" y="1440" on="0"/>
        <pt x="59" y="1484" on="0"/>
        <pt x="60" y="1508" on="1"/>
        <pt x="61" y="1536" on="0"/>
        <pt x="86" y="1588" on="0"/>
        <pt x="126" y="1628" on="0"/>
        <pt x="178" y="1651" on="0"/>
        <pt x="205" y="1651" on="1"/>
        <pt x="233" y="1651" on="0"/>
        <pt x="280" y="1632" on="0"/>
        <pt x="312" y="1601" on="0"/>
        <pt x="328" y="1559" on="0"/>
        <pt x="327" y="1536" on="1"/>
        <pt x="326" y="1507" on="0"/>
        <pt x="301" y="1453" on="0"/>
        <pt x="259" y="1412" on="0"/>
        <pt x="205" y="1388" on="0"/>
      </contour>
    </TTGlyph>
    <TTGlyph name="dieresis.cap" xMin="57" yMin="1696" xMax="743" yMax="1959">
      <contour>
        <pt x="590" y="1696" on="1"/>
        <pt x="566" y="1696" on="0"/>
        <pt x="525" y="1715" on="0"/>
        <pt x="493" y="1747" on="0"/>
        <pt x="475" y="1790" on="0"/>
        <pt x="475" y="1815" on="1"/>
        <pt x="475" y="1844" on="0"/>
        <pt x="503" y="1896" on="0"/>
        <pt x="545" y="1936" on="0"/>
        <pt x="597" y="1959" on="0"/>
        <pt x="621" y="1959" on="1"/>
        <pt x="649" y="1959" on="0"/>
        <pt x="695" y="1940" on="0"/>
        <pt x="727" y="1909" on="0"/>
        <pt x="743" y="1867" on="0"/>
        <pt x="742" y="1843" on="1"/>
        <pt x="741" y="1814" on="0"/>
        <pt x="716" y="1761" on="0"/>
        <pt x="674" y="1720" on="0"/>
        <pt x="620" y="1696" on="0"/>
      </contour>
      <contour>
        <pt x="171" y="1696" on="1"/>
        <pt x="147" y="1696" on="0"/>
        <pt x="105" y="1715" on="0"/>
        <pt x="74" y="1748" on="0"/>
        <pt x="57" y="1791" on="0"/>
        <pt x="58" y="1815" on="1"/>
        <pt x="59" y="1844" on="0"/>
        <pt x="86" y="1896" on="0"/>
        <pt x="127" y="1936" on="0"/>
        <pt x="177" y="1959" on="0"/>
        <pt x="201" y="1959" on="1"/>
        <pt x="230" y="1959" on="0"/>
        <pt x="276" y="1940" on="0"/>
        <pt x="307" y="1909" on="0"/>
        <pt x="324" y="1867" on="0"/>
        <pt x="323" y="1843" on="1"/>
        <pt x="322" y="1814" on="0"/>
        <pt x="296" y="1761" on="0"/>
        <pt x="254" y="1720" on="0"/>
        <pt x="200" y="1696" on="0"/>
      </contour>
    </TTGlyph>
    <TTGlyph name="divide" xMin="241" yMin="252" xMax="1128" yMax="1298">
      <contour>
        <pt x="712" y="1026" on="1"/>
        <pt x="686" y="1026" on="0"/>
        <pt x="639" y="1043" on="0"/>
        <pt x="604" y="1075" on="0"/>
        <pt x="587" y="1122" on="0"/>
        <pt x="590" y="1151" on="1"/>
        <pt x="593" y="1182" on="0"/>
        <pt x="628" y="1236" on="0"/>
        <pt x="678" y="1276" on="0"/>
        <pt x="737" y="1298" on="0"/>
        <pt x="765" y="1298" on="1"/>
        <pt x="800" y="1298" on="0"/>
        <pt x="849" y="1278" on="0"/>
        <pt x="878" y="1244" on="0"/>
        <pt x="889" y="1198" on="0"/>
        <pt x="886" y="1173" on="1"/>
        <pt x="882" y="1140" on="0"/>
        <pt x="848" y="1086" on="0"/>
        <pt x="799" y="1047" on="0"/>
        <pt x="740" y="1026" on="0"/>
      </contour>
      <contour>
        <pt x="259" y="853" on="1"/>
        <pt x="1128" y="853" on="1"/>
        <pt x="1110" y="696" on="1"/>
        <pt x="241" y="696" on="1"/>
      </contour>
      <contour>
        <pt x="494" y="377" on="1"/>
        <pt x="498" y="408" on="0"/>
        <pt x="532" y="462" on="0"/>
        <pt x="581" y="501" on="0"/>
        <pt x="640" y="524" on="0"/>
        <pt x="669" y="524" on="1"/>
        <pt x="704" y="524" on="0"/>
        <pt x="752" y="504" on="0"/>
        <pt x="781" y="469" on="0"/>
        <pt x="792" y="424" on="0"/>
        <pt x="789" y="399" on="1"/>
        <pt x="785" y="366" on="0"/>
        <pt x="752" y="312" on="0"/>
        <pt x="704" y="273" on="0"/>
        <pt x="645" y="252" on="0"/>
        <pt x="616" y="252" on="1"/>
        <pt x="589" y="252" on="0"/>
        <pt x="542" y="269" on="0"/>
        <pt x="508" y="301" on="0"/>
        <pt x="491" y="348" on="0"/>
      </contour>
    </TTGlyph>
    <TTGlyph name="dollar" xMin="129" yMin="-230" xMax="1091" yMax="1729">
      <contour>
        <pt x="184" y="228" on="1"/>
        <pt x="198" y="213" on="0"/>
        <pt x="264" y="179" on="0"/>
        <pt x="351" y="150" on="0"/>
        <pt x="450" y="132" on="0"/>
        <pt x="497" y="132" on="1"/>
        <pt x="557" y="132" on="0"/>
        <pt x="671" y="158" on="0"/>
        <pt x="760" y="216" on="0"/>
        <pt x="815" y="307" on="0"/>
        <pt x="815" y="373" on="1"/>
        <pt x="815" y="415" on="0"/>
        <pt x="794" y="493" on="0"/>
        <pt x="743" y="569" on="0"/>
        <pt x="660" y="645" on="0"/>
        <pt x="598" y="686" on="1"/>
        <pt x="541" y="724" on="0"/>
        <pt x="429" y="812" on="0"/>
        <pt x="340" y="920" on="0"/>
        <pt x="284" y="1053" on="0"/>
        <pt x="283" y="1136" on="1"/>
        <pt x="281" y="1224" on="0"/>
        <pt x="337" y="1365" on="0"/>
        <pt x="441" y="1468" on="0"/>
        <pt x="586" y="1531" on="0"/>
        <pt x="673" y="1541" on="1"/>
        <pt x="703" y="1729" on="1"/>
        <pt x="884" y="1729" on="1"/>
        <pt x="853" y="1539" on="1"/>
        <pt x="945" y="1529" on="0"/>
        <pt x="1060" y="1482" on="0"/>
        <pt x="1091" y="1460" on="1"/>
        <pt x="1028" y="1309" on="1"/>
        <pt x="1004" y="1333" on="0"/>
        <pt x="936" y="1366" on="0"/>
        <pt x="862" y="1386" on="0"/>
        <pt x="789" y="1394" on="0"/>
        <pt x="761" y="1394" on="1"/>
        <pt x="716" y="1394" on="0"/>
        <pt x="620" y="1378" on="0"/>
        <pt x="539" y="1333" on="0"/>
        <pt x="484" y="1252" on="0"/>
        <pt x="481" y="1188" on="1"/>
        <pt x="478" y="1128" on="0"/>
        <pt x="503" y="1038" on="0"/>
        <pt x="560" y="961" on="0"/>
        <pt x="651" y="887" on="0"/>
        <pt x="715" y="844" on="1"/>
        <pt x="770" y="807" on="0"/>
        <pt x="878" y="723" on="0"/>
        <pt x="965" y="622" on="0"/>
        <pt x="1019" y="498" on="0"/>
        <pt x="1021" y="421" on="1"/>
        <pt x="1022" y="323" on="0"/>
        <pt x="961" y="171" on="0"/>
        <pt x="848" y="61" on="0"/>
        <pt x="692" y="-5" on="0"/>
        <pt x="598" y="-16" on="1"/>
        <pt x="563" y="-230" on="1"/>
        <pt x="383" y="-230" on="1"/>
        <pt x="416" y="-19" on="1"/>
        <pt x="366" y="-14" on="0"/>
        <pt x="274" y="6" on="0"/>
        <pt x="198" y="30" on="0"/>
        <pt x="143" y="56" on="0"/>
        <pt x="129" y="68" on="1"/>
      </contour>
    </TTGlyph>
    <TTGlyph name="dong" xMin="46" yMin="0" xMax="1437" yMax="1694">
      <contour>
        <pt x="541" y="291" on="1"/>
        <pt x="466" y="291" on="0"/>
        <pt x="335" y="335" on="0"/>
        <pt x="238" y="424" on="0"/>
        <pt x="182" y="559" on="0"/>
        <pt x="183" y="651" on="1"/>
        <pt x="184" y="773" on="0"/>
        <pt x="266" y="990" on="0"/>
        <pt x="417" y="1153" on="0"/>
        <pt x="634" y="1248" on="0"/>
        <pt x="769" y="1248" on="1"/>
        <pt x="841" y="1248" on="0"/>
        <pt x="932" y="1216" on="0"/>
        <pt x="956" y="1203" on="1"/>
        <pt x="980" y="1372" on="1"/>
        <pt x="707" y="1372" on="1"/>
        <pt x="730" y="1521" on="1"/>
        <pt x="1002" y="1521" on="1"/>
        <pt x="1028" y="1694" on="1"/>
        <pt x="1224" y="1694" on="1"/>
        <pt x="1200" y="1521" on="1"/>
        <pt x="1437" y="1521" on="1"/>
        <pt x="1414" y="1372" on="1"/>
        <pt x="1179" y="1372" on="1"/>
        <pt x="1026" y="291" on="1"/>
        <pt x="877" y="291" on="1"/>
        <pt x="866" y="291" on="0"/>
        <pt x="859" y="309" on="0"/>
        <pt x="859" y="318" on="1"/>
        <pt x="859" y="320" on="0"/>
        <pt x="860" y="327" on="0"/>
        <pt x="862" y="344" on="0"/>
        <pt x="866" y="375" on="0"/>
        <pt x="869" y="401" on="1"/>
        <pt x="851" y="386" on="0"/>
        <pt x="794" y="347" on="0"/>
        <pt x="714" y="314" on="0"/>
        <pt x="608" y="291" on="0"/>
      </contour>
      <contour>
        <pt x="569" y="458" on="1"/>
        <pt x="645" y="458" on="0"/>
        <pt x="746" y="485" on="0"/>
        <pt x="811" y="521" on="0"/>
        <pt x="845" y="556" on="0"/>
        <pt x="856" y="564" on="1"/>
        <pt x="924" y="1045" on="1"/>
        <pt x="915" y="1054" on="0"/>
        <pt x="826" y="1084" on="0"/>
        <pt x="742" y="1084" on="1"/>
        <pt x="652" y="1084" on="0"/>
        <pt x="520" y="1013" on="0"/>
        <pt x="434" y="901" on="0"/>
        <pt x="391" y="761" on="0"/>
        <pt x="391" y="692" on="1"/>
        <pt x="390" y="573" on="0"/>
        <pt x="483" y="458" on="0"/>
      </contour>
      <contour>
        <pt x="73" y="178" on="1"/>
        <pt x="1178" y="178" on="1"/>
        <pt x="1151" y="0" on="1"/>
        <pt x="46" y="0" on="1"/>
      </contour>
    </TTGlyph>
    <TTGlyph name="dotaccent" xMin="59" yMin="1388" xMax="328" yMax="1651">
      <contour>
        <pt x="175" y="1388" on="1"/>
        <pt x="151" y="1388" on="0"/>
        <pt x="108" y="1407" on="0"/>
        <pt x="76" y="1440" on="0"/>
        <pt x="59" y="1484" on="0"/>
        <pt x="60" y="1508" on="1"/>
        <pt x="61" y="1536" on="0"/>
        <pt x="86" y="1588" on="0"/>
        <pt x="126" y="1628" on="0"/>
        <pt x="178" y="1651" on="0"/>
        <pt x="205" y="1651" on="1"/>
        <pt x="233" y="1651" on="0"/>
        <pt x="280" y="1632" on="0"/>
        <pt x="312" y="1601" on="0"/>
        <pt x="328" y="1559" on="0"/>
        <pt x="327" y="1536" on="1"/>
        <pt x="326" y="1507" on="0"/>
        <pt x="301" y="1453" on="0"/>
        <pt x="259" y="1412" on="0"/>
        <pt x="205" y="1388" on="0"/>
      </contour>
    </TTGlyph>
    <TTGlyph name="dotaccent.cap" xMin="57" yMin="1696" xMax="324" yMax="1959">
      <contour>
        <pt x="171" y="1696" on="1"/>
        <pt x="147" y="1696" on="0"/>
        <pt x="105" y="1715" on="0"/>
        <pt x="74" y="1748" on="0"/>
        <pt x="57" y="1791" on="0"/>
        <pt x="58" y="1815" on="1"/>
        <pt x="59" y="1844" on="0"/>
        <pt x="86" y="1896" on="0"/>
        <pt x="127" y="1936" on="0"/>
        <pt x="177" y="1959" on="0"/>
        <pt x="201" y="1959" on="1"/>
        <pt x="230" y="1959" on="0"/>
        <pt x="276" y="1940" on="0"/>
        <pt x="307" y="1909" on="0"/>
        <pt x="324" y="1867" on="0"/>
        <pt x="323" y="1843" on="1"/>
        <pt x="322" y="1814" on="0"/>
        <pt x="296" y="1761" on="0"/>
        <pt x="254" y="1720" on="0"/>
        <pt x="200" y="1696" on="0"/>
      </contour>
    </TTGlyph>
    <TTGlyph name="dotlessi" xMin="124" yMin="0" xMax="474" yMax="1140">
      <contour>
        <pt x="279" y="1140" on="1"/>
        <pt x="474" y="1140" on="1"/>
        <pt x="319" y="0" on="1"/>
        <pt x="124" y="0" on="1"/>
      </contour>
    </TTGlyph>
    <TTGlyph name="dotlessj" xMin="-230" yMin="-514" xMax="472" yMax="1140">
      <contour>
        <pt x="277" y="1140" on="1"/>
        <pt x="472" y="1140" on="1"/>
        <pt x="318" y="4" on="1"/>
        <pt x="302" y="-116" on="0"/>
        <pt x="228" y="-307" on="0"/>
        <pt x="121" y="-442" on="0"/>
        <pt x="-16" y="-514" on="0"/>
        <pt x="-96" y="-514" on="1"/>
        <pt x="-144" y="-514" on="0"/>
        <pt x="-210" y="-489" on="0"/>
        <pt x="-230" y="-475" on="1"/>
        <pt x="-178" y="-364" on="1"/>
        <pt x="-174" y="-367" on="0"/>
        <pt x="-159" y="-373" on="0"/>
        <pt x="-143" y="-376" on="0"/>
        <pt x="-128" y="-378" on="0"/>
        <pt x="-124" y="-378" on="1"/>
        <pt x="-58" y="-378" on="0"/>
        <pt x="30" y="-306" on="0"/>
        <pt x="86" y="-183" on="0"/>
        <pt x="119" y="-21" on="0"/>
        <pt x="131" y="69" on="1"/>
      </contour>
    </TTGlyph>
    <TTGlyph name="e" xMin="84" yMin="-16" xMax="965" yMax="1156">
      <contour>
        <pt x="86" y="434" on="1"/>
        <pt x="90" y="584" on="0"/>
        <pt x="179" y="848" on="0"/>
        <pt x="335" y="1043" on="0"/>
        <pt x="552" y="1156" on="0"/>
        <pt x="684" y="1156" on="1"/>
        <pt x="756" y="1156" on="0"/>
        <pt x="862" y="1118" on="0"/>
        <pt x="931" y="1050" on="0"/>
        <pt x="965" y="959" on="0"/>
        <pt x="965" y="906" on="1"/>
        <pt x="965" y="823" on="0"/>
        <pt x="897" y="689" on="0"/>
        <pt x="786" y="585" on="0"/>
        <pt x="643" y="509" on="0"/>
        <pt x="494" y="457" on="0"/>
        <pt x="349" y="429" on="0"/>
        <pt x="292" y="425" on="1"/>
        <pt x="290" y="379" on="0"/>
        <pt x="303" y="278" on="0"/>
        <pt x="348" y="193" on="0"/>
        <pt x="433" y="138" on="0"/>
        <pt x="502" y="138" on="1"/>
        <pt x="577" y="138" on="0"/>
        <pt x="748" y="216" on="0"/>
        <pt x="834" y="297" on="1"/>
        <pt x="889" y="186" on="1"/>
        <pt x="868" y="156" on="0"/>
        <pt x="789" y="86" on="0"/>
        <pt x="682" y="25" on="0"/>
        <pt x="552" y="-16" on="0"/>
        <pt x="479" y="-16" on="1"/>
        <pt x="373" y="-16" on="0"/>
        <pt x="222" y="60" on="0"/>
        <pt x="126" y="186" on="0"/>
        <pt x="84" y="348" on="0"/>
      </contour>
      <contour>
        <pt x="297" y="564" on="1"/>
        <pt x="337" y="566" on="0"/>
        <pt x="439" y="588" on="0"/>
        <pt x="544" y="627" on="0"/>
        <pt x="644" y="683" on="0"/>
        <pt x="722" y="754" on="0"/>
        <pt x="769" y="840" on="0"/>
        <pt x="769" y="889" on="1"/>
        <pt x="769" y="923" on="0"/>
        <pt x="750" y="969" on="0"/>
        <pt x="716" y="996" on="0"/>
        <pt x="669" y="1008" on="0"/>
        <pt x="641" y="1008" on="1"/>
        <pt x="590" y="1008" on="0"/>
        <pt x="502" y="967" on="0"/>
        <pt x="429" y="897" on="0"/>
        <pt x="371" y="807" on="0"/>
        <pt x="329" y="708" on="0"/>
        <pt x="302" y="608" on="0"/>
      </contour>
    </TTGlyph>
    <TTGlyph name="eacute" xMin="84" yMin="-16" xMax="1014" yMax="1733">
      <component glyphName="acute" x="486" y="0" flags="0x4"/>
      <component glyphName="e" x="0" y="0" flags="0x4"/>
    </TTGlyph>
    <TTGlyph name="ebreve" xMin="84" yMin="-16" xMax="986" yMax="1651">
      <component glyphName="e" x="0" y="0" flags="0x204"/>
      <component glyphName="breve" x="299" y="0" flags="0x4"/>
    </TTGlyph>
    <TTGlyph name="ecaron" xMin="84" yMin="-16" xMax="1072" yMax="1680">
      <component glyphName="caron" x="258" y="0" flags="0x4"/>
      <component glyphName="e" x="0" y="0" flags="0x4"/>
    </TTGlyph>
    <TTGlyph name="ecircumflex" xMin="84" yMin="-16" xMax="1015" yMax="1690">
      <component glyphName="circumflex" x="231" y="0" flags="0x4"/>
      <component glyphName="e" x="0" y="0" flags="0x4"/>
    </TTGlyph>
    <TTGlyph name="edieresis" xMin="84" yMin="-16" xMax="1013" yMax="1651">
      <component glyphName="dieresis" x="265" y="0" flags="0x4"/>
      <component glyphName="e" x="0" y="0" flags="0x4"/>
    </TTGlyph>
    <TTGlyph name="edotaccent" xMin="84" yMin="-16" xMax="965" yMax="1651">
      <component glyphName="e" x="0" y="0" flags="0x204"/>
      <component glyphName="dotaccent" x="480" y="0" flags="0x4"/>
    </TTGlyph>
    <TTGlyph name="egrave" xMin="84" yMin="-16" xMax="965" yMax="1733">
      <component glyphName="e" x="0" y="0" flags="0x204"/>
      <component glyphName="grave" x="208" y="0" flags="0x4"/>
    </TTGlyph>
    <TTGlyph name="eight" xMin="123" yMin="-16" xMax="1148" yMax="1569">
      <contour>
        <pt x="123" y="352" on="1"/>
        <pt x="123" y="432" on="0"/>
        <pt x="183" y="576" on="0"/>
        <pt x="285" y="696" on="0"/>
        <pt x="418" y="790" on="0"/>
        <pt x="490" y="821" on="1"/>
        <pt x="449" y="854" on="0"/>
        <pt x="379" y="925" on="0"/>
        <pt x="327" y="1008" on="0"/>
        <pt x="297" y="1104" on="0"/>
        <pt x="297" y="1161" on="1"/>
        <pt x="297" y="1259" on="0"/>
        <pt x="368" y="1411" on="0"/>
        <pt x="493" y="1515" on="0"/>
        <pt x="664" y="1569" on="0"/>
        <pt x="764" y="1569" on="1"/>
        <pt x="845" y="1569" on="0"/>
        <pt x="985" y="1523" on="0"/>
        <pt x="1089" y="1437" on="0"/>
        <pt x="1148" y="1316" on="0"/>
        <pt x="1148" y="1240" on="1"/>
        <pt x="1148" y="1164" on="0"/>
        <pt x="1090" y="1024" on="0"/>
        <pt x="996" y="908" on="0"/>
        <pt x="875" y="824" on="0"/>
        <pt x="811" y="803" on="1"/>
        <pt x="866" y="765" on="0"/>
        <pt x="965" y="679" on="0"/>
        <pt x="1040" y="581" on="0"/>
        <pt x="1084" y="470" on="0"/>
        <pt x="1084" y="407" on="1"/>
        <pt x="1084" y="307" on="0"/>
        <pt x="1001" y="150" on="0"/>
        <pt x="859" y="41" on="0"/>
        <pt x="666" y="-16" on="0"/>
        <pt x="557" y="-16" on="1"/>
        <pt x="480" y="-16" on="0"/>
        <pt x="325" y="30" on="0"/>
        <pt x="201" y="121" on="0"/>
        <pt x="123" y="259" on="0"/>
      </contour>
      <contour>
        <pt x="709" y="879" on="1"/>
        <pt x="760" y="902" on="0"/>
        <pt x="849" y="971" on="0"/>
        <pt x="914" y="1060" on="0"/>
        <pt x="951" y="1166" on="0"/>
        <pt x="951" y="1225" on="1"/>
        <pt x="951" y="1278" on="0"/>
        <pt x="917" y="1358" on="0"/>
        <pt x="859" y="1412" on="0"/>
        <pt x="784" y="1440" on="0"/>
        <pt x="742" y="1440" on="1"/>
        <pt x="689" y="1440" on="0"/>
        <pt x="600" y="1402" on="0"/>
        <pt x="535" y="1336" on="0"/>
        <pt x="498" y="1247" on="0"/>
        <pt x="498" y="1197" on="1"/>
        <pt x="498" y="1145" on="0"/>
        <pt x="529" y="1058" on="0"/>
        <pt x="585" y="981" on="0"/>
        <pt x="663" y="912" on="0"/>
      </contour>
      <contour>
        <pt x="335" y="377" on="1"/>
        <pt x="335" y="320" on="0"/>
        <pt x="371" y="226" on="0"/>
        <pt x="439" y="158" on="0"/>
        <pt x="533" y="120" on="0"/>
        <pt x="592" y="120" on="1"/>
        <pt x="652" y="120" on="0"/>
        <pt x="753" y="157" on="0"/>
        <pt x="826" y="224" on="0"/>
        <pt x="868" y="315" on="0"/>
        <pt x="868" y="369" on="1"/>
        <pt x="868" y="424" on="0"/>
        <pt x="831" y="524" on="0"/>
        <pt x="760" y="617" on="0"/>
        <pt x="658" y="705" on="0"/>
        <pt x="593" y="748" on="1"/>
        <pt x="540" y="722" on="0"/>
        <pt x="448" y="646" on="0"/>
        <pt x="378" y="550" on="0"/>
        <pt x="336" y="438" on="0"/>
      </contour>
    </TTGlyph>
    <TTGlyph name="ellipsis" xMin="84" yMin="-22" xMax="1421" yMax="250">
      <contour>
        <pt x="1140" y="103" on="1"/>
        <pt x="1144" y="134" on="0"/>
        <pt x="1173" y="188" on="0"/>
        <pt x="1217" y="227" on="0"/>
        <pt x="1270" y="250" on="0"/>
        <pt x="1298" y="250" on="1"/>
        <pt x="1334" y="250" on="0"/>
        <pt x="1383" y="230" on="0"/>
        <pt x="1411" y="196" on="0"/>
        <pt x="1421" y="150" on="0"/>
        <pt x="1418" y="125" on="1"/>
        <pt x="1413" y="92" on="0"/>
        <pt x="1382" y="37" on="0"/>
        <pt x="1336" y="-1" on="0"/>
        <pt x="1280" y="-22" on="0"/>
        <pt x="1250" y="-22" on="1"/>
        <pt x="1223" y="-22" on="0"/>
        <pt x="1180" y="-5" on="0"/>
        <pt x="1150" y="27" on="0"/>
        <pt x="1136" y="74" on="0"/>
      </contour>
      <contour>
        <pt x="614" y="103" on="1"/>
        <pt x="618" y="134" on="0"/>
        <pt x="647" y="188" on="0"/>
        <pt x="691" y="227" on="0"/>
        <pt x="744" y="250" on="0"/>
        <pt x="772" y="250" on="1"/>
        <pt x="808" y="250" on="0"/>
        <pt x="857" y="230" on="0"/>
        <pt x="885" y="196" on="0"/>
        <pt x="895" y="150" on="0"/>
        <pt x="892" y="125" on="1"/>
        <pt x="887" y="92" on="0"/>
        <pt x="856" y="37" on="0"/>
        <pt x="810" y="-1" on="0"/>
        <pt x="754" y="-22" on="0"/>
        <pt x="724" y="-22" on="1"/>
        <pt x="697" y="-22" on="0"/>
        <pt x="654" y="-5" on="0"/>
        <pt x="624" y="27" on="0"/>
        <pt x="610" y="74" on="0"/>
      </contour>
      <contour>
        <pt x="88" y="103" on="1"/>
        <pt x="92" y="134" on="0"/>
        <pt x="121" y="188" on="0"/>
        <pt x="165" y="227" on="0"/>
        <pt x="218" y="250" on="0"/>
        <pt x="246" y="250" on="1"/>
        <pt x="282" y="250" on="0"/>
        <pt x="331" y="230" on="0"/>
        <pt x="359" y="196" on="0"/>
        <pt x="369" y="150" on="0"/>
        <pt x="366" y="125" on="1"/>
        <pt x="361" y="92" on="0"/>
        <pt x="330" y="37" on="0"/>
        <pt x="284" y="-1" on="0"/>
        <pt x="228" y="-22" on="0"/>
        <pt x="198" y="-22" on="1"/>
        <pt x="171" y="-22" on="0"/>
        <pt x="128" y="-5" on="0"/>
        <pt x="98" y="27" on="0"/>
        <pt x="84" y="74" on="0"/>
      </contour>
    </TTGlyph>
    <TTGlyph name="emacron" xMin="84" yMin="-16" xMax="965" yMax="1544">
      <component glyphName="e" x="0" y="0" flags="0x204"/>
      <component glyphName="macron" x="329" y="0" flags="0x4"/>
    </TTGlyph>
    <TTGlyph name="emdash" xMin="218" yMin="694" xMax="1838" yMax="851">
      <contour>
        <pt x="247" y="851" on="1"/>
        <pt x="1838" y="851" on="1"/>
        <pt x="1808" y="694" on="1"/>
        <pt x="218" y="694" on="1"/>
      </contour>
    </TTGlyph>
    <TTGlyph name="endash" xMin="218" yMin="694" xMax="1345" yMax="851">
      <contour>
        <pt x="248" y="851" on="1"/>
        <pt x="1345" y="851" on="1"/>
        <pt x="1315" y="694" on="1"/>
        <pt x="218" y="694" on="1"/>
      </contour>
    </TTGlyph>
    <TTGlyph name="eng" xMin="83" yMin="-518" xMax="1066" yMax="1156">
      <contour>
        <pt x="238" y="1140" on="1"/>
        <pt x="423" y="1140" on="1"/>
        <pt x="402" y="912" on="1"/>
        <pt x="445" y="963" on="0"/>
        <pt x="548" y="1052" on="0"/>
        <pt x="662" y="1118" on="0"/>
        <pt x="783" y="1156" on="0"/>
        <pt x="844" y="1156" on="1"/>
        <pt x="955" y="1156" on="0"/>
        <pt x="1066" y="1022" on="0"/>
        <pt x="1066" y="866" on="1"/>
        <pt x="1066" y="835" on="0"/>
        <pt x="1056" y="731" on="0"/>
        <pt x="1039" y="595" on="0"/>
        <pt x="1016" y="434" on="0"/>
        <pt x="990" y="262" on="0"/>
        <pt x="963" y="85" on="0"/>
        <pt x="950" y="0" on="1"/>
        <pt x="930" y="-132" on="0"/>
        <pt x="847" y="-326" on="0"/>
        <pt x="730" y="-455" on="0"/>
        <pt x="581" y="-518" on="0"/>
        <pt x="496" y="-518" on="1"/>
        <pt x="448" y="-518" on="0"/>
        <pt x="373" y="-499" on="0"/>
        <pt x="356" y="-481" on="1"/>
        <pt x="391" y="-400" on="1"/>
        <pt x="398" y="-403" on="0"/>
        <pt x="418" y="-408" on="0"/>
        <pt x="439" y="-411" on="0"/>
        <pt x="457" y="-412" on="0"/>
        <pt x="461" y="-412" on="1"/>
        <pt x="534" y="-412" on="0"/>
        <pt x="636" y="-330" on="0"/>
        <pt x="705" y="-196" on="0"/>
        <pt x="749" y="-25" on="0"/>
        <pt x="763" y="65" on="1"/>
        <pt x="783" y="191" on="0"/>
        <pt x="821" y="430" on="0"/>
        <pt x="850" y="637" on="0"/>
        <pt x="867" y="802" on="0"/>
        <pt x="867" y="854" on="1"/>
        <pt x="867" y="894" on="0"/>
        <pt x="852" y="941" on="0"/>
        <pt x="825" y="967" on="0"/>
        <pt x="786" y="975" on="0"/>
        <pt x="762" y="975" on="1"/>
        <pt x="720" y="975" on="0"/>
        <pt x="617" y="931" on="0"/>
        <pt x="513" y="858" on="0"/>
        <pt x="413" y="762" on="0"/>
        <pt x="374" y="710" on="1"/>
        <pt x="278" y="0" on="1"/>
        <pt x="83" y="0" on="1"/>
      </contour>
    </TTGlyph>
    <TTGlyph name="eogonek" xMin="84" yMin="-435" xMax="965" yMax="1156">
      <contour>
        <pt x="86" y="434" on="1"/>
        <pt x="90" y="584" on="0"/>
        <pt x="179" y="848" on="0"/>
        <pt x="335" y="1043" on="0"/>
        <pt x="552" y="1156" on="0"/>
        <pt x="684" y="1156" on="1"/>
        <pt x="756" y="1156" on="0"/>
        <pt x="862" y="1118" on="0"/>
        <pt x="931" y="1050" on="0"/>
        <pt x="965" y="959" on="0"/>
        <pt x="965" y="906" on="1"/>
        <pt x="965" y="823" on="0"/>
        <pt x="897" y="689" on="0"/>
        <pt x="786" y="585" on="0"/>
        <pt x="643" y="509" on="0"/>
        <pt x="494" y="457" on="0"/>
        <pt x="349" y="429" on="0"/>
        <pt x="292" y="425" on="1"/>
        <pt x="290" y="379" on="0"/>
        <pt x="303" y="278" on="0"/>
        <pt x="348" y="193" on="0"/>
        <pt x="433" y="138" on="0"/>
        <pt x="502" y="138" on="1"/>
        <pt x="577" y="138" on="0"/>
        <pt x="748" y="216" on="0"/>
        <pt x="834" y="297" on="1"/>
        <pt x="889" y="186" on="1"/>
        <pt x="870" y="160" on="0"/>
        <pt x="841" y="133" on="1"/>
        <pt x="849" y="137" on="1"/>
        <pt x="834" y="120" on="0"/>
        <pt x="777" y="64" on="0"/>
        <pt x="710" y="-3" on="0"/>
        <pt x="641" y="-76" on="0"/>
        <pt x="584" y="-144" on="0"/>
        <pt x="548" y="-203" on="0"/>
        <pt x="548" y="-221" on="1"/>
        <pt x="548" y="-242" on="0"/>
        <pt x="561" y="-267" on="0"/>
        <pt x="581" y="-282" on="0"/>
        <pt x="602" y="-287" on="0"/>
        <pt x="611" y="-287" on="1"/>
        <pt x="638" y="-287" on="0"/>
        <pt x="699" y="-271" on="0"/>
        <pt x="741" y="-242" on="1"/>
        <pt x="792" y="-341" on="1"/>
        <pt x="776" y="-355" on="0"/>
        <pt x="728" y="-387" on="0"/>
        <pt x="666" y="-416" on="0"/>
        <pt x="590" y="-435" on="0"/>
        <pt x="547" y="-435" on="1"/>
        <pt x="496" y="-435" on="0"/>
        <pt x="422" y="-405" on="0"/>
        <pt x="376" y="-359" on="0"/>
        <pt x="354" y="-305" on="0"/>
        <pt x="354" y="-281" on="1"/>
        <pt x="354" y="-233" on="0"/>
        <pt x="408" y="-147" on="0"/>
        <pt x="485" y="-74" on="0"/>
        <pt x="569" y="-18" on="0"/>
        <pt x="598" y="0" on="1"/>
        <pt x="569" y="-8" on="0"/>
        <pt x="510" y="-16" on="0"/>
        <pt x="479" y="-16" on="1"/>
        <pt x="373" y="-16" on="0"/>
        <pt x="222" y="60" on="0"/>
        <pt x="126" y="186" on="0"/>
        <pt x="84" y="348" on="0"/>
      </contour>
      <contour>
        <pt x="297" y="564" on="1"/>
        <pt x="337" y="566" on="0"/>
        <pt x="439" y="588" on="0"/>
        <pt x="544" y="627" on="0"/>
        <pt x="644" y="683" on="0"/>
        <pt x="722" y="754" on="0"/>
        <pt x="769" y="840" on="0"/>
        <pt x="769" y="889" on="1"/>
        <pt x="769" y="923" on="0"/>
        <pt x="750" y="969" on="0"/>
        <pt x="716" y="996" on="0"/>
        <pt x="669" y="1008" on="0"/>
        <pt x="641" y="1008" on="1"/>
        <pt x="590" y="1008" on="0"/>
        <pt x="502" y="967" on="0"/>
        <pt x="429" y="897" on="0"/>
        <pt x="371" y="807" on="0"/>
        <pt x="329" y="708" on="0"/>
        <pt x="302" y="608" on="0"/>
      </contour>
    </TTGlyph>
    <TTGlyph name="equal" xMin="96" yMin="339" xMax="999" yMax="1005">
      <contour>
        <pt x="184" y="1005" on="1"/>
        <pt x="999" y="1005" on="1"/>
        <pt x="981" y="848" on="1"/>
        <pt x="166" y="848" on="1"/>
      </contour>
      <contour>
        <pt x="114" y="496" on="1"/>
        <pt x="929" y="496" on="1"/>
        <pt x="911" y="339" on="1"/>
        <pt x="96" y="339" on="1"/>
      </contour>
    </TTGlyph>
    <TTGlyph name="estimated" xMin="115" yMin="-16" xMax="1280" yMax="1358">
      <contour>
        <pt x="375" y="280" on="1"/>
        <pt x="406" y="230" on="0"/>
        <pt x="488" y="162" on="0"/>
        <pt x="586" y="120" on="0"/>
        <pt x="699" y="101" on="0"/>
        <pt x="760" y="101" on="1"/>
        <pt x="814" y="101" on="0"/>
        <pt x="922" y="121" on="0"/>
        <pt x="1018" y="150" on="0"/>
        <pt x="1097" y="183" on="0"/>
        <pt x="1121" y="195" on="1"/>
        <pt x="1160" y="82" on="1"/>
        <pt x="1128" y="59" on="0"/>
        <pt x="1027" y="23" on="0"/>
        <pt x="911" y="-3" on="0"/>
        <pt x="790" y="-16" on="0"/>
        <pt x="738" y="-16" on="1"/>
        <pt x="591" y="-16" on="0"/>
        <pt x="360" y="78" on="0"/>
        <pt x="199" y="255" on="0"/>
        <pt x="115" y="510" on="0"/>
        <pt x="115" y="671" on="1"/>
        <pt x="115" y="818" on="0"/>
        <pt x="193" y="1067" on="0"/>
        <pt x="349" y="1249" on="0"/>
        <pt x="584" y="1353" on="0"/>
        <pt x="742" y="1356" on="1"/>
        <pt x="850" y="1358" on="0"/>
        <pt x="1042" y="1287" on="0"/>
        <pt x="1188" y="1151" on="0"/>
        <pt x="1276" y="955" on="0"/>
        <pt x="1280" y="832" on="1"/>
        <pt x="1280" y="767" on="0"/>
        <pt x="1277" y="669" on="0"/>
        <pt x="1269" y="631" on="1"/>
        <pt x="375" y="631" on="1"/>
      </contour>
      <contour>
        <pt x="1036" y="768" on="1"/>
        <pt x="1036" y="1109" on="1"/>
        <pt x="994" y="1167" on="0"/>
        <pt x="847" y="1238" on="0"/>
        <pt x="729" y="1238" on="1"/>
        <pt x="675" y="1238" on="0"/>
        <pt x="573" y="1217" on="0"/>
        <pt x="482" y="1173" on="0"/>
        <pt x="405" y="1102" on="0"/>
        <pt x="375" y="1053" on="1"/>
        <pt x="375" y="768" on="1"/>
      </contour>
    </TTGlyph>
    <TTGlyph name="eth" xMin="89" yMin="-16" xMax="1088" yMax="1816">
      <contour>
        <pt x="89" y="446" on="1"/>
        <pt x="89" y="559" on="0"/>
        <pt x="133" y="752" on="0"/>
        <pt x="210" y="910" on="0"/>
        <pt x="316" y="1031" on="0"/>
        <pt x="440" y="1114" on="0"/>
        <pt x="578" y="1156" on="0"/>
        <pt x="648" y="1156" on="1"/>
        <pt x="681" y="1156" on="0"/>
        <pt x="756" y="1144" on="0"/>
        <pt x="826" y="1117" on="0"/>
        <pt x="885" y="1073" on="0"/>
        <pt x="904" y="1042" on="1"/>
        <pt x="893" y="1109" on="0"/>
        <pt x="859" y="1220" on="0"/>
        <pt x="808" y="1316" on="0"/>
        <pt x="738" y="1402" on="0"/>
        <pt x="690" y="1446" on="1"/>
        <pt x="540" y="1278" on="1"/>
        <pt x="434" y="1366" on="1"/>
        <pt x="591" y="1529" on="1"/>
        <pt x="531" y="1574" on="0"/>
        <pt x="405" y="1648" on="0"/>
        <pt x="350" y="1662" on="1"/>
        <pt x="393" y="1781" on="1"/>
        <pt x="421" y="1773" on="0"/>
        <pt x="494" y="1744" on="0"/>
        <pt x="572" y="1706" on="0"/>
        <pt x="651" y="1661" on="0"/>
        <pt x="686" y="1638" on="1"/>
        <pt x="709" y="1664" on="0"/>
        <pt x="763" y="1726" on="0"/>
        <pt x="786" y="1753" on="1"/>
        <pt x="812" y="1785" on="0"/>
        <pt x="839" y="1816" on="1"/>
        <pt x="937" y="1727" on="1"/>
        <pt x="789" y="1558" on="1"/>
        <pt x="944" y="1410" on="0"/>
        <pt x="1088" y="1073" on="0"/>
        <pt x="1088" y="869" on="1"/>
        <pt x="1088" y="749" on="0"/>
        <pt x="1054" y="524" on="0"/>
        <pt x="986" y="327" on="0"/>
        <pt x="886" y="165" on="0"/>
        <pt x="754" y="48" on="0"/>
        <pt x="591" y="-16" on="0"/>
        <pt x="495" y="-16" on="1"/>
        <pt x="391" y="-16" on="0"/>
        <pt x="239" y="68" on="0"/>
        <pt x="138" y="201" on="0"/>
        <pt x="89" y="366" on="0"/>
      </contour>
      <contour>
        <pt x="300" y="434" on="1"/>
        <pt x="300" y="374" on="0"/>
        <pt x="329" y="261" on="0"/>
        <pt x="386" y="174" on="0"/>
        <pt x="469" y="122" on="0"/>
        <pt x="524" y="122" on="1"/>
        <pt x="587" y="122" on="0"/>
        <pt x="699" y="198" on="0"/>
        <pt x="788" y="328" on="0"/>
        <pt x="852" y="501" on="0"/>
        <pt x="867" y="598" on="1"/>
        <pt x="870" y="617" on="0"/>
        <pt x="878" y="665" on="0"/>
        <pt x="885" y="714" on="0"/>
        <pt x="891" y="759" on="0"/>
        <pt x="892" y="775" on="1"/>
        <pt x="893" y="790" on="0"/>
        <pt x="881" y="837" on="0"/>
        <pt x="855" y="890" on="0"/>
        <pt x="815" y="944" on="0"/>
        <pt x="759" y="987" on="0"/>
        <pt x="687" y="1014" on="0"/>
        <pt x="642" y="1014" on="1"/>
        <pt x="552" y="1014" on="0"/>
        <pt x="423" y="909" on="0"/>
        <pt x="339" y="742" on="0"/>
        <pt x="300" y="536" on="0"/>
      </contour>
    </TTGlyph>
    <TTGlyph name="exclam" xMin="127" yMin="-22" xMax="627" yMax="1778">
      <contour>
        <pt x="402" y="1778" on="1"/>
        <pt x="627" y="1778" on="1"/>
        <pt x="404" y="488" on="1"/>
        <pt x="246" y="488" on="1"/>
      </contour>
      <contour>
        <pt x="131" y="103" on="1"/>
        <pt x="135" y="134" on="0"/>
        <pt x="168" y="188" on="0"/>
        <pt x="216" y="227" on="0"/>
        <pt x="276" y="250" on="0"/>
        <pt x="308" y="250" on="1"/>
        <pt x="343" y="250" on="0"/>
        <pt x="392" y="230" on="0"/>
        <pt x="420" y="196" on="0"/>
        <pt x="430" y="150" on="0"/>
        <pt x="427" y="125" on="1"/>
        <pt x="422" y="92" on="0"/>
        <pt x="391" y="37" on="0"/>
        <pt x="343" y="-1" on="0"/>
        <pt x="283" y="-22" on="0"/>
        <pt x="250" y="-22" on="1"/>
        <pt x="224" y="-22" on="0"/>
        <pt x="177" y="-5" on="0"/>
        <pt x="144" y="27" on="0"/>
        <pt x="127" y="74" on="0"/>
      </contour>
    </TTGlyph>
    <TTGlyph name="exclamdbl" xMin="127" yMin="-22" xMax="1244" yMax="1778">
      <component glyphName="exclam" x="617" y="0" flags="0x4"/>
      <component glyphName="exclam" x="0" y="0" flags="0x4"/>
    </TTGlyph>
    <TTGlyph name="exclamdown" xMin="93" yMin="-434" xMax="593" yMax="1365">
      <component glyphName="exclam" x="720" y="1344" scale="-0.99994" flags="0x4"/>
    </TTGlyph>
    <TTGlyph name="f" xMin="142" yMin="0" xMax="886" yMax="1681">
      <contour>
        <pt x="281" y="984" on="1"/>
        <pt x="142" y="984" on="1"/>
        <pt x="170" y="1140" on="1"/>
        <pt x="302" y="1140" on="1"/>
        <pt x="316" y="1234" on="1"/>
        <pt x="329" y="1334" on="0"/>
        <pt x="396" y="1499" on="0"/>
        <pt x="501" y="1617" on="0"/>
        <pt x="646" y="1681" on="0"/>
        <pt x="738" y="1681" on="1"/>
        <pt x="776" y="1681" on="0"/>
        <pt x="850" y="1672" on="0"/>
        <pt x="886" y="1655" on="1"/>
        <pt x="836" y="1496" on="1"/>
        <pt x="818" y="1510" on="0"/>
        <pt x="763" y="1529" on="0"/>
        <pt x="712" y="1528" on="1"/>
        <pt x="671" y="1528" on="0"/>
        <pt x="604" y="1489" on="0"/>
        <pt x="555" y="1424" on="0"/>
        <pt x="524" y="1338" on="0"/>
        <pt x="518" y="1291" on="1"/>
        <pt x="497" y="1140" on="1"/>
        <pt x="708" y="1140" on="1"/>
        <pt x="696" y="984" on="1"/>
        <pt x="476" y="984" on="1"/>
        <pt x="343" y="0" on="1"/>
        <pt x="148" y="0" on="1"/>
      </contour>
    </TTGlyph>
    <TTGlyph name="f_f" xMin="142" yMin="0" xMax="1581" yMax="1681">
      <component glyphName="f" x="0" y="0" flags="0x4"/>
      <component glyphName="f" x="695" y="0" flags="0x4"/>
    </TTGlyph>
    <TTGlyph name="f_f_i" xMin="142" yMin="0" xMax="1960" yMax="1681">
      <component glyphName="dotlessi" x="1390" y="0" flags="0x4"/>
      <component glyphName="dotaccent" x="1632" y="0" flags="0x4"/>
      <component glyphName="f" x="0" y="0" flags="0x4"/>
      <component glyphName="f" x="695" y="0" flags="0x4"/>
    </TTGlyph>
    <TTGlyph name="f_f_i_trk" xMin="142" yMin="0" xMax="1960" yMax="1681">
      <component glyphName="f" x="0" y="0" flags="0x4"/>
      <component glyphName="f" x="695" y="0" flags="0x4"/>
      <component glyphName="dotlessi" x="1390" y="0" flags="0x4"/>
      <component glyphName="dotaccent" x="1632" y="4" flags="0x4"/>
    </TTGlyph>
    <TTGlyph name="f_f_l" xMin="142" yMin="0" xMax="1933" yMax="1681">
      <component glyphName="l" x="1390" y="0" flags="0x4"/>
      <component glyphName="f" x="0" y="0" flags="0x4"/>
      <component glyphName="f" x="695" y="0" flags="0x4"/>
    </TTGlyph>
    <TTGlyph name="f_i_trk" xMin="142" yMin="0" xMax="1265" yMax="1681">
      <component glyphName="f" x="0" y="0" flags="0x4"/>
      <component glyphName="dotlessi" x="695" y="0" flags="0x4"/>
      <component glyphName="dotaccent" x="937" y="4" flags="0x4"/>
    </TTGlyph>
    <TTGlyph name="ffi_dflt" xMin="142" yMin="0" xMax="1960" yMax="1681">
      <component glyphName="dotlessi" x="1390" y="0" flags="0x4"/>
      <component glyphName="dotaccent" x="1632" y="0" flags="0x4"/>
      <component glyphName="f" x="0" y="0" flags="0x4"/>
      <component glyphName="f" x="695" y="0" flags="0x4"/>
    </TTGlyph>
    <TTGlyph name="fi" xMin="142" yMin="0" xMax="1265" yMax="1681">
      <component glyphName="dotlessi" x="695" y="0" flags="0x4"/>
      <component glyphName="dotaccent" x="937" y="0" flags="0x4"/>
      <component glyphName="f" x="0" y="0" flags="0x4"/>
    </TTGlyph>
    <TTGlyph name="fi_trk" xMin="142" yMin="0" xMax="1265" yMax="1681">
      <component glyphName="dotlessi" x="695" y="0" flags="0x4"/>
      <component glyphName="dotaccent" x="937" y="0" flags="0x4"/>
      <component glyphName="f" x="0" y="0" flags="0x4"/>
    </TTGlyph>
    <TTGlyph name="five" xMin="45" yMin="-346" xMax="1050" yMax="1162">
      <contour>
        <pt x="68" y="-189" on="1"/>
        <pt x="91" y="-193" on="0"/>
        <pt x="130" y="-196" on="0"/>
        <pt x="147" y="-196" on="1"/>
        <pt x="259" y="-196" on="0"/>
        <pt x="468" y="-152" on="0"/>
        <pt x="628" y="-61" on="0"/>
        <pt x="725" y="77" on="0"/>
        <pt x="725" y="170" on="1"/>
        <pt x="725" y="298" on="0"/>
        <pt x="603" y="426" on="0"/>
        <pt x="487" y="426" on="1"/>
        <pt x="460" y="426" on="0"/>
        <pt x="394" y="419" on="0"/>
        <pt x="324" y="405" on="0"/>
        <pt x="255" y="385" on="0"/>
        <pt x="225" y="373" on="1"/>
        <pt x="152" y="448" on="1"/>
        <pt x="313" y="1146" on="1"/>
        <pt x="860" y="1146" on="1"/>
        <pt x="882" y="1162" on="1"/>
        <pt x="1050" y="1162" on="1"/>
        <pt x="1012" y="977" on="1"/>
        <pt x="466" y="977" on="1"/>
        <pt x="350" y="551" on="1"/>
        <pt x="375" y="558" on="0"/>
        <pt x="434" y="568" on="0"/>
        <pt x="496" y="576" on="0"/>
        <pt x="554" y="580" on="0"/>
        <pt x="578" y="580" on="1"/>
        <pt x="680" y="580" on="0"/>
        <pt x="824" y="525" on="0"/>
        <pt x="914" y="426" on="0"/>
        <pt x="956" y="289" on="0"/>
        <pt x="956" y="208" on="1"/>
        <pt x="956" y="127" on="0"/>
        <pt x="901" y="-18" on="0"/>
        <pt x="801" y="-141" on="0"/>
        <pt x="659" y="-240" on="0"/>
        <pt x="486" y="-309" on="0"/>
        <pt x="285" y="-346" on="0"/>
        <pt x="175" y="-346" on="1"/>
        <pt x="163" y="-346" on="0"/>
        <pt x="130" y="-345" on="0"/>
        <pt x="95" y="-341" on="0"/>
        <pt x="60" y="-334" on="0"/>
        <pt x="45" y="-329" on="1"/>
        <pt x="68" y="-189" on="1"/>
      </contour>
    </TTGlyph>
    <TTGlyph name="fl" xMin="142" yMin="0" xMax="1238" yMax="1681">
      <component glyphName="l" x="695" y="0" flags="0x4"/>
      <component glyphName="f" x="0" y="0" flags="0x4"/>
    </TTGlyph>
    <TTGlyph name="florin" xMin="194" yMin="-356" xMax="1018" yMax="1678">
      <contour>
        <pt x="413" y="999" on="1"/>
        <pt x="194" y="999" on="1"/>
        <pt x="208" y="1101" on="1"/>
        <pt x="434" y="1155" on="1"/>
        <pt x="444" y="1230" on="1"/>
        <pt x="459" y="1341" on="0"/>
        <pt x="547" y="1509" on="0"/>
        <pt x="666" y="1622" on="0"/>
        <pt x="801" y="1678" on="0"/>
        <pt x="863" y="1678" on="1"/>
        <pt x="930" y="1678" on="0"/>
        <pt x="1008" y="1666" on="0"/>
        <pt x="1018" y="1661" on="1"/>
        <pt x="1007" y="1491" on="1"/>
        <pt x="1000" y="1495" on="0"/>
        <pt x="978" y="1505" on="0"/>
        <pt x="943" y="1515" on="0"/>
        <pt x="894" y="1522" on="0"/>
        <pt x="859" y="1522" on="1"/>
        <pt x="819" y="1522" on="0"/>
        <pt x="751" y="1506" on="0"/>
        <pt x="697" y="1457" on="0"/>
        <pt x="657" y="1364" on="0"/>
        <pt x="647" y="1288" on="1"/>
        <pt x="629" y="1155" on="1"/>
        <pt x="902" y="1155" on="1"/>
        <pt x="887" y="999" on="1"/>
        <pt x="608" y="999" on="1"/>
        <pt x="432" y="-356" on="1"/>
        <pt x="234" y="-356" on="1"/>
      </contour>
    </TTGlyph>
    <TTGlyph name="four" xMin="20" yMin="-375" xMax="1130" yMax="1256">
      <contour>
        <pt x="20" y="94" on="1"/>
        <pt x="111" y="231" on="0"/>
        <pt x="281" y="501" on="0"/>
        <pt x="451" y="783" on="0"/>
        <pt x="626" y="1085" on="0"/>
        <pt x="722" y="1256" on="1"/>
        <pt x="769" y="1256" on="1"/>
        <pt x="911" y="1167" on="1"/>
        <pt x="315" y="230" on="1"/>
        <pt x="236" y="131" on="1"/>
        <pt x="691" y="148" on="1"/>
        <pt x="749" y="614" on="1"/>
        <pt x="942" y="649" on="1"/>
        <pt x="879" y="159" on="1"/>
        <pt x="1130" y="174" on="1"/>
        <pt x="1109" y="0" on="1"/>
        <pt x="859" y="0" on="1"/>
        <pt x="812" y="-375" on="1"/>
        <pt x="623" y="-375" on="1"/>
        <pt x="672" y="0" on="1"/>
        <pt x="56" y="0" on="1"/>
      </contour>
    </TTGlyph>
    <TTGlyph name="four.numr" xMin="131" yMin="471" xMax="1145" yMax="1760">
      <contour>
        <pt x="660" y="814" on="1"/>
        <pt x="168" y="814" on="1"/>
        <pt x="131" y="909" on="1"/>
        <pt x="737" y="1760" on="1"/>
        <pt x="785" y="1760" on="1"/>
        <pt x="918" y="1657" on="1"/>
        <pt x="427" y="1048" on="1"/>
        <pt x="348" y="956" on="1"/>
        <pt x="681" y="970" on="1"/>
        <pt x="717" y="1223" on="1"/>
        <pt x="919" y="1246" on="1"/>
        <pt x="883" y="978" on="1"/>
        <pt x="1145" y="989" on="1"/>
        <pt x="1125" y="814" on="1"/>
        <pt x="861" y="814" on="1"/>
        <pt x="815" y="471" on="1"/>
        <pt x="612" y="471" on="1"/>
      </contour>
    </TTGlyph>
    <TTGlyph name="fraction" xMin="141" yMin="0" xMax="981" yMax="1530">
      <contour>
        <pt x="822" y="1530" on="1"/>
        <pt x="981" y="1530" on="1"/>
        <pt x="300" y="0" on="1"/>
        <pt x="141" y="0" on="1"/>
      </contour>
    </TTGlyph>
    <TTGlyph name="franc" xMin="36" yMin="0" xMax="1206" yMax="1530">
      <contour>
        <pt x="257" y="299" on="1"/>
        <pt x="36" y="299" on="1"/>
        <pt x="55" y="460" on="1"/>
        <pt x="278" y="460" on="1"/>
        <pt x="414" y="1530" on="1"/>
        <pt x="1206" y="1530" on="1"/>
        <pt x="1191" y="1368" on="1"/>
        <pt x="598" y="1376" on="1"/>
        <pt x="532" y="855" on="1"/>
        <pt x="1001" y="863" on="1"/>
        <pt x="988" y="690" on="1"/>
        <pt x="514" y="706" on="1"/>
        <pt x="483" y="460" on="1"/>
        <pt x="792" y="460" on="1"/>
        <pt x="773" y="299" on="1"/>
        <pt x="462" y="299" on="1"/>
        <pt x="424" y="0" on="1"/>
        <pt x="219" y="0" on="1"/>
      </contour>
    </TTGlyph>
    <TTGlyph name="g" xMin="79" yMin="-504" xMax="1070" yMax="1156">
      <contour>
        <pt x="171" y="-304" on="1"/>
        <pt x="213" y="-324" on="0"/>
        <pt x="350" y="-356" on="0"/>
        <pt x="428" y="-356" on="1"/>
        <pt x="492" y="-356" on="0"/>
        <pt x="585" y="-321" on="0"/>
        <pt x="650" y="-254" on="0"/>
        <pt x="691" y="-157" on="0"/>
        <pt x="703" y="-96" on="1"/>
        <pt x="752" y="191" on="1"/>
        <pt x="723" y="152" on="0"/>
        <pt x="646" y="78" on="0"/>
        <pt x="554" y="20" on="0"/>
        <pt x="447" y="-16" on="0"/>
        <pt x="389" y="-16" on="1"/>
        <pt x="309" y="-16" on="0"/>
        <pt x="193" y="46" on="0"/>
        <pt x="116" y="159" on="0"/>
        <pt x="79" y="318" on="0"/>
        <pt x="79" y="416" on="1"/>
        <pt x="79" y="494" on="0"/>
        <pt x="112" y="665" on="0"/>
        <pt x="181" y="829" on="0"/>
        <pt x="287" y="978" on="0"/>
        <pt x="431" y="1090" on="0"/>
        <pt x="614" y="1156" on="0"/>
        <pt x="727" y="1156" on="1"/>
        <pt x="754" y="1156" on="0"/>
        <pt x="813" y="1150" on="0"/>
        <pt x="872" y="1141" on="0"/>
        <pt x="929" y="1128" on="0"/>
        <pt x="953" y="1122" on="1"/>
        <pt x="1070" y="1156" on="1"/>
        <pt x="900" y="-93" on="1"/>
        <pt x="888" y="-172" on="0"/>
        <pt x="830" y="-294" on="0"/>
        <pt x="750" y="-386" on="0"/>
        <pt x="651" y="-448" on="0"/>
        <pt x="546" y="-487" on="0"/>
        <pt x="439" y="-504" on="0"/>
        <pt x="390" y="-504" on="1"/>
        <pt x="357" y="-504" on="0"/>
        <pt x="276" y="-498" on="0"/>
        <pt x="199" y="-488" on="0"/>
        <pt x="136" y="-475" on="0"/>
        <pt x="121" y="-469" on="1"/>
      </contour>
      <contour>
        <pt x="424" y="136" on="1"/>
        <pt x="476" y="136" on="0"/>
        <pt x="576" y="183" on="0"/>
        <pt x="664" y="255" on="0"/>
        <pt x="737" y="342" on="0"/>
        <pt x="763" y="381" on="1"/>
        <pt x="849" y="988" on="1"/>
        <pt x="816" y="999" on="0"/>
        <pt x="738" y="1013" on="0"/>
        <pt x="696" y="1013" on="1"/>
        <pt x="625" y="1013" on="0"/>
        <pt x="507" y="961" on="0"/>
        <pt x="415" y="873" on="0"/>
        <pt x="347" y="758" on="0"/>
        <pt x="303" y="630" on="0"/>
        <pt x="281" y="499" on="0"/>
        <pt x="281" y="440" on="1"/>
        <pt x="281" y="279" on="0"/>
        <pt x="358" y="136" on="0"/>
      </contour>
    </TTGlyph>
    <TTGlyph name="gbreve" xMin="79" yMin="-504" xMax="1070" yMax="1651">
      <component glyphName="g" x="0" y="0" flags="0x204"/>
      <component glyphName="breve" x="367" y="0" flags="0x4"/>
    </TTGlyph>
    <TTGlyph name="gcaron" xMin="79" yMin="-504" xMax="1086" yMax="1680">
      <component glyphName="g" x="0" y="0" flags="0x204"/>
      <component glyphName="caron" x="272" y="0" flags="0x4"/>
    </TTGlyph>
    <TTGlyph name="gcircumflex" xMin="79" yMin="-504" xMax="1083" yMax="1690">
      <component glyphName="circumflex" x="299" y="0" flags="0x4"/>
      <component glyphName="g" x="0" y="0" flags="0x4"/>
    </TTGlyph>
    <TTGlyph name="gcommaaccent" xMin="79" yMin="-504" xMax="1070" yMax="1746">
      <contour>
        <pt x="682" y="1237" on="1"/>
        <pt x="651" y="1244" on="0"/>
        <pt x="602" y="1287" on="0"/>
        <pt x="567" y="1348" on="0"/>
        <pt x="549" y="1420" on="0"/>
        <pt x="549" y="1456" on="1"/>
        <pt x="549" y="1517" on="0"/>
        <pt x="584" y="1618" on="0"/>
        <pt x="638" y="1693" on="0"/>
        <pt x="702" y="1739" on="0"/>
        <pt x="731" y="1746" on="1"/>
        <pt x="811" y="1696" on="1"/>
        <pt x="808" y="1670" on="1"/>
        <pt x="790" y="1656" on="0"/>
        <pt x="764" y="1627" on="0"/>
        <pt x="748" y="1592" on="0"/>
        <pt x="740" y="1548" on="0"/>
        <pt x="740" y="1520" on="1"/>
        <pt x="740" y="1503" on="0"/>
        <pt x="751" y="1467" on="0"/>
        <pt x="771" y="1436" on="0"/>
        <pt x="797" y="1414" on="0"/>
        <pt x="812" y="1411" on="1"/>
        <pt x="806" y="1357" on="1"/>
      </contour>
      <contour>
        <pt x="171" y="-304" on="1"/>
        <pt x="213" y="-324" on="0"/>
        <pt x="350" y="-356" on="0"/>
        <pt x="428" y="-356" on="1"/>
        <pt x="492" y="-356" on="0"/>
        <pt x="585" y="-321" on="0"/>
        <pt x="650" y="-254" on="0"/>
        <pt x="691" y="-157" on="0"/>
        <pt x="703" y="-96" on="1"/>
        <pt x="752" y="191" on="1"/>
        <pt x="723" y="152" on="0"/>
        <pt x="646" y="78" on="0"/>
        <pt x="554" y="20" on="0"/>
        <pt x="447" y="-16" on="0"/>
        <pt x="389" y="-16" on="1"/>
        <pt x="309" y="-16" on="0"/>
        <pt x="193" y="46" on="0"/>
        <pt x="116" y="159" on="0"/>
        <pt x="79" y="318" on="0"/>
        <pt x="79" y="416" on="1"/>
        <pt x="79" y="494" on="0"/>
        <pt x="112" y="665" on="0"/>
        <pt x="181" y="829" on="0"/>
        <pt x="287" y="978" on="0"/>
        <pt x="431" y="1090" on="0"/>
        <pt x="614" y="1156" on="0"/>
        <pt x="727" y="1156" on="1"/>
        <pt x="754" y="1156" on="0"/>
        <pt x="813" y="1150" on="0"/>
        <pt x="872" y="1141" on="0"/>
        <pt x="929" y="1128" on="0"/>
        <pt x="953" y="1122" on="1"/>
        <pt x="1070" y="1156" on="1"/>
        <pt x="900" y="-93" on="1"/>
        <pt x="888" y="-172" on="0"/>
        <pt x="830" y="-294" on="0"/>
        <pt x="750" y="-386" on="0"/>
        <pt x="651" y="-448" on="0"/>
        <pt x="546" y="-487" on="0"/>
        <pt x="439" y="-504" on="0"/>
        <pt x="390" y="-504" on="1"/>
        <pt x="357" y="-504" on="0"/>
        <pt x="276" y="-498" on="0"/>
        <pt x="199" y="-488" on="0"/>
        <pt x="136" y="-475" on="0"/>
        <pt x="121" y="-469" on="1"/>
      </contour>
      <contour>
        <pt x="424" y="136" on="1"/>
        <pt x="476" y="136" on="0"/>
        <pt x="576" y="183" on="0"/>
        <pt x="664" y="255" on="0"/>
        <pt x="737" y="342" on="0"/>
        <pt x="763" y="381" on="1"/>
        <pt x="849" y="988" on="1"/>
        <pt x="816" y="999" on="0"/>
        <pt x="738" y="1013" on="0"/>
        <pt x="696" y="1013" on="1"/>
        <pt x="625" y="1013" on="0"/>
        <pt x="507" y="961" on="0"/>
        <pt x="415" y="873" on="0"/>
        <pt x="347" y="758" on="0"/>
        <pt x="303" y="630" on="0"/>
        <pt x="281" y="499" on="0"/>
        <pt x="281" y="440" on="1"/>
        <pt x="281" y="279" on="0"/>
        <pt x="358" y="136" on="0"/>
      </contour>
    </TTGlyph>
    <TTGlyph name="gdotaccent" xMin="79" yMin="-504" xMax="1070" yMax="1651">
      <component glyphName="g" x="0" y="0" flags="0x204"/>
      <component glyphName="dotaccent" x="548" y="0" flags="0x4"/>
    </TTGlyph>
</ttFont>
